<?xml version="1.0" encoding="utf-8" ?>
<svg baseProfile="full" height="200mm" version="1.1" viewBox="0,0,200,200" width="200mm" xmlns="http://www.w3.org/2000/svg" xmlns:ev="http://www.w3.org/2001/xml-events" xmlns:xlink="http://www.w3.org/1999/xlink"><defs /><rect fill="#1a1a1a" height="200" width="200" x="0" y="0" /><text alignment-baseline="middle" fill="#e1ed5e" style="dominant-baseline: central; font-size:9.0px; font-family:Arial;" text-anchor="middle" x="100.0" y="100.0">2026</text><line stroke="#e1ed5e" stroke-width="0.3" x1="100.0" x2="100.0" y1="15.0" y2="10.0" /><path d="M 100.0 14.0 a86.0,86.0 0 0,1 42.46469731375804,11.215312516191453" fill="none" id="id157" stroke="none" /><text fill="#e1ed5e" style="font-size:6.75px; font-family:Arial;" text-anchor="middle"><textPath startOffset="22.20632615414155" xlink:href="#id157">January</textPath></text><path d="M 100.0 79.0 l 0.0 -33.480013823292246 a54.480013823292246,54.480013823292246 0 0,0 0.9377838813151262,0.008071801935416921 l -0.5763034020425979 33.47505339796539" fill="#b9ff1f" stroke="none" /><path d="M 101.08401301168833 79.027996857942 l 0.7869427484920919 -15.224693445599527 a36.24501785508582,36.24501785508582 0 0,0 0.6227894277428977,0.0375683590456058 l -1.0488942250746014 15.208891817173617" fill="#ff2003" stroke="none" /><path d="M 101.80526077348638 79.07773832637324 l 2.0109286579441608 -23.305871487613274 a44.39246630572515,44.39246630572515 0 0,0 0.7607491985677836,0.0722423030298312 l -2.4118029836021884 23.267803640068266" fill="#ffab0f" stroke="none" /><path d="M 102.16513564639614 79.11191278185805 l 2.0429243266479333 -19.709056837207765 a40.81465268978228,40.81465268978228 0 0,0 0.6981896300407688,0.07844974001198282 l -2.3818806601984277 19.670971143725183" fill="#ff700a" stroke="none" /><path d="M 102.52436894288641 79.15227682838746 l 3.98443765181771 -32.905829155331766 a54.14618131551664,54.14618131551664 0 0,0 0.9243146909122083,0.12000257488965882 l -4.550267071237764 32.83236825727797" fill="#beff1f" stroke="none" /><path d="M 103.2404852339499 79.25152402106235 l 8.784137602270377 -56.24388166528749 a77.92569980417002,77.92569980417002 0 0,0 1.3235152957779535,0.21839136412001733 l -9.750982104187207 56.08434403822785" fill="#44ffe4" stroke="none" /><path d="M 103.59715602781102 79.31037775812273 l 3.2557141931242093 -18.72576453800596 a40.006681257919595,40.006681257919595 0 0,0 0.6774557639903497,0.12380071068096835 l -3.5775650782174595 18.666948345974255" fill="#ff6209" stroke="none" /><path d="M 104.307194497241 79.44645832069477 l 4.964611005574644 -23.690673660076957 a45.20527588987444,45.20527588987444 0 0,0 0.7602177184360124,0.1661541482643091 l -5.371671448164185 23.60170601371678" fill="#ffb911" stroke="none" /><path d="M 104.66035177308747 79.52364482259891 l 3.595251218104691 -15.796584566646137 a37.2005529316899,37.2005529316899 0 0,0 0.623155873965017,0.14748086200872274 l -3.866630779032232 15.732357792496545" fill="#ff3104" stroke="none" /><path d="M 105.01212808612495 79.60689891045804 l 5.775408045790565 -23.498697177593392 a45.198018661444536,45.198018661444536 0 0,0 0.7539268660072563,0.1921927450271712 l -6.179043800482846 23.395801436397353" fill="#ffb811" stroke="none" /><path d="M 105.36241919743992 79.69619591428918 l 4.529116179660125 -17.148657016061723 a38.73666628268633,38.73666628268633 0 0,0 0.6432170141528302,0.1758155076314434 l -4.823631083036666 17.068154967603984" fill="#ff4c07" stroke="none" /><path d="M 105.71112130821622 79.79150937346287 l 16.124822401149572 -57.0568028172359 a80.29155627231886,80.29155627231886 0 0,0 1.3267597838430745,0.3873175630525645 l -17.104572402716077 56.77078692526463" fill="#47fdff" stroke="none" /><path d="M 106.0581310904928 79.89281104454417 l 5.535433223106645 -18.372333002496898 a40.1881119686672,40.1881119686672 0 0,0 0.6606440045106368,0.20526530805168594 l -5.850862600328001 18.274327559562693" fill="#ff6509" stroke="none" /><path d="M 106.74666289553966 80.11325718540242 l 6.1894278654622505 -18.244213774387184 a40.26552240525285,40.26552240525285 0 0,0 0.6544451148907742,0.2283230502187083 l -6.502554984416299 18.13496987099627" fill="#ff6609" stroke="none" /><path d="M 107.08798089147638 80.2323363322302 l 7.22433532171213 -20.147942418203787 a42.40398571593134,42.40398571593134 0 0,0 0.684961019644339,0.25227692415884506 l -7.570078667129045 20.020602226238616" fill="#ff8b0c" stroke="none" /><path d="M 107.4271985657038 80.35727306442388 l 11.749535526184808 -31.074020159689756 a54.22117267595899,54.22117267595899 0 0,0 0.8701641907265826,0.33761018719010294 l -12.282682881911057 30.867167268609105" fill="#bcff1f" stroke="none" /><path d="M 107.76421540070413 80.48803036053334 l 5.127548311512132 -12.885856691978155 a34.86856352954729,34.86856352954729 0 0,0 0.5557652694105498,0.22671060782742633 l -5.348597450511068 12.795685197967149" fill="#ff0701" stroke="none" /><path d="M 108.09893153111575 80.62456947434976 l 24.296794593347244 -58.12629157695072 a84.0,84.0 0 0,0 1.329264968838739,0.5691218881488367 l -25.2937433199763 57.69945016083909" fill="#4dd2ff" stroke="none" /><path d="M 109.08828744355905 81.06846463323043 l 9.125976459567365 -19.010044210589832 a42.087086741158856,42.087086741158856 0 0,0 0.650403282634778,0.3191500661184418 l -9.451851009212575 18.850138984336557" fill="#ff850c" stroke="none" /><path d="M 109.41281617654863 81.2277094730956 l 8.66356424958225 -17.278032635637153 a40.32841838497869,40.32841838497869 0 0,0 0.6178688413095099,0.31649641867472683 l -8.959693578480515 17.126343691649925" fill="#ff6809" stroke="none" /><path d="M 110.36928655335952 81.73862282372117 l 10.155474516376298 -17.8848322489025 a41.56698537034904,41.56698537034904 0 0,0 0.6191566116862416,0.35865547328266084 l -10.461827860527869 17.70737261822979" fill="#ff7d0b" stroke="none" /><line stroke="#e1ed5e" stroke-width="0.3" x1="143.23703022742887" x2="145.7803849466894" y1="26.81831364943548" y2="22.513508569990506" /><path d="M 143.74570117128098 25.957352633546492 a86.0,86.0 0 0,1 28.547481713284135,27.462654790039103" fill="none" id="id158" stroke="none" /><text fill="#e1ed5e" style="font-size:6.75px; font-family:Arial;" text-anchor="middle"><textPath startOffset="19.985693538727396" xlink:href="#id158">February</textPath></text><path d="M 110.68208982089419 81.91981866633111 l 11.285041555975194 -19.100719158055217 a43.18534731021772,43.18534731021772 0 0,0 0.6367534148004533,0.38363680773468645 l -11.612157036993286 18.903635740861915" fill="#ff980e" stroke="none" /><path d="M 111.2981086023043 82.29822771554956 l 11.636492225918982 -18.231948622885774 a42.62895979725838,42.62895979725838 0 0,0 0.6151419273850265,0.40010542085713596 l -11.94860117908829 18.02894427786911" fill="#ff8e0d" stroke="none" /><path d="M 111.60114157652 82.49532879139004 l 13.318393843059377 -20.09579003167918 a45.10851284414238,45.10851284414238 0 0,0 0.6435380328765367,0.4345197524901162 l -13.662336570342456 19.86355836689039" fill="#ffb711" stroke="none" /><path d="M 112.19680574252982 82.90503203632743 l 12.441275757412917 -17.437615633950077 a42.42091924893445,42.42091924893445 0 0,0 0.5907712628061239,0.42922044675207804 l -12.73959233657283 17.220875952381324" fill="#ff8b0c" stroke="none" /><path d="M 112.48926042617603 83.11751280151076 l 8.016375889258478 -10.836219176360109 a34.47909227047575,34.47909227047575 0 0,0 0.47409383371521346,0.357077646558364 l -8.201715876732075 10.696624940295898" fill="#ff0000" stroke="none" /><path d="M 113.34407831869373 83.78471172551755 l 13.843655032617866 -16.822357585530348 a42.786199746572976,42.786199746572976 0 0,0 0.5646606086630678,0.4728870209855451 l -14.131173178240052 16.581569407150983" fill="#ff910d" stroke="none" /><path d="M 113.6212207817346 84.01681056812373 l 18.85568599632586 -22.125329731926865 a50.07003801405368,50.07003801405368 0 0,0 0.6511637087443007,0.5646827515493197 l -19.233743503716923 21.797481986957873" fill="#f9ff18" stroke="none" /><path d="M 113.89432698308785 84.25364557470407 l 13.60142733582312 -15.414413075240745 a41.55730906577583,41.55730906577583 0 0,0 0.5323075963700595,0.4779110158221679 l -13.86474591978917 15.178003050649279" fill="#ff7c0b" stroke="none" /><path d="M 114.16331599549186 84.49514656593476 l 12.836881724747139 -14.05278041921729 a40.03329109549591,40.03329109549591 0 0,0 0.5047857079920609,0.4691433020447845 l -13.076875316534048 13.829732531097864" fill="#ff6309" stroke="none" /><path d="M 114.42810811169701 84.74124197986012 l 33.24896933239243 -35.16316716886284 a69.39361824674577,69.39361824674577 0 0,0 0.8608666828400151,0.8281530668283156 l -33.849319258844865 34.58563101527222" fill="#36ff71" stroke="none" /><path d="M 115.4437574822437 85.77008943001954 l 11.923057556272 -10.985930266099421 a37.2126483124064,37.2126483124064 0 0,0 0.4299945601202077,0.47481073302989596 l -12.110395757008241 10.779066745799975" fill="#ff3104" stroke="none" /><path d="M 115.9244219780498 86.31012108654704 l 19.05390750904313 -16.380229498218633 a46.1269439004723,46.1269439004723 0 0,0 0.5124250687740639,0.6065496542416998 l -19.33304319130431 16.049820894347828" fill="#ffc712" stroke="none" /><path d="M 116.60985879189232 87.15038557335679 l 15.052385568001029 -11.644731792927331 a40.030872019352614,40.030872019352614 0 0,0 0.4169388021162735,0.5486425905679826 l -15.250600310341415 11.383904426478315" fill="#ff6209" stroke="none" /><path d="M 116.82858285166822 87.43820079747576 l 25.22251946585129 -18.82750482940248 a52.47459970049533,52.47459970049533 0 0,0 0.5340849452084341,0.7284912650475704 l -25.542867023573347 18.390551120683416" fill="#d6ff1c" stroke="none" /><path d="M 117.04232023915458 87.72973835380427 l 21.204250766398875 -15.266800603681622 a47.1284414237991,47.1284414237991 0 0,0 0.4683386177837523,0.6624317613795652 l -21.46390200398651 14.899542341970264" fill="#ffd714" stroke="none" /><path d="M 117.2510076193507 88.02491185347247 l 12.155988792573456 -8.438291867425823 a35.79773067618938,35.79773067618938 0 0,0 0.347025816678668,0.5092175652392811 l -12.299439074920857 8.227796278916136" fill="#ff1802" stroke="none" /><line stroke="#e1ed5e" stroke-width="0.3" x1="172.23445277983987" x2="176.4835382374775" y1="55.19839476539836" y2="52.563006222186495" /><path d="M 173.08426987136738 54.67131705675599 a86.0,86.0 0 0,1 12.851231095245387,41.99856678651699" fill="none" id="id159" stroke="none" /><text fill="#e1ed5e" style="font-size:6.75px; font-family:Arial;" text-anchor="middle"><textPath startOffset="22.20632615414155" xlink:href="#id159">March</textPath></text><line stroke="#e1ed5e" stroke-width="0.3" x1="184.98032266829074" x2="189.97916517819016" y1="98.17113171792111" y2="98.06355123074" /><path d="M 185.9800911702706 98.14961562048488 a86.0,86.0 0 0,1 -9.607161424134198,41.387399972396054" fill="none" id="id160" stroke="none" /><text fill="#e1ed5e" style="font-size:6.75px; font-family:Arial;" text-anchor="middle"><textPath startOffset="21.466115282336823" xlink:href="#id160">April</textPath></text><line stroke="#e1ed5e" stroke-width="0.3" x1="174.80103733775053" x2="179.2010983576182" y1="140.37084112569926" y2="142.7455964860345" /><path d="M 175.68104954172406 140.8457921977663 a86.0,86.0 0 0,1 -30.038265399797805,32.042727171017184" fill="none" id="id161" stroke="none" /><text fill="#e1ed5e" style="font-size:6.75px; font-family:Arial;" text-anchor="middle"><textPath startOffset="22.206326154141568" xlink:href="#id161">May</textPath></text><line stroke="#e1ed5e" stroke-width="0.3" x1="143.8653032363475" x2="146.44561519142675" y1="172.8068346515853" y2="177.08958963109032" /><path d="M 144.38136562736335 173.6633856474863 a86.0,86.0 0 0,1 -40.68145358897372,12.25698825130547" fill="none" id="id162" stroke="none" /><text fill="#e1ed5e" style="font-size:6.75px; font-family:Arial;" text-anchor="middle"><textPath startOffset="21.466115282336833" xlink:href="#id162">June</textPath></text><line stroke="#e1ed5e" stroke-width="0.3" x1="102.19456741930631" x2="102.32365962044197" y1="184.97166512339345" y2="189.96999836594603" /><path d="M 102.22038585953345 185.97133177190398 a86.0,86.0 0 0,1 -42.740103519485714,-10.115201625700543" fill="none" id="id163" stroke="none" /><text fill="#e1ed5e" style="font-size:6.75px; font-family:Arial;" text-anchor="middle"><textPath startOffset="22.20632615414155" xlink:href="#id163">July</textPath></text><line stroke="#e1ed5e" stroke-width="0.3" x1="58.666819895761336" x2="56.23545636021788" y1="174.27360380694188" y2="178.64263932499728" /><path d="M 58.180547188652646 175.14741091055294 a86.0,86.0 0 0,1 -31.652253787137756,-30.449443065178592" fill="none" id="id164" stroke="none" /><text fill="#e1ed5e" style="font-size:6.75px; font-family:Arial;" text-anchor="middle"><textPath startOffset="22.20632615414155" xlink:href="#id164">August</textPath></text><line stroke="#e1ed5e" stroke-width="0.3" x1="26.63291911575756" x2="22.317208475507996" y1="142.92168965132927" y2="145.44649492493687" /><path d="M 25.769776987707644 143.4266507060508 a86.0,86.0 0 0,1 -11.730757126820373,-40.83630448921669" fill="none" id="id165" stroke="none" /><text fill="#e1ed5e" style="font-size:6.75px; font-family:Arial;" text-anchor="middle"><textPath startOffset="21.46611528233685" xlink:href="#id165">September</textPath></text><line stroke="#e1ed5e" stroke-width="0.3" x1="15.007084014347285" x2="10.007500721073583" y1="101.09737516637583" y2="101.16192664675087" /><path d="M 14.007167355692545 101.11028546245083 a86.0,86.0 0 0,1 10.666146001902534,-42.60595125391555" fill="none" id="id166" stroke="none" /><text fill="#e1ed5e" style="font-size:6.75px; font-family:Arial;" text-anchor="middle"><textPath startOffset="22.20632615414155" xlink:href="#id166">October</textPath></text><line stroke="#e1ed5e" stroke-width="0.3" x1="26.266209847984243" x2="21.928928074336255" y1="57.711370442889674" y2="55.22380399835377" /><path d="M 25.398753493254645 57.213857153982495 a86.0,86.0 0 0,1 29.58750427330803,-30.492523968695096" fill="none" id="id167" stroke="none" /><text fill="#e1ed5e" style="font-size:6.75px; font-family:Arial;" text-anchor="middle"><textPath startOffset="21.46611528233685" xlink:href="#id167">November</textPath></text><line stroke="#e1ed5e" stroke-width="0.3" x1="56.762969772571076" x2="54.21961505331055" y1="26.818313649435495" y2="22.513508569990535" /><path d="M 56.25429882871897 25.957352633546506 a86.0,86.0 0 0,1 42.265352541879196,-11.944610805530505" fill="none" id="id168" stroke="none" /><text fill="#e1ed5e" style="font-size:6.75px; font-family:Arial;" text-anchor="middle"><textPath startOffset="22.20632615414155" xlink:href="#id168">December</textPath></text></svg>