<?xml version="1.0" encoding="utf-8" ?>
<svg baseProfile="full" height="200mm" version="1.1" viewBox="0,0,200,200" width="200mm" xmlns="http://www.w3.org/2000/svg" xmlns:ev="http://www.w3.org/2001/xml-events" xmlns:xlink="http://www.w3.org/1999/xlink"><defs /><rect fill="#1a1a1a" height="200" width="200" x="0" y="0" /><text alignment-baseline="middle" fill="#e1ed5e" style="dominant-baseline: central; font-size:9.0px; font-family:Arial;" text-anchor="middle" x="100.0" y="100.0">2013</text><line stroke="#e1ed5e" stroke-width="0.3" x1="100.0" x2="100.0" y1="15.0" y2="10.0" /><path d="M 100.0 14.0 a86.0,86.0 0 0,1 42.46469731375804,11.215312516191453" fill="none" id="id1" stroke="none" /><text fill="#e1ed5e" style="font-size:6.75px; font-family:Arial;" text-anchor="middle"><textPath startOffset="22.20632615414155" xlink:href="#id1">January</textPath></text><line stroke="#e1ed5e" stroke-width="0.3" x1="143.23703022742887" x2="145.7803849466894" y1="26.81831364943548" y2="22.513508569990506" /><path d="M 143.74570117128098 25.957352633546492 a86.0,86.0 0 0,1 28.547481713284135,27.462654790039103" fill="none" id="id2" stroke="none" /><text fill="#e1ed5e" style="font-size:6.75px; font-family:Arial;" text-anchor="middle"><textPath startOffset="19.985693538727396" xlink:href="#id2">February</textPath></text><line stroke="#e1ed5e" stroke-width="0.3" x1="172.23445277983987" x2="176.4835382374775" y1="55.19839476539836" y2="52.563006222186495" /><path d="M 173.08426987136738 54.67131705675599 a86.0,86.0 0 0,1 12.851231095245387,41.99856678651699" fill="none" id="id3" stroke="none" /><text fill="#e1ed5e" style="font-size:6.75px; font-family:Arial;" text-anchor="middle"><textPath startOffset="22.20632615414155" xlink:href="#id3">March</textPath></text><path d="M 120.45610955862082 95.25157060432595 l 42.59523578116555 -9.88753355662954 a64.72776499075343,64.72776499075343 0 0,0 0.24259230578977617,1.0874937392846376 l -42.75912247395736 9.15286164779494" fill="red" stroke="none" /><path d="M 120.87857604477298 97.74499172005257 l 32.468278801662194 -3.5067639371756743 a53.6571052246451,53.6571052246451 0 0,0 0.09127552505692514,0.9191320809938928 l -32.523831452401346 2.9473563254773465" fill="red" stroke="none" /><line stroke="#e1ed5e" stroke-width="0.3" x1="184.98032266829074" x2="189.97916517819016" y1="98.17113171792111" y2="98.06355123074" /><path d="M 185.9800911702706 98.14961562048488 a86.0,86.0 0 0,1 -9.607161424134198,41.387399972396054" fill="none" id="id4" stroke="none" /><text fill="#e1ed5e" style="font-size:6.75px; font-family:Arial;" text-anchor="middle"><textPath startOffset="21.466115282336823" xlink:href="#id4">April</textPath></text><path d="M 120.99513854157772 99.54816195383933 l 62.98541562473312 -1.355514138482002 a84.0,84.0 0 0,0 0.018667971529137795,1.4458549677581491 l -62.99941660337998 0.27112291266339017" fill="red" stroke="none" /><path d="M 120.89721153311464 102.0752229133903 l 51.6242836487606 5.126612043214582 a72.87821135399065,72.87821135399065 0 0,0 -0.13471259216580125,1.247271295956276 l -51.52838875509375 -6.014479661055649" fill="red" stroke="none" /><path d="M 120.76222939487914 103.15116336523771 l 25.826066512435986 3.919721389951161 a47.12182855926453,47.12182855926453 0 0,0 -0.1286162163954847,0.800893302268449 l -25.754768541679212 -4.363693921912815" fill="red" stroke="none" /><path d="M 120.49622156327973 104.57218783832717 l 41.04916271046594 9.15702837905275 a63.05811369955963,63.05811369955963 0 0,0 -0.2454445012994694,1.057368487718704 l -40.885457643235924 -9.86226552412002" fill="red" stroke="none" /><path d="M 120.32669344350535 105.2749913415812 l 34.55264746213359 8.966776455700355 a56.697178132857914,56.697178132857914 0 0,0 -0.25327958793506306,0.9425475690257971 l -34.39317979785675 -9.560214957901701" fill="red" stroke="none" /><path d="M 119.41010516605496 108.01547362559984 l 23.727364165377853 9.798301454089621 a46.67088860210475,46.67088860210475 0 0,0 -0.31302613649950034,0.7399013202589223 l -23.555187047686044 -10.205277300014707" fill="red" stroke="none" /><line stroke="#e1ed5e" stroke-width="0.3" x1="174.80103733775053" x2="179.2010983576182" y1="140.37084112569926" y2="142.7455964860345" /><path d="M 175.68104954172406 140.8457921977663 a86.0,86.0 0 0,1 -30.038265399797805,32.042727171017184" fill="none" id="id5" stroke="none" /><text fill="#e1ed5e" style="font-size:6.75px; font-family:Arial;" text-anchor="middle"><textPath startOffset="22.206326154141568" xlink:href="#id5">May</textPath></text><path d="M 113.75828350139079 115.86535959552629 l 21.341145445813112 24.609534077708638 a53.574125567100836,53.574125567100836 0 0,0 -0.7019091193193199,0.5981821790770658 l -20.914370849916747 -24.973240647008648" fill="red" stroke="none" /><path d="M 111.7513745106137 117.40417183066458 l 16.950477898929076 25.10421480469329 a51.290927717094846,51.290927717094846 0 0,0 -0.7359644879171585,0.48775713167457074 l -16.515838712271954 -25.392269957459177" fill="red" stroke="none" /><line stroke="#e1ed5e" stroke-width="0.3" x1="143.8653032363475" x2="146.44561519142675" y1="172.8068346515853" y2="177.08958963109032" /><path d="M 144.38136562736335 173.6633856474863 a86.0,86.0 0 0,1 -40.68145358897372,12.25698825130547" fill="none" id="id6" stroke="none" /><text fill="#e1ed5e" style="font-size:6.75px; font-family:Arial;" text-anchor="middle"><textPath startOffset="21.466115282336833" xlink:href="#id6">June</textPath></text><line stroke="#e1ed5e" stroke-width="0.3" x1="102.19456741930631" x2="102.32365962044197" y1="184.97166512339345" y2="189.96999836594603" /><path d="M 102.22038585953345 185.97133177190398 a86.0,86.0 0 0,1 -42.740103519485714,-10.115201625700543" fill="none" id="id7" stroke="none" /><text fill="#e1ed5e" style="font-size:6.75px; font-family:Arial;" text-anchor="middle"><textPath startOffset="22.20632615414155" xlink:href="#id7">July</textPath></text><path d="M 93.08242187328487 119.8279376855182 l -13.794385034743735 39.53901233477274 a62.87622899564946,62.87622899564946 0 0,0 -1.0188357537421677,-0.36531825285209024 l 14.472940349115628 -39.295706540880694" fill="red" stroke="none" /><path d="M 92.7421414339146 119.70592522655815 l -13.026254652202365 35.36778759479958 a58.69036627063848,58.69036627063848 0 0,0 -0.9449981233613869,-0.35731742998017907 l 13.633122996324035 -35.13832191471277" fill="red" stroke="none" /><path d="M 91.40352486487194 119.15986991738527 l -19.345414408769866 43.11716345869709 a68.25817223900057,68.25817223900057 0 0,0 -1.0678568633776928,-0.49020071090500145 l 20.08473926791498 -42.77777567745802" fill="red" stroke="none" /><path d="M 90.42595943632237 118.69057910512821 l -14.346348797233317 28.007147586332177 a52.46773013317723,52.46773013317723 0 0,0 -0.8002805374019708,-0.418668953574681 l 14.826320237161783 -27.75604921381278" fill="red" stroke="none" /><line stroke="#e1ed5e" stroke-width="0.3" x1="58.666819895761336" x2="56.23545636021788" y1="174.27360380694188" y2="178.64263932499728" /><path d="M 58.180547188652646 175.14741091055294 a86.0,86.0 0 0,1 -31.652253787137756,-30.449443065178592" fill="none" id="id8" stroke="none" /><text fill="#e1ed5e" style="font-size:6.75px; font-family:Arial;" text-anchor="middle"><textPath startOffset="22.20632615414155" xlink:href="#id8">August</textPath></text><path d="M 89.7882731507175 118.34994917583269 l -24.664900959953574 44.321561448139995 a71.7223633968841,71.7223633968841 0 0,0 -1.0736196844350376,-0.609629276574795 l 25.42416941130982 -43.89042900577057" fill="red" stroke="none" /><path d="M 88.54995079064634 117.60387380957326 l -24.950848953629045 38.3606732504342 a66.76118568976759,66.76118568976759 0 0,0 -0.95794449478317,-0.6348733760255496 l 25.607468147152176 -37.925501853317336" fill="red" stroke="none" /><path d="M 88.24862548938628 117.40417183066458 l -27.029584115760954 40.03170233722197 a69.30254247435573,69.30254247435573 0 0,0 -0.9829183406722182,-0.6760601974422888 l 27.714659341056063 -39.56050135041458" fill="red" stroke="none" /><path d="M 87.65650970185807 116.9893568818739 l -27.145069852734363 37.361983375230686 a67.18195122600216,67.18195122600216 0 0,0 -0.9297183210896756,-0.6877833875162236 l 27.7841731442426 -36.8891900389747" fill="red" stroke="none" /><path d="M 87.36589467227662 116.77436683061367 l -26.32784638028433 34.955617480396185 a64.76129212511475,64.76129212511475 0 0,0 -0.8846740103017339,-0.6783303066643052 l 26.92564911907955 -34.49724783190451" fill="red" stroke="none" /><path d="M 84.67929136418377 114.36230785411682 l -32.55072208639095 30.51448223391135 a65.6170722296875,65.6170722296875 0 0,0 -0.7653875018793168,-0.8306769674224757 l 33.07115599626599 -29.94965401168753" fill="red" stroke="none" /><path d="M 83.95833913139862 113.55231037782056 l -34.53386721959812 29.17488974115442 a66.20798797280577,66.20798797280577 0 0,0 -0.7279852029486421,-0.8769050735134961 l 35.0309484224403 -28.576123410527163" fill="red" stroke="none" /><path d="M 82.6465618267979 111.8261652097733 l -39.2383071172015 26.740447506041555 a68.48364221758047,68.48364221758047 0 0,0 -0.6554761626617274,-0.9798479270056547 l 39.69278638527396 -26.06106266483008" fill="red" stroke="none" /><path d="M 82.44556493220864 111.52570212397912 l -38.717475117188634 25.420703284952516 a67.31689794180647,67.31689794180647 0 0,0 -0.6276343442642606,-0.9741024402289191 l 39.14931432482994 -24.75047924480215" fill="red" stroke="none" /><line stroke="#e1ed5e" stroke-width="0.3" x1="26.63291911575756" x2="22.317208475507996" y1="142.92168965132927" y2="145.44649492493687" /><path d="M 25.769776987707644 143.4266507060508 a86.0,86.0 0 0,1 -11.730757126820373,-40.83630448921669" fill="none" id="id9" stroke="none" /><text fill="#e1ed5e" style="font-size:6.75px; font-family:Arial;" text-anchor="middle"><textPath startOffset="21.46611528233685" xlink:href="#id9">September</textPath></text><path d="M 81.18737489456691 109.33194174019688 l -43.44251445923939 21.549518565816857 a69.49364714021527,69.49364714021527 0 0,0 -0.5223498041451824,-1.076195311440453 l 43.80701751999929 -20.79853429841112" fill="red" stroke="none" /><path d="M 80.45479744820244 107.68017299344265 l -44.27529386109937 17.39771768993405 a68.57081276691989,68.57081276691989 0 0,0 -0.42221896874691334,-1.1022804949146752 l 44.5682071094398 -16.63301362818622" fill="red" stroke="none" /><path d="M 79.86692584326677 105.97154293290107 l -43.21473844847063 12.817648411274991 a66.07555579207855,66.07555579207855 0 0,0 -0.31403938047107016,-1.0932122815160326 l 43.4289704658278 -12.071878654254363" fill="red" stroke="none" /><path d="M 79.50377843672027 104.57218783832718 l -41.56700160391974 9.272545118738297 a63.58868060082754,63.58868060082754 0 0,0 -0.22911898304314865,-1.0703676111405718 l 41.72045462568733 -8.555663688181562" fill="red" stroke="none" /><path d="M 79.35854240842038 103.8639653848113 l -46.9448090826257 8.787805632768748 a68.76024107606136,68.76024107606136 0 0,0 -0.2077658058043402,-1.1652609759063863 l 47.08912133076924 -7.978425906129147" fill="red" stroke="none" /><line stroke="#e1ed5e" stroke-width="0.3" x1="15.007084014347285" x2="10.007500721073583" y1="101.09737516637583" y2="101.16192664675087" /><path d="M 14.007167355692545 101.11028546245083 a86.0,86.0 0 0,1 10.666146001902534,-42.60595125391555" fill="none" id="id10" stroke="none" /><text fill="#e1ed5e" style="font-size:6.75px; font-family:Arial;" text-anchor="middle"><textPath startOffset="22.20632615414155" xlink:href="#id10">October</textPath></text><path d="M 80.02781315780177 93.51064311812611 l -40.32567948803061 -13.102607529636439 a63.40092864840413,63.40092864840413 0 0,0 0.3461772407718468,-1.0350258876369351 l 40.094164953486995 13.794806520195696" fill="red" stroke="none" /><path d="M 80.95270993114464 91.15688171328213 l -38.05454086531767 -17.667647471227195 a62.9558559397576,62.9558559397576 0 0,0 0.4647995053875483,-0.9789862969985663 l 37.74478316608837 18.32007618386629" fill="red" stroke="none" /><line stroke="#e1ed5e" stroke-width="0.3" x1="26.266209847984243" x2="21.928928074336255" y1="57.711370442889674" y2="55.22380399835377" /><path d="M 25.398753493254645 57.213857153982495 a86.0,86.0 0 0,1 29.58750427330803,-30.492523968695096" fill="none" id="id11" stroke="none" /><text fill="#e1ed5e" style="font-size:6.75px; font-family:Arial;" text-anchor="middle"><textPath startOffset="21.46611528233685" xlink:href="#id11">November</textPath></text><path d="M 83.6137871275137 86.86637796730984 l -33.10488951877807 -26.53371524933855 a63.426073999175124,63.426073999175124 0 0,0 0.6901406452612299,-0.8460308279418174 l 32.64325038144045 27.09963024688845" fill="red" stroke="none" /><path d="M 85.31137513191541 84.99185889309783 l -29.56270674293863 -30.205773398435763 a63.26514375424078,63.26514375424078 0 0,0 0.7848395258689664,-0.7550150020583962 l 29.038383973457236 30.71017148725647" fill="red" stroke="none" /><line stroke="#e1ed5e" stroke-width="0.3" x1="56.762969772571076" x2="54.21961505331055" y1="26.818313649435495" y2="22.513508569990535" /><path d="M 56.25429882871897 25.957352633546506 a86.0,86.0 0 0,1 42.265352541879196,-11.944610805530505" fill="none" id="id12" stroke="none" /><text fill="#e1ed5e" style="font-size:6.75px; font-family:Arial;" text-anchor="middle"><textPath startOffset="22.20632615414155" xlink:href="#id12">December</textPath></text><path d="M 95.692805502759 79.44645832069477 l -11.3784820532266 -54.297084860696394 a76.47651104931947,76.47651104931947 0 0,0 1.2907544953636436,-0.2589132089821001 l 10.44216114839582 54.48490202575571" fill="red" stroke="none" /></svg>