<?xml version="1.0" encoding="utf-8" ?>
<svg baseProfile="full" height="200mm" version="1.1" viewBox="0,0,200,200" width="200mm" xmlns="http://www.w3.org/2000/svg" xmlns:ev="http://www.w3.org/2001/xml-events" xmlns:xlink="http://www.w3.org/1999/xlink"><defs /><rect fill="#1a1a1a" height="200" width="200" x="0" y="0" /><text alignment-baseline="middle" fill="#e1ed5e" style="dominant-baseline: central; font-size:9.0px; font-family:Arial;" text-anchor="middle" x="100.0" y="100.0">2026</text><line stroke="#e1ed5e" stroke-width="0.3" x1="100.0" x2="100.0" y1="15.0" y2="10.0" /><path d="M 100.0 14.0 a86.0,86.0 0 0,1 42.46469731375804,11.215312516191453" fill="none" id="id157" stroke="none" /><text fill="#e1ed5e" style="font-size:6.75px; font-family:Arial;" text-anchor="middle"><textPath startOffset="22.20632615414155" xlink:href="#id157">January</textPath></text><path d="M 100.0 79.0 l 0.0 -20.546221457690223 a41.54622145769022,41.54622145769022 0 0,0 0.715149906880403,0.006155521029403044 l -0.3536694276078747 20.54317731326938" fill="#ffbf11" stroke="none" /><path d="M 101.08401301168833 79.027996857942 l 0.4829358814001826 -9.343183811385076 a30.35565662040201,30.35565662040201 0 0,0 0.5215939495730538,0.031463971449537116 l -0.6436918798128485 9.333486570555236" fill="#ff1202" stroke="none" /><path d="M 101.80526077348638 79.07773832637324 l 1.234079106412795 -14.30249101378308 a35.355633056059574,35.355633056059574 0 0,0 0.6058859025092095,0.05753616704819055 l -1.4800901360122487 14.279129302219712" fill="#ff6209" stroke="none" /><path d="M 102.16513564639614 79.11191278185805 l 1.2537144057989997 -12.09517560646139 a33.15997832080496,33.15997832080496 0 0,0 0.5672461106537529,0.06373670989784949 l -1.461727219962478 12.07180294309294" fill="#ff3f05" stroke="none" /><path d="M 102.52436894288641 79.15227682838746 l 2.445194282496138 -20.193852267886633 a41.34135306454273,41.34135306454273 0 0,0 0.7057269608188376,0.09162361401367974 l -2.7924359718228215 20.148770330708818" fill="#ffbc11" stroke="none" /><path d="M 103.2404852339499 79.25152402106235 l 5.390703762658234 -34.516092330020555 a55.93451469236751,55.93451469236751 0 0,0 0.9500098933125461,0.15675977239544278 l -5.984042862109654 34.41818629468548" fill="#80ff26" stroke="none" /><path d="M 103.59715602781102 79.31037775812273 l 1.9979867740776631 -11.491742721287775 a32.664137427245095,32.664137427245095 0 0,0 0.5531203159092236,0.10107920227632611 l -2.1955022110897877 11.45564803766071" fill="#ff3705" stroke="none" /><path d="M 104.307194497241 79.44645832069477 l 3.0467131139849757 -14.538638785243633 a35.8544430567665,35.8544430567665 0 0,0 0.6029646398533386,0.1317847160606004 l -3.2965204779918422 14.484040571087162" fill="#ff6909" stroke="none" /><path d="M 104.66035177308747 79.52364482259891 l 2.2063559505408126 -9.694145483167173 a30.942055281947358,30.942055281947358 0 0,0 0.5183181964231055,0.12266917090406404 l -2.3728978339264417 9.65473040012224" fill="#ff1b02" stroke="none" /><path d="M 105.01212808612495 79.60689891045804 l 3.5442880443133027 -14.420825472961436 a35.8499893960459,35.8499893960459 0 0,0 0.5979967917224279,0.15244269716403608 l -3.7919937247207556 14.357679779628533" fill="#ff6909" stroke="none" /><path d="M 105.36241919743992 79.69619591428918 l 2.7794559621766064 -10.523893646329746 a31.884746801140516,31.884746801140516 0 0,0 0.5294418338631063,0.1447164529759272 l -2.9601956852634235 10.474490652527525" fill="#ff2b04" stroke="none" /><path d="M 105.71112130821622 79.79150937346287 l 9.895580502701378 -35.01497079834283 a57.38640808728233,57.38640808728233 0 0,0 0.9482688083810666,0.2768256684092823 l -10.496839528805872 34.839446801014844" fill="#6eff28" stroke="none" /><path d="M 106.0581310904928 79.89281104454417 l 3.397018814463002 -11.274846675873102 a32.77547894526003,32.77547894526003 0 0,0 0.5387892737293164,0.1674044500394942 l -3.5905934609030363 11.214702090951087" fill="#ff3905" stroke="none" /><path d="M 106.74666289553966 80.11325718540242 l 3.798366281787905 -11.196221677459889 a32.82298465961307,32.82298465961307 0 0,0 0.533479778318145,0.18612061950516412 l -3.990528064169324 11.129180204782516" fill="#ff3a05" stroke="none" /><path d="M 107.08798089147638 80.2323363322302 l 4.433474675008814 -12.36451361776943 a34.13533001861583,34.13533001861583 0 0,0 0.5513955837095437,0.20308364689897768 l -4.645652584490934 12.286366703064129" fill="#ff4f07" stroke="none" /><path d="M 107.4271985657038 80.35727306442388 l 7.21052745737048 -19.069696421019405 a41.38737422532225,41.38737422532225 0 0,0 0.6642019938282124,0.2577000546082482 l -7.537712616198359 18.94275366252061" fill="#ffbc11" stroke="none" /><path d="M 107.76421540070413 80.48803036053334 l 3.146705485230116 -7.907872041595473 a29.510945637061997,29.510945637061997 0 0,0 0.4703709299249929,0.1918761126270958 l -3.282360284743496 7.8525350427847975" fill="#ff0400" stroke="none" /><path d="M 108.09893153111575 80.62456947434976 l 14.910606819392095 -35.67130125924376 a59.662228715507695,59.662228715507695 0 0,0 0.9441298880282031,0.40422714592544623 l -15.522420465210613 35.40935458535553" fill="#54ff2b" stroke="none" /><path d="M 109.08828744355905 81.06846463323043 l 5.600485541779883 -11.666201224789477 a33.94085350048307,33.94085350048307 0 0,0 0.5245134372903011,0.2573764657415026 l -5.800470246080616 11.568069598913143" fill="#ff4c07" stroke="none" /><path d="M 109.41281617654863 81.2277094730956 l 5.316709563632456 -10.603289674809682 a32.86158305252492,32.86158305252492 0 0,0 0.5034699861133801,0.25789688176762676 l -5.498440037334592 10.510200267729553" fill="#ff3a05" stroke="none" /><path d="M 110.36928655335952 81.73862282372117 l 6.2322742613754025 -10.97567420548502 a33.621674482173574,33.621674482173574 0 0,0 0.5008080780005231,0.2901003637026148 l -6.420279071841254 10.866769684392358" fill="#ff4606" stroke="none" /><line stroke="#e1ed5e" stroke-width="0.3" x1="143.23703022742887" x2="145.7803849466894" y1="26.81831364943548" y2="22.513508569990506" /><path d="M 143.74570117128098 25.957352633546492 a86.0,86.0 0 0,1 28.547481713284135,27.462654790039103" fill="none" id="id158" stroke="none" /><text fill="#e1ed5e" style="font-size:6.75px; font-family:Arial;" text-anchor="middle"><textPath startOffset="19.985693538727396" xlink:href="#id158">February</textPath></text><path d="M 110.68208982089419 81.91981866633111 l 6.925473931763837 -11.721847186022385 a34.61484082286684,34.61484082286684 0 0,0 0.51038418050466,0.3075007580264842 l -7.126220178486134 11.600899818537286" fill="#ff5608" stroke="none" /><path d="M 111.2981086023043 82.29822771554956 l 7.1411543473762995 -11.188694723609448 a34.273393500954356,34.273393500954356 0 0,0 0.49456992233618674,0.32168203484485447 l -7.332691295496766 11.064113764605064" fill="#ff5107" stroke="none" /><path d="M 111.60114157652 82.49532879139004 l 8.17331410926303 -12.332508419422219 a35.795060913825196,35.795060913825196 0 0,0 0.5106682006292338,0.34480544863858653 l -8.384387004298807 12.189991058484962" fill="#ff6809" stroke="none" /><path d="M 112.19680574252982 82.90503203632743 l 7.635038870568246 -10.701223553855407 a34.14572189363056,34.14572189363056 0 0,0 0.4755274425844398,0.3454909102712209 l -7.8181116295064745 10.56821340876751" fill="#ff4f07" stroke="none" /><path d="M 112.48926042617603 83.11751280151076 l 4.919539017460201 -6.650037844568332 a29.27193251172326,29.27193251172326 0 0,0 0.4024944333183395,0.30315046259067824 l -5.033279604536923 6.564370792471806" fill="#ff0000" stroke="none" /><path d="M 113.34407831869373 83.78471172551755 l 8.495659636978747 -10.323648198505238 a34.36988948323397,34.36988948323397 0 0,0 0.4535883726583996,0.3798672175981402 l -8.672105546596264 10.175879823513277" fill="#ff5207" stroke="none" /><path d="M 113.6212207817346 84.01681056812373 l 11.571473723456288 -13.578008865107607 a38.839880293140425,38.839880293140425 0 0,0 0.5051148651368564,0.4380306335621473 l -11.803482387239908 13.376813238125788" fill="#ff970d" stroke="none" /><path d="M 113.89432698308785 84.25364557470407 l 8.34700784944368 -9.459612124289997 a33.61573626787944,33.61573626787944 0 0,0 0.4305839857109786,0.38658255379251255 l -8.508602822750648 9.314530561728187" fill="#ff4606" stroke="none" /><path d="M 114.16331599549186 84.49514656593476 l 7.877816781525311 -8.623996994548996 a32.680467516553946,32.680467516553946 0 0,0 0.41207286439438506,0.38297681813145756 l -8.025097529714543 8.487115590342897" fill="#ff3705" stroke="none" /><path d="M 114.42810811169701 84.74124197986012 l 20.404432648950117 -21.579149388003273 a50.69849423851828,50.69849423851828 0 0,0 0.6289432034644421,0.6050428634217463 l -20.772859096026977 21.224723437819225" fill="#c2ff1e" stroke="none" /><path d="M 115.4437574822437 85.77008943001954 l 7.317015527440483 -6.741913469850067 a30.94947804981502,30.94947804981502 0 0,0 0.35762322230485855,0.39489649423381945 l -7.431982390361377 6.614964188346699" fill="#ff1c02" stroke="none" /><path d="M 115.9244219780498 86.31012108654704 l 11.693119524424679 -10.052320305914833 a36.42005796828239,36.42005796828239 0 0,0 0.40459109429448703,0.4789082410443013 l -11.864421232206283 9.849553115241426" fill="#ff720a" stroke="none" /><path d="M 116.60985879189232 87.15038557335679 l 9.23744084990576 -7.146210855696832 a32.67898296298042,32.67898296298042 0 0,0 0.3403657058576241,0.4478813716890522 l -9.359082495987497 6.986144708126746" fill="#ff3705" stroke="none" /><path d="M 116.82858285166822 87.43820079747576 l 15.47871137095377 -11.554179331058481 a40.315526545231755,40.315526545231755 0 0,0 0.4103302532816848,0.5596900043378045 l -15.675304236749081 11.286026883049184" fill="#ffad10" stroke="none" /><path d="M 117.04232023915458 87.72973835380427 l 13.012755442404645 -9.369024391961743 a37.034663147724864,37.034663147724864 0 0,0 0.3680317537497326,0.5205548157308151 l -13.17209981595826 9.143643075899135" fill="#ff7c0b" stroke="none" /><path d="M 117.2510076193507 88.02491185347247 l 7.459962205740049 -5.178463018200406 a30.081162664655842,30.081162664655842 0 0,0 0.29160898870300295,0.42790020826240194 l -7.547995660111785 5.049284786667599" fill="#ff0d01" stroke="none" /><path d="M 117.45458315368197 88.32363383020206 l 10.472256325279746 -7.0054895268097495 a33.59940617857059,33.59940617857059 0 0,0 0.31743977313353006,0.4834825527733792 l -10.591292733771201 6.824188910058696" fill="#ff4606" stroke="none" /><line stroke="#e1ed5e" stroke-width="0.3" x1="172.23445277983987" x2="176.4835382374775" y1="55.19839476539836" y2="52.563006222186495" /><path d="M 173.08426987136738 54.67131705675599 a86.0,86.0 0 0,1 12.851231095245387,41.99856678651699" fill="none" id="id159" stroke="none" /><text fill="#e1ed5e" style="font-size:6.75px; font-family:Arial;" text-anchor="middle"><textPath startOffset="22.20632615414155" xlink:href="#id159">March</textPath></text><path d="M 117.84615892207809 88.93136811851018 l 30.770399611858835 -19.084567588863724 a57.20826165845842,57.20826165845842 0 0,0 0.5118346939586801,0.8413216589968409 l -31.09435010410374 18.552078156659803" fill="#71ff27" stroke="none" /><path d="M 118.21658344932153 89.55222093294921 l 11.967390013046044 -6.86367162170533 a34.795956358837806,34.795956358837806 0 0,0 0.2935160848995283,0.5221323636313837 l -12.083763739238005 6.656655748139152" fill="#ff5908" stroke="none" /><path d="M 118.3937258080291 89.86733742301442 l 7.690022463558976 -4.236249014795539 a29.779649833871385,29.779649833871385 0 0,0 0.2434726040279003,0.4511177581835654 l -7.7618031668053415 4.103250273279515" fill="#ff0801" stroke="none" /><path d="M 118.73160827565052 90.50648371742162 l 19.873504983926505 -10.07225009088318 a43.28018003157622,43.28018003157622 0 0,0 0.3310727409355509,0.6674224433935798 l -20.043937737815465 9.728668058990651" fill="#ffd814" stroke="none" /><path d="M 119.04729006885535 91.15688171328212 l 13.726329026220853 -6.372746505276202 a36.13353912859061,36.13353912859061 0 0,0 0.2570603345583657,0.5663983725607704 l -13.833991677742565 6.135526123873369" fill="#ff6e0a" stroke="none" /><path d="M 119.34039704204932 91.81776055985345 l 12.191600755752324 -5.157836021946891 a34.23776421518957,34.23776421518957 0 0,0 0.22495566434285583,0.5447479845294639 l -12.278578106981378 4.947213466964124" fill="#ff5007" stroke="none" /><path d="M 119.47837535516314 92.15188598940014 l 14.257306013197852 -5.744471037001969 a36.37106770035582,36.37106770035582 0 0,0 0.22897570227030423,0.5827181867041672 l -14.354075265349856 5.498203845402018" fill="#ff710a" stroke="none" /><path d="M 119.61058180528143 92.48833698450437 l 9.842952905542202 -3.7702576108126635 a31.540330372080966,31.540330372080966 0 0,0 0.18983585886542192,0.5086657213083249 l -9.906393352909248 3.600268752475005" fill="#ff2503" stroke="none" /><path d="M 119.97218684219823 93.5106431181261 l 23.414855898697976 -7.607947865942222 a45.619836463463486,45.619836463463486 0 0,0 0.23623366889489927,0.7489252870682387 l -23.54234505136108 7.203772412447564" fill="#fff817" stroke="none" /><path d="M 120.18372546131832 94.20196356495316 l 12.07113962363642 -3.4675911285314442 a33.559323232085205,33.559323232085205 0 0,0 0.15471364093835457,0.5565872831735734 l -12.129040035141136 3.259292541938919" fill="#ff4506" stroke="none" /><path d="M 120.28053869075195 94.5502522615342 l 13.756281221888804 -3.6965616950241067 a35.244291538044635,35.244291538044635 0 0,0 0.15239575963270974,0.5872430280076296 l -13.817873313391816 3.459222241467627" fill="#ff6008" stroke="none" /><path d="M 120.45610955862082 95.25157060432595 l 8.410542676881407 -1.9523198175111554 a29.6341635836652,29.6341635836652 0 0,0 0.11106547669210781,0.49788475425926465 l -8.442902540575552 1.8072568937019269" fill="#ff0601" stroke="none" /><path d="M 120.6074358757038 95.95851677861258 l 61.822307627111385 -12.124449664162288 a84.0,84.0 0 0,0 0.26605710436056285,1.4212876901497489 l -62.02185045538181 11.058483896549978" fill="#4dd2ff" stroke="none" /><line stroke="#e1ed5e" stroke-width="0.3" x1="184.98032266829074" x2="189.97916517819016" y1="98.17113171792111" y2="98.06355123074" /><path d="M 185.9800911702706 98.14961562048488 a86.0,86.0 0 0,1 -9.607161424134198,41.387399972396054" fill="none" id="id160" stroke="none" /><text fill="#e1ed5e" style="font-size:6.75px; font-family:Arial;" text-anchor="middle"><textPath startOffset="21.466115282336823" xlink:href="#id160">April</textPath></text><line stroke="#e1ed5e" stroke-width="0.3" x1="174.80103733775053" x2="179.2010983576182" y1="140.37084112569926" y2="142.7455964860345" /><path d="M 175.68104954172406 140.8457921977663 a86.0,86.0 0 0,1 -30.038265399797805,32.042727171017184" fill="none" id="id161" stroke="none" /><text fill="#e1ed5e" style="font-size:6.75px; font-family:Arial;" text-anchor="middle"><textPath startOffset="22.206326154141568" xlink:href="#id161">May</textPath></text><line stroke="#e1ed5e" stroke-width="0.3" x1="143.8653032363475" x2="146.44561519142675" y1="172.8068346515853" y2="177.08958963109032" /><path d="M 144.38136562736335 173.6633856474863 a86.0,86.0 0 0,1 -40.68145358897372,12.25698825130547" fill="none" id="id162" stroke="none" /><text fill="#e1ed5e" style="font-size:6.75px; font-family:Arial;" text-anchor="middle"><textPath startOffset="21.466115282336833" xlink:href="#id162">June</textPath></text><line stroke="#e1ed5e" stroke-width="0.3" x1="102.19456741930631" x2="102.32365962044197" y1="184.97166512339345" y2="189.96999836594603" /><path d="M 102.22038585953345 185.97133177190398 a86.0,86.0 0 0,1 -42.740103519485714,-10.115201625700543" fill="none" id="id163" stroke="none" /><text fill="#e1ed5e" style="font-size:6.75px; font-family:Arial;" text-anchor="middle"><textPath startOffset="22.20632615414155" xlink:href="#id163">July</textPath></text><line stroke="#e1ed5e" stroke-width="0.3" x1="58.666819895761336" x2="56.23545636021788" y1="174.27360380694188" y2="178.64263932499728" /><path d="M 58.180547188652646 175.14741091055294 a86.0,86.0 0 0,1 -31.652253787137756,-30.449443065178592" fill="none" id="id164" stroke="none" /><text fill="#e1ed5e" style="font-size:6.75px; font-family:Arial;" text-anchor="middle"><textPath startOffset="22.20632615414155" xlink:href="#id164">August</textPath></text><line stroke="#e1ed5e" stroke-width="0.3" x1="26.63291911575756" x2="22.317208475507996" y1="142.92168965132927" y2="145.44649492493687" /><path d="M 25.769776987707644 143.4266507060508 a86.0,86.0 0 0,1 -11.730757126820373,-40.83630448921669" fill="none" id="id165" stroke="none" /><text fill="#e1ed5e" style="font-size:6.75px; font-family:Arial;" text-anchor="middle"><textPath startOffset="21.46611528233685" xlink:href="#id165">September</textPath></text><line stroke="#e1ed5e" stroke-width="0.3" x1="15.007084014347285" x2="10.007500721073583" y1="101.09737516637583" y2="101.16192664675087" /><path d="M 14.007167355692545 101.11028546245083 a86.0,86.0 0 0,1 10.666146001902534,-42.60595125391555" fill="none" id="id166" stroke="none" /><text fill="#e1ed5e" style="font-size:6.75px; font-family:Arial;" text-anchor="middle"><textPath startOffset="22.20632615414155" xlink:href="#id166">October</textPath></text><line stroke="#e1ed5e" stroke-width="0.3" x1="26.266209847984243" x2="21.928928074336255" y1="57.711370442889674" y2="55.22380399835377" /><path d="M 25.398753493254645 57.213857153982495 a86.0,86.0 0 0,1 29.58750427330803,-30.492523968695096" fill="none" id="id167" stroke="none" /><text fill="#e1ed5e" style="font-size:6.75px; font-family:Arial;" text-anchor="middle"><textPath startOffset="21.46611528233685" xlink:href="#id167">November</textPath></text><line stroke="#e1ed5e" stroke-width="0.3" x1="56.762969772571076" x2="54.21961505331055" y1="26.818313649435495" y2="22.513508569990535" /><path d="M 56.25429882871897 25.957352633546506 a86.0,86.0 0 0,1 42.265352541879196,-11.944610805530505" fill="none" id="id168" stroke="none" /><text fill="#e1ed5e" style="font-size:6.75px; font-family:Arial;" text-anchor="middle"><textPath startOffset="22.20632615414155" xlink:href="#id168">December</textPath></text></svg>