<?xml version="1.0" encoding="utf-8" ?>
<svg baseProfile="full" height="200mm" version="1.1" viewBox="0,0,200,200" width="200mm" xmlns="http://www.w3.org/2000/svg" xmlns:ev="http://www.w3.org/2001/xml-events" xmlns:xlink="http://www.w3.org/1999/xlink"><defs /><rect fill="#1a1a1a" height="200" width="200" x="0" y="0" /><text alignment-baseline="middle" fill="#e1ed5e" style="dominant-baseline: central; font-size:9.0px; font-family:Arial;" text-anchor="middle" x="100.0" y="100.0">2024</text><line stroke="#e1ed5e" stroke-width="0.3" x1="100.0" x2="100.0" y1="15.0" y2="10.0" /><path d="M 100.0 14.0 a86.0,86.0 0 0,1 42.35913384403234,11.155469271406648" fill="none" id="id133" stroke="none" /><text fill="#e1ed5e" style="font-size:6.75px; font-family:Arial;" text-anchor="middle"><textPath startOffset="22.145653131862478" xlink:href="#id133">January</textPath></text><path d="M 109.3889696526874 81.21577127319529 l 2.3408931587756308 -4.683354419711838 a26.235798831261278,26.235798831261278 0 0,0 0.40112384863412853,0.20481669523316398 l -2.420944229123338 4.6424797728058405" fill="#ff2e04" stroke="none" /><line stroke="#e1ed5e" stroke-width="0.3" x1="143.13028292997686" x2="145.6673583964461" y1="26.7553504044142" y2="22.446841604673864" /><path d="M 143.63769802327073 25.89364864446614 a86.0,86.0 0 0,1 29.32050498858742,28.57503671076993" fill="none" id="id134" stroke="none" /><text fill="#e1ed5e" style="font-size:6.75px; font-family:Arial;" text-anchor="middle"><textPath startOffset="20.669276256404974" xlink:href="#id134">February</textPath></text><path d="M 111.27062007382361 82.28071324371311 l 4.407738435711363 -6.929696926832938 a29.21272534640025,29.21272534640025 0 0,0 0.42082233991504614,0.2727719565016613 l -4.526046407883417 6.853011128627382" fill="#ff5908" stroke="none" /><path d="M 113.86319453409587 84.22622945171908 l 4.425472635270487 -5.035375486131083 a27.70371645670204,27.70371645670204 0 0,0 0.35452178566117293,0.3170155668280322 l -4.511259447755036 4.958664389419664" fill="#ff4306" stroke="none" /><path d="M 115.16444852881244 85.47280134310134 l 5.598873956548926 -5.363594598721094 a28.753420961146887,28.753420961146887 0 0,0 0.3383923928891902,0.3593609946220939 l -5.690122183174376 5.266692144154505" fill="#ff5207" stroke="none" /><path d="M 115.6541949942343 86.00192230759917 l 4.099887234340095 -3.6661444461061636 a26.499971857566177,26.499971857566177 0 0,0 0.3003190527385465,0.34170795320833597 l -4.162217351037231 3.59522421508653" fill="#ff3204" stroke="none" /><path d="M 116.57777611688842 87.10902102172516 l 6.791517521106373 -5.281125102538799 a29.60319664939494,29.60319664939494 0 0,0 0.3085048119386521,0.40384270196520217 l -6.881174310399332 5.163761487332715" fill="#ff5e08" stroke="none" /><path d="M 116.7966241395341 87.39550010848427 l 17.73134249514617 -13.305929971395868 a43.168632774347344,43.168632774347344 0 0,0 0.43969920798858886,0.5965364223144981 l -17.957143722718584 12.999587239812495" fill="#eeff19" stroke="none" /><path d="M 117.01052211995028 87.68569379921539 l 4.941293803622155 -3.577115652110314 a27.100175476352078,27.100175476352078 0 0,0 0.26956273734278957,0.3791737483390884 l -5.001971639494905 3.4917646770617217" fill="#ff3b05" stroke="none" /><path d="M 117.42321728460499 88.27688183743584 l 7.028761269530667 -4.729264265789163 a29.47168374526131,29.47168374526131 0 0,0 0.2788239668590837,0.4221750233239187 l -7.108909675310476 4.6079093641261855" fill="#ff5c08" stroke="none" /><path d="M 117.81537515405839 88.88188828441811 l 5.975982339946853 -3.729454961869722 a28.044231628784743,28.044231628784743 0 0,0 0.25137251451287335,0.41059811107891114 l -6.0391228189151285 3.6263197346662563" fill="#ff4806" stroke="none" /><line stroke="#e1ed5e" stroke-width="0.3" x1="172.87174338648825" x2="177.1583165268699" y1="56.24261187166439" y2="53.66864786411523" /><path d="M 173.72905801456457 55.72781907015455 a86.0,86.0 0 0,1 12.242430191666344,42.057860355516425" fill="none" id="id135" stroke="none" /><text fill="#e1ed5e" style="font-size:6.75px; font-family:Arial;" text-anchor="middle"><textPath startOffset="22.145653131862474" xlink:href="#id135">March</textPath></text><path d="M 118.18653347947321 89.5 l 12.972390173603882 -7.489612958763059 a35.979225917526115,35.979225917526115 0 0,0 0.3042242893005147,0.5375351689856269 l -13.099047827925773 7.265821019678314" fill="#ffb510" stroke="none" /><path d="M 118.36410011445183 89.81374322990088 l 9.425802196411233 -5.228333587729141 a31.778739218964688,31.778739218964688 0 0,0 0.2605170352336242,0.47932200218467264 l -9.514164581260198 5.0657567520698645" fill="#ff7c0b" stroke="none" /><path d="M 118.8641267826498 90.77261029715802 l 6.351852248234428 -3.107009229986685 a28.071034813846076,28.071034813846076 0 0,0 0.20802072702685098,0.43468331312180847 l -6.40425223322119 2.997513414799773" fill="#ff4906" stroke="none" /><path d="M 119.0197475246899 91.09779779509293 l 6.4014184932949885 -2.9961870814303935 a28.067906037379775,28.067906037379775 0 0,0 0.20050580688550762,0.4381413735817178 l -6.451908765035548 2.8858567256339915" fill="#ff4906" stroke="none" /><path d="M 119.31412917781788 91.75594674310238 l 20.445249657106142 -8.726861328924471 a43.229852500538016,43.229852500538016 0 0,0 0.2854696803011671,0.6850233111346541 l -20.592045181943792 8.37460550834854" fill="#edff19" stroke="none" /><path d="M 119.71291397450082 92.76114493625339 l 6.890235662383672 -2.530189974935784 a28.340109589948185,28.340109589948185 0 0,0 0.1637786133701012,0.4581179303867314 l -6.932654445797717 2.4115370881681364" fill="#ff4d07" stroke="none" /><path d="M 119.94978838288452 93.4421083053983 l 6.938452316329824 -2.2808070915522247 a28.303711490390185,28.303711490390185 0 0,0 0.14776597399083047,0.46287480891737587 l -6.976583006097912 2.1613632489434615" fill="#ff4c07" stroke="none" /><path d="M 120.16314734710363 94.1308016681162 l 15.499724826272368 -4.511744001517865 a37.143026470442166,37.143026470442166 0 0,0 0.17294767319969284,0.6137302794049555 l -15.574890991546644 4.245005798209897" fill="#ffc412" stroke="none" /><path d="M 120.26092885502905 94.47779374421319 l 19.1978900033541 -5.232470289639003 a40.89818398529972,40.89818398529972 0 0,0 0.17880397646828727,0.6789478225249369 l -19.284883460627118 4.9021419627412675" fill="#fff417" stroke="none" /><path d="M 120.43855184770803 95.1765574152323 l 8.262646700748897 -1.9499621233562037 a29.489622063668115,29.489622063668115 0 0,0 0.11204531130714812,0.49369231536666036 l -8.294902873613712 1.8078354740505171" fill="#ff5d08" stroke="none" /><path d="M 120.592083275326 95.88100663000786 l 7.06724306864111 -1.4136465434138918 a28.20724088267916,28.20724088267916 0 0,0 0.0908994559533916,0.47562436400210073 l -7.090468816876658 1.2921196143784766" fill="#ff4b06" stroke="none" /><path d="M 120.7213421655516 96.59031103205396 l 17.83242201639932 -2.9343182567660824 a39.07223003956496,39.07223003956496 0 0,0 0.10322233435359597,0.6627614332564947 l -17.880165842891184 2.6277686415781463" fill="#ffdd14" stroke="none" /><path d="M 120.77682067341334 96.94652285012252 l 15.865082172466776 -2.3316207352429985 a37.0355008525502,37.0355008525502 0 0,0 0.0870430975808311,0.6298004936243511 l -15.90276978660282 2.058931933418562" fill="#ffc312" stroke="none" /><path d="M 120.86939407059847 97.66154086499901 l 8.479627241309847 -0.9501599191986297 a29.53269488635423,29.53269488635423 0 0,0 0.05212887347648029,0.5042995633830774 l -8.494688507267995 0.8044558335326211" fill="#ff5d08" stroke="none" /><path d="M 120.98066250479742 99.09900007780936 l 8.34416094515544 -0.3583341736998135 a29.351851606601883,29.351851606601883 0 0,0 0.017297064326369727,0.50358515510963 l -8.349082696478657 0.2150427540260636" fill="#ff5b08" stroke="none" /><path d="M 120.99303781780057 99.45929381324524 l 20.975974262966623 -0.5402666901108353 a41.98293078616716,41.98293078616716 0 0,0 0.012372106612317394,0.720613184691961 l -20.982157801177607 0.18010658944980787" fill="#fdff18" stroke="none" /><line stroke="#e1ed5e" stroke-width="0.3" x1="184.99686870605535" x2="189.99668451229388" y1="99.2704041080226" y2="99.22748670261217" /><path d="M 185.99683186730306 99.26182062694052 a86.0,86.0 0 0,1 -10.086455211305974,41.156179273409016" fill="none" id="id136" stroke="none" /><text fill="#e1ed5e" style="font-size:6.75px; font-family:Arial;" text-anchor="middle"><textPath startOffset="21.40746469413373" xlink:href="#id136">April</textPath></text><path d="M 120.99922638620191 100.18025310272382 l 7.6883720478267925 0.06599542721376266 a28.688655288294402,28.688655288294402 0 0,0 -0.008454366933039742,0.49242448930313987 l -7.686106249295085 -0.19796683248597355" fill="#ff5107" stroke="none" /><path d="M 120.98066250479742 100.90099992219065 l 15.638021040831397 0.6715639097565659 a36.65243432052577,36.65243432052577 0 0,0 -0.03239099635887253,0.6283766760379077 l -15.624188455015952 -0.9399123791712042" fill="#ffbe11" stroke="none" /><path d="M 120.93736805541906 101.62068470465957 l 15.611782276096898 1.2084506839815972 a36.65848328836062,36.65848328836062 0 0,0 -0.05395147218279224,0.6269978872528732 l -15.588737181216366 -1.4762696186101278" fill="#ffbe11" stroke="none" /><path d="M 120.9064616781168 101.97986365728391 l 8.818320409451637 0.835104111148231 a29.857774761203174,29.857774761203174 0 0,0 -0.05270267981995695,0.5098506192410612 l -8.802685337150013 -0.9863592526722237" fill="#ff6209" stroke="none" /><path d="M 120.82617615685814 102.69636545807757 l 8.766666235975775 1.1350204590195923 a29.839836442796365,29.839836442796365 0 0,0 -0.07013140731179386,0.5074359273866555 l -8.74589031210877 -1.285344694606333" fill="#ff6209" stroke="none" /><path d="M 120.7213421655516 103.40968896794604 l 9.916894693291573 1.6318212479601097 a31.050255765060342,31.050255765060342 0 0,0 -0.09105884134304974,0.525203198921291 l -9.887421034456288 -1.8018174798019888" fill="#ff720a" stroke="none" /><path d="M 120.592083275326 104.11899336999214 l 11.224384716837521 2.2451913005952457 a32.4467329945205,32.4467329945205 0 0,0 -0.1139379222517412,0.5452342039667238 l -11.184189083761417 -2.4375419558473785" fill="#ff860c" stroke="none" /><path d="M 120.51834098615036 104.47187691870673 l 13.422331226657802 2.925334618829191 a34.737414538050224,34.737414538050224 0 0,0 -0.13198420846215725,0.5815467752050525 l -13.37013615663798 -3.15531572797326" fill="#ffa40f" stroke="none" /><path d="M 120.35273937422433 105.17358676015961 l 9.234793951597947 2.3474485101153624 a30.528480143029782,30.528480143029782 0 0,0 -0.1334683624844784,0.5068011118918064 l -9.193136108308739 -2.5056301263799723" fill="#ff6b09" stroke="none" /><path d="M 120.16314734710363 105.8691983318838 l 8.534631988314153 2.484306986738902 a29.888853940768456,29.888853940768456 0 0,0 -0.1476277105528819,0.49140463511983645 l -8.490727957757642 -2.630449225449462" fill="#ff6209" stroke="none" /><path d="M 119.83427380445688 106.89939002012753 l 41.90946232555321 14.578286503882925 a65.37262072276393,65.37262072276393 0 0,0 -0.37779095879506774,1.0567485497688824 l -41.653031196714196 -15.29557001003273" fill="#35ff6a" stroke="none" /><path d="M 119.4528033332814 107.91128576633889 l 7.800765099818597 3.1725032553617947 a29.42120615160495,29.42120615160495 0 0,0 -0.19428385313294158,0.46621052096573423 l -7.7451554021491695 -3.305946285768807" fill="#ff5c08" stroke="none" /><path d="M 119.31412917781788 108.2440532568976 l 7.42766023977439 3.1704264803803683 a29.075997814822784,29.075997814822784 0 0,0 -0.19988518719091214,0.4573764255881248 l -7.372141170566512 -3.297464975744338" fill="#ff5708" stroke="none" /><path d="M 119.0197475246899 108.90220220490707 l 10.528382863821056 4.92781478948374 a32.624551790355426,32.624551790355426 0 0,0 -0.24176461706382826,0.5051950651406252 l -10.442238988797316 -5.107822356689469" fill="#ff880c" stroke="none" /><line stroke="#e1ed5e" stroke-width="0.3" x1="174.33088141563837" x2="178.70328620479359" y1="141.23008692659167" y2="143.65538615756765" /><path d="M 175.20536237346943 141.71514677278685 a86.0,86.0 0 0,1 -30.301960400862466,31.631185727798858" fill="none" id="id137" stroke="none" /><text fill="#e1ed5e" style="font-size:6.75px; font-family:Arial;" text-anchor="middle"><textPath startOffset="22.145653131862474" xlink:href="#id137">May</textPath></text><path d="M 118.36410011445183 110.18625677009912 l 9.110152600357212 5.053248077698947 a31.417782707302134,31.417782707302134 0 0,0 -0.26565475970596053,0.46938650585299524 l -9.022064475629874 -5.208891353651064" fill="#ff770b" stroke="none" /><path d="M 118.00360718960297 110.81064883170644 l 8.964936241525315 5.383186629495978 a31.456996705679806,31.456996705679806 0 0,0 -0.28196259628713044,0.4605647107232677 l -8.87120568078278 -5.5362884563438035" fill="#ff780b" stroke="none" /><path d="M 117.62189284568427 111.42229804090321 l 8.554058333052712 5.5446372642839545 a31.193866604863672,31.193866604863672 0 0,0 -0.2951170928549189,0.4468448927214377 l -8.457616801277068 -5.690662035344453" fill="#ff740a" stroke="none" /><path d="M 117.21940702142032 112.02048342749411 l 6.925931871758953 4.834838341463675 a29.446549240982005,29.446549240982005 0 0,0 -0.2929018827064375,0.4120031791343087 l -6.841914890522554 -4.953018747307487" fill="#ff5c08" stroke="none" /><path d="M 116.79662413953412 112.60449989151573 l 5.502703865388982 4.129331566757464 a27.879762279206055,27.879762279206055 0 0,0 -0.29054432603029984,0.380331849371828 l -5.431007562004377 -4.223184329370169" fill="#ff4606" stroke="none" /><path d="M 116.1254893667686 113.45245675266167 l 8.854110141489912 7.386413587370381 a32.53058420381744,32.53058420381744 0 0,0 -0.36140772128762827,0.4257373869300368 l -8.726007856695169 -7.5373177567499745" fill="#ff870c" stroke="none" /><path d="M 115.6541949942343 113.99807769240083 l 5.152846744009052 4.607707332522688 a27.912510139553362,27.912510139553362 0 0,0 -0.3224590064347613,0.3544389345754462 l -5.072990036732411 -4.695483842655806" fill="#ff4606" stroke="none" /><path d="M 115.16444852881244 114.52719865689866 l 4.954057917164291 4.7458754193195345 a27.860468157663846,27.860468157663846 0 0,0 -0.33381245307551805,0.3425209841275323 l -4.871858662937965 -4.8302190955148046" fill="#ff4606" stroke="none" /><path d="M 114.65682725009322 115.03919595460226 l 4.24935650440814 4.360214121398699 a27.088390418329002,27.088390418329002 0 0,0 -0.33580253997683274,0.3216912371370383 l -4.1738814785659955 -4.4325174888413175" fill="#ff3b05" stroke="none" /><path d="M 113.86319453409587 115.77377054828091 l 4.219545433862632 4.8010681324639135 a27.39177744301157,27.39177744301157 0 0,0 -0.3558589986772616,0.30738252746029854 l -4.136506955422515 -4.872794792388929" fill="#ff3f05" stroke="none" /><path d="M 113.31354834802062 116.24036423190432 l 4.989754033299408 6.086688597968243 a28.87054149353552,28.87054149353552 0 0,0 -0.38597058493984826,0.3109105818033998 l -4.884532678004307 -6.1714474735650455" fill="#ff5407" stroke="none" /><path d="M 113.03279911837588 116.46651593811092 l 4.706797979811744 5.946885488533246 a28.58415415431986,28.58415415431986 0 0,0 -0.38736981015871386,0.3012211073647677 l -4.604018225017799 -6.026807647518806" fill="#ff5007" stroke="none" /><path d="M 112.45986205192187 116.90419585922612 l 6.816095476755571 9.247342583258307 a32.48792855132683,32.48792855132683 0 0,0 -0.4517662890762468,0.32704395406843234 l -6.656348177305356 -9.362987308699818" fill="#ff860c" stroke="none" /><path d="M 111.8722381534696 117.32195027204791 l 4.480405441640876 6.537045437892872 a28.925086496598077,28.925086496598077 0 0,0 -0.4119809875356062,0.27719919454125364 l -4.367528166008267 -6.612994306491246" fill="#ff5507" stroke="none" /><path d="M 111.27062007382361 117.71928675628689 l 4.974469252905386 7.8206919029486475 a30.26868740377771,30.26868740377771 0 0,0 -0.440821446786959,0.27510518580830073 l -4.839483677328713 -7.904932885598496" fill="#ff6809" stroke="none" /><line stroke="#e1ed5e" stroke-width="0.3" x1="143.1302829299769" x2="145.66735839644613" y1="173.24464959558577" y2="177.55315839532614" /><path d="M 143.63769802327073 174.10635135553383 a86.0,86.0 0 0,1 -40.68552437913181,11.842963189579606" fill="none" id="id138" stroke="none" /><text fill="#e1ed5e" style="font-size:6.75px; font-family:Arial;" text-anchor="middle"><textPath startOffset="21.407464694133747" xlink:href="#id138">June</textPath></text><path d="M 110.65571695917076 118.09573695890943 l 4.811186653912676 8.170446764212347 a30.481757081132983,30.481757081132983 0 0,0 -0.45317305493235,0.26163958525467834 l -4.670221131119927 -8.251833246743198" fill="#ff6b09" stroke="none" /><path d="M 110.34350942703117 118.27599006163325 l 4.709004796675617 8.320360267601043 a30.560497955534956,30.560497955534956 0 0,0 -0.4587797425393423,0.2544773895426557 l -4.56548086598018 -8.399970572576843" fill="#ff6c09" stroke="none" /><path d="M 109.71004243097381 118.62028667847754 l 4.068052391781678 7.8010268540550936 a29.798015130696772,29.798015130696772 0 0,0 -0.4555872145444535,0.23262607793382128 l -3.9335379555236423 -7.869710883661751" fill="#ff6109" stroke="none" /><path d="M 109.06512990194946 118.94263497670748 l 2.285768745584674 4.776377554111571 a26.29514129157217,26.29514129157217 0 0,0 -0.40884097152579485,0.19135821826492028 l -2.203439060187373 -4.8149120039470255" fill="#ff2f04" stroke="none" /><path d="M 108.73861861582097 119.09545874513695 l 2.6111264967941685 5.7057826288008515 a27.274865495720697,27.274865495720697 0 0,0 -0.42741869874081895,0.1911789474004016 l -2.5127943951977225 -5.7497653271111036" fill="#ff3d05" stroke="none" /><path d="M 107.06938296918513 119.77432235084164 l 2.140581122872599 5.987586374414298 a27.35871670501763,27.35871670501763 0 0,0 -0.4435945296339973,0.1543052042597227 l -2.0374808211935798 -6.023450011242612" fill="#ff3f05" stroke="none" /><path d="M 106.72888874123015 119.89276391827305 l 2.8790402687926915 8.511370982755198 a29.985115963381723,29.985115963381723 0 0,0 -0.4890104964978188,0.16074746318148186 l -2.732507034647138 -8.559539367338699" fill="#ff6409" stroke="none" /><path d="M 106.0420521117495 120.11202640906438 l 2.0661723753475694 6.877615851386162 a28.18127203800884,28.18127203800884 0 0,0 -0.46450786449080717,0.13521146954311963 l -1.9478044984751555 -6.9120710152318" fill="#ff4a06" stroke="none" /><path d="M 105.69591212413111 120.21278271476187 l 4.164511643921641 14.778382660621661 a36.353949045640405,36.353949045640405 0 0,0 -0.6021228394069582,0.16411125740170232 l -3.910207403579988 -14.847694412167506" fill="#ffba11" stroke="none" /><path d="M 104.9986988182912 120.39639698878246 l 2.703254482368098 11.03020077591587 a32.35662423229096,32.35662423229096 0 0,0 -0.5406142407919984,0.12758348881065196 l -2.5135080878362204 -11.074980408372747" fill="#ff840c" stroke="none" /><path d="M 104.29559338865022 120.5559693870025 l 2.0550539178674527 9.83417693488837 a31.046605525849653,31.046605525849653 0 0,0 -0.5226230555105624,0.10453924801442703 l -1.8859343768259316 -9.868005579565658" fill="#ff720a" stroke="none" /><path d="M 103.58742460773223 120.69131181640829 l 2.2046386175506623 12.715769686118216 a33.9054728756601,33.9054728756601 0 0,0 -0.5743304510236258,0.09450585715756595 l -1.9860306634739644 -12.751741541771452" fill="#ff990e" stroke="none" /><path d="M 103.2317021107853 120.74984581791261 l 1.8462703940645335 11.854380354910415 a32.997293360041056,32.997293360041056 0 0,0 -0.5604431487821364,0.08236584295120315 l -1.6425021396747117 -11.884327271160501" fill="#ff8d0d" stroke="none" /><path d="M 102.51750503828377 120.84855314841334 l 1.3754987052419092 11.391102470785711 a32.47384905722846,32.47384905722846 0 0,0 -0.5540102025733186,0.06207799875304086 l -1.1797526010677915 -11.413036230045723" fill="#ff860c" stroke="none" /><path d="M 102.15924093988457 120.88869738790638 l 0.3997600095913885 3.867315459750168 a24.887921929577697,24.887921929577697 0 0,0 -0.4253469546173852,0.04028079883382795 l -0.33331349158898804 -3.87360801408918" fill="#ff1b02" stroke="none" /><path d="M 101.80034050326958 120.92268563240118 l 0.7326208907779206 8.514165269091269 a29.545627162414952,29.545627162414952 0 0,0 -0.505695927189662,0.0391440630090467 l -0.5863559688130227 -8.525487099095368" fill="#ff5e08" stroke="none" /><path d="M 100.72087961077811 120.9876233191556 l 0.6535890010591291 19.028530637682884 a40.03975201549489,40.03975201549489 0 0,0 -0.6871330254425456,0.017698109306758327 l -0.3268426615458396 -19.03694646433969" fill="#ffe915" stroke="none" /><line stroke="#e1ed5e" stroke-width="0.3" x1="101.45913802915013" x2="101.54496967792366" y1="184.9874750549273" y2="189.98673829345242" /><path d="M 101.47630435890484 185.9873277026323 a86.0,86.0 0 0,1 -42.54439059252881,-10.42667462771756" fill="none" id="id139" stroke="none" /><text fill="#e1ed5e" style="font-size:6.75px; font-family:Arial;" text-anchor="middle"><textPath startOffset="22.145653131862474" xlink:href="#id139">July</textPath></text><path d="M 100.0 121.0 l 8.148634006808603e-16 6.653864618338936 a27.653864618338936,27.653864618338936 0 0,0 -0.4747153590304376,-0.004074860416387403 l 0.11422243418158463 -6.652884156116984" fill="#ff4306" stroke="none" /><path d="M 99.27912038922189 120.98762331915562 l -0.38927642186535866 11.333358284776994 a32.340041717019545,32.340041717019545 0 0,0 -0.5546690441697457,-0.02381987535065946 l 0.583771226635943 -11.325005841000506" fill="#ff840c" stroke="none" /><path d="M 98.55909050195518 120.95050786540614 l -1.1863298168856344 17.24897517391144 a38.28972304534243,38.28972304534243 0 0,0 -0.6553577925697731,-0.050728837917256235 l 1.4822566042306438 -17.22606856899913" fill="#ffd313" stroke="none" /><path d="M 98.19965949673042 120.92268563240118 l -0.6819340648486328 7.925107519906163 a28.954392702832454,28.954392702832454 0 0,0 -0.4948449610937284,-0.04686233230394259 l 0.8178785893273766 -7.912233432097037" fill="#ff5507" stroke="none" /><path d="M 97.48249496171623 120.84855314841334 l -1.3771115554907505 11.404459184524912 a32.487302796033575,32.487302796033575 0 0,0 -0.5530919645967248,-0.07160882810394156 l 1.5726813419782695 -11.379138760220574" fill="#ff860c" stroke="none" /><path d="M 96.76829788921471 120.74984581791261 l -1.3683121001953416 8.785545244124723 a29.891461254490373,29.891461254490373 0 0,0 -0.506336439754282,-0.08331746847795286 l 1.518926043002687 -8.760761777151101" fill="#ff6209" stroke="none" /><path d="M 96.05791012581884 120.62667999033965 l -10.24952503522679 53.62984602133444 a75.60048669856141,75.60048669856141 0 0,0 -1.2726208449291196,-0.25455981081126633 l 11.16864236568687 -53.445996813860305" fill="#42ffda" stroke="none" /><path d="M 95.00130118170881 120.39639698878247 l -0.9467050810445862 3.862879794562976 a24.977196351416225,24.977196351416225 0 0,0 -0.41556667596453395,-0.10563542396934032 l 1.0128770502344988 -3.8460591387583727" fill="#ff1c02" stroke="none" /><path d="M 92.59220618246901 119.65005319985036 l -2.3468335230062047 6.225254740369435 a27.652925985399044,27.652925985399044 0 0,0 -0.44274670188117343,-0.1712639355700707 l 2.4533524873809065 -6.184050916661324" fill="#ff4306" stroke="none" /><path d="M 90.93487009805054 118.94263497670748 l -3.185633743747964 6.656749305304792 a28.379740758521365,28.379740758521365 0 0,0 -0.4376422939641261,-0.21407277651287684 l 3.2994362869741596 -6.6010827786946935" fill="#ff4d07" stroke="none" /><line stroke="#e1ed5e" stroke-width="0.3" x1="58.13341422392154" x2="55.67067388415222" y1="173.97424548756322" y2="178.32567169271397" /><path d="M 57.64086615596768 174.84453072859336 a86.0,86.0 0 0,1 -31.369924170532247,-30.572349798747897" fill="none" id="id140" stroke="none" /><text fill="#e1ed5e" style="font-size:6.75px; font-family:Arial;" text-anchor="middle"><textPath startOffset="22.145653131862474" xlink:href="#id140">August</textPath></text><path d="M 89.65649057296885 118.27599006163327 l -5.141018872600578 9.083687744971227 a31.43759829158872,31.43759829158872 0 0,0 -0.4673835704291918,-0.26984403020210435 l 5.296194910890169 -8.994096817492952" fill="#ff780b" stroke="none" /><path d="M 89.03521579738668 117.91015095944536 l -5.447631954720992 8.89829739260142 a31.43342658963365,31.43342658963365 0 0,0 -0.45778425743643913,-0.28569123421762543 l 5.599580340947144 -8.803470361542246" fill="#ff780b" stroke="none" /><path d="M 88.72937992617639 117.7192867562869 l -2.9447613128471533 4.629653895649116 a26.4868309964077,26.4868309964077 0 0,0 -0.3815546158282721,-0.2473190921677995 l 3.0238015609324354 -4.578420961777422" fill="#ff3204" stroke="none" /><path d="M 88.1277618465304 117.32195027204791 l -4.896141124029243 7.1436162229088955 a29.660453258728293,29.660453258728293 0 0,0 -0.41751312291862713,-0.2914565855003923 l 5.018049338121636 -7.058514821603374" fill="#ff5f08" stroke="none" /><path d="M 87.83215693770417 117.11559508785305 l -3.7067334585787703 5.2139848164396785 a27.39730494810204,27.39730494810204 0 0,0 -0.38097777663911575,-0.27579853011836525 l 3.7956922455918396 -5.149585514948248" fill="#ff3f05" stroke="none" /><path d="M 87.54013794807813 116.9041958592261 l -6.191050035400451 8.399348398607309 a31.43446951512242,31.43446951512242 0 0,0 -0.43162072999338963,-0.32389624243437426 l 6.334323754304607 -8.29183312890892" fill="#ff780b" stroke="none" /><path d="M 86.96720088162412 116.46651593811092 l -1.2847901526301304 1.623290387065248 a23.070207095204196,23.070207095204196 0 0,0 -0.3084258509391976,-0.24844603319618067 l 1.31246677392459 -1.6009960600756568" fill="#ff0000" stroke="none" /><path d="M 86.68645165197938 116.24036423190432 l -5.9566816958622875 7.266183126056223 a30.395715728309632,30.395715728309632 0 0,0 -0.4006816307197688,-0.33426286708244973 l 6.080537660743949 -7.162858075061903" fill="#ff6909" stroke="none" /><path d="M 86.13680546590413 115.77377054828092 l -5.512046721736129 6.27169733687505 a29.34966146307547,29.34966146307547 0 0,0 -0.37558478504870146,-0.33585023076126025 l 5.618896533608202 -6.176151576230407" fill="#ff5b08" stroke="none" /><path d="M 85.60350026404147 115.28858382429668 l -7.701711481570605 8.17895069885893 a32.234393365007364,32.234393365007364 0 0,0 -0.39959521401676046,-0.38280317581862155 l 7.8409791814526795 -8.045535392734728" fill="#ff830c" stroke="none" /><path d="M 85.08716467003676 114.78537596483092 l -6.694445273604272 6.637228136446439 a30.427003492972666,30.427003492972666 0 0,0 -0.36456360382201647,-0.3740743738219636 l 6.807395678577098 -6.521331070556738" fill="#ff6a09" stroke="none" /><path d="M 84.83555147118756 114.52719865689866 l -8.867915047598775 8.495262015245668 a33.280447630241525,33.280447630241525 0 0,0 -0.3916699277362065,-0.4159398903536687 l 9.012440809071235 -8.341780664947509" fill="#ff910d" stroke="none" /><path d="M 84.3458050057657 113.99807769240083 l -8.580562690649959 7.672792068354393 a32.51076861953085,32.51076861953085 0 0,0 -0.3684382492214536,-0.4192150943374581 l 8.711012003830005 -7.524364696205634" fill="#ff860c" stroke="none" /><path d="M 83.8745106332314 113.45245675266167 l -8.816470563283506 7.355013312532611 a32.48156670584535,32.48156670584535 0 0,0 -0.35351263746350353,-0.4312279373546576 l 8.941430019985638 -7.202583093479459" fill="#ff860c" stroke="none" /><path d="M 83.4222238831116 112.89097897827486 l -4.974403130344484 3.8681259615642225 a27.301355803135397,27.301355803135397 0 0,0 -0.2845165587172868,-0.3724413084651569 l 5.040071666416066 -3.7821637398581953" fill="#ff3e05" stroke="none" /><path d="M 83.20337586046588 112.60449989151573 l -10.020917068628963 7.519882986911039 a33.528663896568276,33.528663896568276 0 0,0 -0.3415101663584997,-0.4633241295918292 l 10.148529254571294 -7.34675254805033" fill="#ff940d" stroke="none" /><path d="M 82.576782715395 111.72311816256416 l -9.556277171081707 6.429889763803461 a32.51806909795222,32.51806909795222 0 0,0 -0.3076450296785827,-0.4658137858202289 l 9.665246639681015 -6.264896099644171" fill="#ff870c" stroke="none" /><path d="M 82.37810715431573 111.42229804090323 l -9.617112941276234 6.233696417873038 a32.460708196069994,32.460708196069994 0 0,0 -0.29907489301114365,-0.4701954068328784 l 9.722705525913268 -6.067687336361487" fill="#ff860c" stroke="none" /><line stroke="#e1ed5e" stroke-width="0.3" x1="26.387840678322732" x2="22.057713659400548" y1="142.50000000000003" y2="145.00000000000006" /><path d="M 25.521815274538298 143.00000000000003 a86.0,86.0 0 0,1 -11.493303480769221,-40.785679425670985" fill="none" id="id141" stroke="none" /><text fill="#e1ed5e" style="font-size:6.75px; font-family:Arial;" text-anchor="middle"><textPath startOffset="21.40746469413373" xlink:href="#id141">September</textPath></text><path d="M 81.81346652052679 110.50000000000001 l -6.755935757103956 3.9005413279917924 a28.801082655983578,28.801082655983578 0 0,0 -0.24352911099829275,-0.4302926046252599 l 6.821898233123628 -3.7839919532674107" fill="#ff5307" stroke="none" /><path d="M 81.4637452351635 109.86951160357371 l -10.179643345451456 5.420086710761246 a32.53267005479498,32.53267005479498 0 0,0 -0.2582349329921247,-0.49519953356461205 l 10.27118634741853 -5.244540934092131" fill="#ff870c" stroke="none" /><path d="M 81.1358732173502 109.22738970284198 l -10.56299912962289 5.166892192935086 a32.7589848858576,32.7589848858576 0 0,0 -0.24276083506748514,-0.5072767776151945 l 10.650139222650287 -4.9848029132547875" fill="#ff8a0c" stroke="none" /><path d="M 80.68587082218212 108.24405325689762 l -10.953103501986638 4.675228573204125 a32.90916615624017,32.90916615624017 0 0,0 -0.21731670589167038,-0.5214809827710455 l 11.031746052414794 -4.486515080991798" fill="#ff8c0c" stroke="none" /><path d="M 80.41425534168474 107.57618678355246 l -10.999169000094147 4.254714858298438 a32.79340142698694,32.79340142698694 0 0,0 -0.19858640166041092,-0.5267740238880613 l 11.070586085568994 -4.065272554216232" fill="#ff8a0c" stroke="none" /><path d="M 80.16572619554312 106.89939002012753 l -10.14681350471189 3.529588454847965 a31.743175459797705,31.743175459797705 0 0,0 -0.17460950148537654,-0.5162019650663715 l 10.205908427769634 -3.354884815307432" fill="#ff7c0b" stroke="none" /><path d="M 79.94057633289273 106.21446072829308 l -9.264785874357155 2.870254346671363 a30.69920704554108,30.69920704554108 0 0,0 -0.15163022513019145,-0.5047277044003837 l 9.312692419490975 -2.7107890386802556" fill="#ff6e0a" stroke="none" /><path d="M 79.83685265289637 105.86919833188381 l -10.030670964090444 2.9197821290817334 a31.446984620987635,31.446984620987635 0 0,0 -0.14642540837846757,-0.5196121181250984 l 10.079314864543486 -2.7471620870536397" fill="#ff780b" stroke="none" /><path d="M 79.64726062577567 105.17358676015961 l -6.487189297785276 1.6490181515406 a27.693495786912113,27.693495786912113 0 0,0 -0.11316416061359678,-0.4617483926679719 l 6.5145409849151665 -1.5374139342645285" fill="#ff4306" stroke="none" /><path d="M 79.48165901384964 104.47187691870673 l -8.039947872633622 1.7522692182327928 a29.2286821063784,29.2286821063784 0 0,0 -0.1026376156243434,-0.491158145997594 l 8.068843199082332 -1.6139946209497897" fill="#ff5908" stroke="none" /><path d="M 79.34024301695615 103.76489593502545 l -46.26975686132461 8.431891026830064 a68.03176784147533,68.03176784147533 0 0,0 -0.1995118494687239,-1.1507313295248005 l 46.40768352828557 -7.636366664384671" fill="#39ff88" stroke="none" /><path d="M 79.0935383218832 101.97986365728391 l -7.018773367858175 0.6646851353273256 a28.05017630407072,28.05017630407072 0 0,0 -0.041282349154690486,-0.4797634736106736 l 7.029149339710607 -0.54410061434099" fill="#ff4806" stroke="none" /><path d="M 79.03789590574601 101.26102812881392 l -13.800072104562265 0.8301780692084013 a34.825020279106724,34.825020279106724 0 0,0 -0.030776048739183083,-0.597047123652656 l 13.81228974275802 -0.5931591521790145" fill="#ffa60f" stroke="none" /><line stroke="#e1ed5e" stroke-width="0.3" x1="15.003131293944662" x2="10.003315487706104" y1="100.72959589197737" y2="100.7725132973878" /><path d="M 14.003168132696942 100.73817937305945 a86.0,86.0 0 0,1 10.791469493833604,-42.45332614584628" fill="none" id="id142" stroke="none" /><text fill="#e1ed5e" style="font-size:6.75px; font-family:Arial;" text-anchor="middle"><textPath startOffset="22.145653131862435" xlink:href="#id142">October</textPath></text><path d="M 79.00696218219943 99.45929381324524 l -10.930405837824482 -0.2815284815635729 a31.93403082424222,31.93403082424222 0 0,0 0.018818744138201088,-0.5478872025328654 l 10.92396240668943 0.46912194866057677" fill="#ff7f0b" stroke="none" /><path d="M 79.06263194458094 98.37931529534042 l -12.753330865613993 -0.9871884667000426 a33.79148111973778,33.79148111973778 0 0,0 0.04973201262327168,-0.5779613712481847 l 12.734505230292978 1.205970885323908" fill="#ff980e" stroke="none" /><path d="M 79.0935383218832 98.0201363427161 l -30.642760119171346 -2.901901242443089 a51.77985995000579,51.77985995000579 0 0,0 0.09139788218958256,-0.8841916007093429 l 30.588429844500098 3.4274973654353444" fill="#8aff24" stroke="none" /><path d="M 79.17382384314186 97.30363454192245 l -5.415557386924157 -0.7011523269734012 a26.460757859188504,26.460757859188504 0 0,0 0.06218969030742054,-0.44997361930491336 l 5.402723180061528 0.7940142544783816" fill="#ff3204" stroke="none" /><path d="M 79.2786578344484 96.59031103205396 l -9.132113349964655 -1.5026857765599921 a30.254920787325972,30.254920787325972 0 0,0 0.08872641992597446,-0.5117504120044654 l 9.104972112546447 1.6592292214850504" fill="#ff6709" stroke="none" /><path d="M 79.407916724674 95.88100663000787 l -11.586817927199348 -2.317688093201659 a32.816345787739834,32.816345787739834 0 0,0 0.11523583146509919,-0.5514451694010833 l 11.545324384909883 2.516249713888151" fill="#ff8b0c" stroke="none" /><path d="M 79.56144815229197 95.17655741523228 l -8.10612719001753 -1.9130239450041366 a29.328802953300112,29.328802953300112 0 0,0 0.11984652979708481,-0.48901473930067957 l 8.072093133704147 2.051894508912934" fill="#ff5a08" stroke="none" /><path d="M 79.73907114497095 94.47779374421319 l -6.759792079465221 -1.8424113907184172 a28.00637343354247,28.00637343354247 0 0,0 0.13040502027876896,-0.4627614124596381 l 6.72716856711187 1.9581807270810685" fill="#ff4806" stroke="none" /><path d="M 79.94057633289273 93.78553927170692 l -60.1782710013218 -18.643382184879226 a84.0,84.0 0 0,0 0.4385411368909713,-1.3737238652344332 l 59.84936514865357 19.67367508380505" fill="#4dd2ff" stroke="none" /><path d="M 80.41425534168474 92.42381321644754 l -5.096891188582715 -1.9715870054371951 a26.464929561143578,26.464929561143578 0 0,0 0.1675372763231631,-0.422303379783495 l 5.062295237293421 2.058791402434273" fill="#ff3204" stroke="none" /><path d="M 80.68587082218212 91.75594674310238 l -6.4976200299901485 -2.7734476184328507 a28.06477726091347,28.06477726091347 0 0,0 0.1929334735817279,-0.4414695444081654 l 6.449052674391443 2.8845792326168826" fill="#ff4906" stroke="none" /><path d="M 80.9802524753101 91.09779779509293 l -40.32411914988389 -18.87372384628352 a65.52248911549987,65.52248911549987 0 0,0 0.4855551607841971,-1.0146235378065218 l 39.99418473113979 19.563159886155134" fill="#36ff6b" stroke="none" /><path d="M 81.63589988554816 89.8137432299009 l -6.140620428291634 -3.406098639217837 a28.02201731587399,28.02201731587399 0 0,0 0.23694168190917494,-0.4186532486200527 l 6.08124538136109 3.511008657936995" fill="#ff4806" stroke="none" /><line stroke="#e1ed5e" stroke-width="0.3" x1="26.387840678322718" x2="22.05771365940052" y1="57.49999999999999" y2="54.99999999999999" /><path d="M 25.521815274538284 56.99999999999999 a86.0,86.0 0 0,1 29.574782752854787,-30.34633250058573" fill="none" id="id143" stroke="none" /><text fill="#e1ed5e" style="font-size:6.75px; font-family:Arial;" text-anchor="middle"><textPath startOffset="21.40746469413373" xlink:href="#id143">November</textPath></text><path d="M 81.99639281039701 89.18935116829357 l -7.433674417254255 -4.463707900746963 a29.67088251361597,29.67088251361597 0 0,0 0.2659528862829914,-0.4344140526079159 l 7.35595356651587 4.590659069479422" fill="#ff5f08" stroke="none" /><path d="M 82.98947788004972 87.6856937992154 l -5.581564370677814 -4.040622166400443 a27.89060870428924,27.89060870428924 0 0,0 0.28408308925835396,-0.38541327031598377 l 5.511379261835641 4.13584174598529" fill="#ff4606" stroke="none" /><path d="M 83.2033758604659 87.39550010848427 l -6.18038579551086 -4.637876721054186 a28.72703494628106,28.72703494628106 0 0,0 0.299374037831778,-0.3918902255575143 l 6.099859780324775 4.743287859852584" fill="#ff5207" stroke="none" /><path d="M 83.64595745247003 86.82634096563983 l -8.324975720306366 -6.706011146168079 a31.689986259870544,31.689986259870544 0 0,0 0.3448974837132156,-0.4207188505837152 l 8.208631417354521 6.847932278450287" fill="#ff7b0b" stroke="none" /><path d="M 84.10781606972428 86.27271002978789 l -5.35667649451792 -4.626969574444833 a28.078335292267454,28.078335292267454 0 0,0 0.3182063400962206,-0.3620604026973184 l 5.276459090463106 4.718242254953451" fill="#ff4906" stroke="none" /><path d="M 84.83555147118756 85.47280134310135 l -5.99629211116616 -5.744312200882037 a29.303772741569688,29.303772741569688 0 0,0 0.35110552370744136,-0.3602651980322613 l 5.896799786307916 5.846400090982029" fill="#ff5a08" stroke="none" /><path d="M 85.08716467003674 85.21462403516908 l -9.421400412160638 -9.34087610617714 a34.267055142615924,34.267055142615924 0 0,0 0.4177449042791103,-0.41417445646629797 l 9.25966358775155 9.50123057287211" fill="#ff9e0e" stroke="none" /><path d="M 85.34317274990677 84.96080404539775 l -14.767711254484977 -15.152972711455806 a42.1588723161223,42.1588723161223 0 0,0 0.5226244966084915,-0.5006624455065373 l 14.505414272011185 15.404247287267912" fill="#fbff18" stroke="none" /><path d="M 85.86807049272753 84.46653392183569 l -5.638547932926339 -6.197751906499516 a29.37886337676097,29.37886337676097 0 0,0 0.3759584791196711,-0.3361843903038335 l 5.531324426983276 6.293631826686751" fill="#ff5b08" stroke="none" /><path d="M 86.13680546590413 84.22622945171909 l -5.456967563887161 -6.209027365984465 a29.266227423974044,29.266227423974044 0 0,0 0.3802108281517803,-0.3284170577657943 l 5.349577255972532 6.301788556214969" fill="#ff5a08" stroke="none" /><path d="M 86.40962598614128 83.9905735841838 l -5.172067942533118 -6.09268303132416 a28.991938020428094,28.991938020428094 0 0,0 0.38217678792579396,-0.31882546907617826 l 5.066716820445415 6.18057068431222" fill="#ff5607" stroke="none" /><path d="M 86.96720088162412 83.53348406188908 l -13.412950293679703 -16.94682452954819 a42.61254490373632,42.61254490373632 0 0,0 0.5774812625422592,-0.44905292261705143 l 13.1200590865022 17.174578503786048" fill="#f5ff19" stroke="none" /><path d="M 87.25179093698888 83.31218511350988 l -6.453349527998694 -8.44764168745313 a31.630539507010777,31.630539507010777 0 0,0 0.43431292980890107,-0.3259165193662591 l 6.30738360927904 8.55717723408339" fill="#ff7a0b" stroke="none" /><path d="M 87.83215693770416 82.88440491214696 l -4.384750240535961 -6.1677003306303035 a28.567467346499576,28.567467346499576 0 0,0 0.40212778954087813,-0.2807164279175214 l 4.278227359821318 6.2420615743529515" fill="#ff5007" stroke="none" /><path d="M 88.12776184653039 82.6780497279521 l -4.6072310625198165 -6.7220878089848375 a29.149419769232043,29.149419769232043 0 0,0 0.4151761739426812,-0.27934905855257547 l 4.491158600480146 6.800186541594522" fill="#ff5808" stroke="none" /><path d="M 88.4268655584334 82.4767994020092 l -4.458972155429355 -6.751452161465359 a29.091015941861045,29.091015941861045 0 0,0 0.41906906165013674,-0.2716355027128547 l 4.342417461522192 6.82700150588212" fill="#ff5708" stroke="none" /><path d="M 89.03521579738668 82.08984904055464 l -11.390255657426927 -18.605126605462203 a42.81487244855728,42.81487244855728 0 0,0 0.6301273621914597,-0.3783733759663076 l 11.069195538678033 18.797913981964435" fill="#f3ff19" stroke="none" /><line stroke="#e1ed5e" stroke-width="0.3" x1="56.869717070023135" x2="54.33264160355391" y1="26.7553504044142" y2="22.446841604673864" /><path d="M 56.362301976729285 25.89364864446614 a86.0,86.0 0 0,1 42.16139366436587,-11.88097634709845" fill="none" id="id144" stroke="none" /><text fill="#e1ed5e" style="font-size:6.75px; font-family:Arial;" text-anchor="middle"><textPath startOffset="22.145653131862474" xlink:href="#id144">December</textPath></text><path d="M 89.34428304082924 81.90426304109057 l -5.771942235519499 -9.802019783013156 a32.37518830599103,32.37518830599103 0 0,0 0.4813227449318241,-0.27789181635347676 l 5.602827022727276 9.899658496642807" fill="#ff850c" stroke="none" /><path d="M 89.97174638481275 81.54914285379989 l -4.346843787310465 -7.997702973431951 a30.102653665965867,30.102653665965867 0 0,0 0.4561429081435235,-0.2428704062349474 l 4.208912063380379 8.071143847389473" fill="#ff6509" stroke="none" /><path d="M 90.28995756902619 81.37971332152246 l -3.920055701560391 -7.517223686460704 a29.47794129819392,29.47794129819392 0 0,0 0.4506935481321453,-0.2301273369949463 l 3.7904349317146635 7.583408975128484" fill="#ff5d08" stroke="none" /><path d="M 90.61103034731259 81.2157712731953 l -3.5941287309209784 -7.190665073230455 a29.038869667422652,29.038869667422652 0 0,0 0.4478066816576133,-0.21904468787772288 l 3.470161800001312 7.251303511205392" fill="#ff5608" stroke="none" /><path d="M 91.5904679813234 80.7573450057729 l -10.869174306920973 -24.87079789882432 a48.1421358451835,48.1421358451835 0 0,0 0.7601068406020552,-0.3244444115063888 l 10.440632391148487 25.053716959990112" fill="#b3ff20" stroke="none" /><path d="M 92.25597844496254 80.48000691201159 l -2.769833458343231 -6.9817897041580865 a28.511149370106114,28.511149370106114 0 0,0 0.45648758316284826,-0.1765792036375731 l 2.6495736126868534 7.0283087959337" fill="#ff4f07" stroke="none" /><path d="M 92.592206182469 80.34994680014964 l -3.0730197704489433 -8.151550037827576 a29.71155660767792,29.71155660767792 0 0,0 0.4787958608228911,-0.17582047210787782 l 2.932634757971925 8.203101358944176" fill="#ff6008" stroke="none" /><path d="M 92.93061703081487 80.22567764915836 l -2.746558327740257 -7.682612466301961 a29.158806098630954,29.158806098630954 0 0,0 0.4727811986020365,-0.16445784279764428 l 2.6142713570932163 7.728628741668191" fill="#ff5808" stroke="none" /><path d="M 93.61358852112211 79.99465700312896 l -6.6491332251161 -20.828315125055255 a42.863889946529376,42.863889946529376 0 0,0 0.7028848578403595,-0.21775552568458698 l 6.290607734404125 20.939387238546484" fill="#f2ff19" stroke="none" /><path d="M 93.95794788825049 79.88797359093562 l -3.917976778673662 -13.041670443317182 a34.61747810684192,34.61747810684192 0 0,0 0.570594925870555,-0.16609186698136977 l 3.6935218404214827 13.107006004601073" fill="#ffa30f" stroke="none" /><path d="M 94.6519064749342 79.69241777938228 l -2.3946766710146177 -9.092977368570999 a30.40301620673101,30.40301620673101 0 0,0 0.5058406158388028,-0.12858270647188363 l 2.2382307619504367 9.132745306878146" fill="#ff6909" stroke="none" /><path d="M 95.00130118170881 79.60360301121753 l -1.7871587461492002 -7.292217553706273 a28.50802059363981,28.50802059363981 0 0,0 0.4763117993728004,-0.11240828772219079 l 1.661714793036494 7.3218219850746955" fill="#ff4f07" stroke="none" /><path d="M 95.35216902796891 79.52079915486377 l -1.510062255319453 -6.6536129221223295 a27.822818547519326,27.822818547519326 0 0,0 0.4666782080010942,-0.10171034335730063 l 1.3956216306992404 6.6785547236133445" fill="#ff4506" stroke="none" /><path d="M 96.05791012581881 79.37332000966035 l -4.0874212786508926 -21.387115309731218 a42.77419835449534,42.77419835449534 0 0,0 0.7224058312637057,-0.13164640706062833 l 3.7196807138361487 21.454129890723205" fill="#f3ff19" stroke="none" /><path d="M 96.41257539226777 79.30868818359171 l -2.318074804469879 -13.370039467774676 a34.5695035343586,34.5695035343586 0 0,0 0.5855785769265555,-0.09635673199448305 l 2.088218724490251 13.407862198264828" fill="#ffa20f" stroke="none" /><path d="M 97.12497278360702 79.19773525538626 l -1.5443389527293119 -11.174067350360497 a32.280282086513154,32.280282086513154 0 0,0 0.5495674648357032,-0.07115251104693746 l 1.3522936660028146 11.198931457607829" fill="#ff830c" stroke="none" /><path d="M 97.48249496171623 79.15144685158666 l -1.0354748651844776 -8.575217301396824 a29.6375088979754,29.6375088979754 0 0,0 0.5056216859110212,-0.056655964532243176 l 0.8881172776726571 8.591729026436038" fill="#ff5f08" stroke="none" /><path d="M 97.84075906011542 79.11130261209362 l -1.1731469473241807 -11.349132522242238 a32.40960484712036,32.40960484712036 0 0,0 0.5538962538166959,-0.05245455112020526 l 0.9781511301224692 11.367598828867626" fill="#ff850c" stroke="none" /><path d="M 98.5590905019552 79.04949213459386 l -1.9010645318452373 -27.64106106671641 a48.70635853460692,48.70635853460692 0 0,0 0.8346313431304048,-0.05020934903026532 l 1.4262888365823487 27.66962239357137" fill="#adff20" stroke="none" /><path d="M 98.9189461498227 79.02784411241856 l -0.546012100731856 -10.592488885892525 a31.606552220769117,31.606552220769117 0 0,0 0.542088852673618,-0.023279627798581986 l 0.3640974874574179 10.600301082116935" fill="#ff7a0b" stroke="none" /></svg>