<?xml version="1.0" encoding="utf-8" ?>
<svg baseProfile="full" height="200mm" version="1.1" viewBox="0,0,200,200" width="200mm" xmlns="http://www.w3.org/2000/svg" xmlns:ev="http://www.w3.org/2001/xml-events" xmlns:xlink="http://www.w3.org/1999/xlink"><defs /><rect fill="#1a1a1a" height="200" width="200" x="0" y="0" /><text alignment-baseline="middle" fill="#e1ed5e" style="dominant-baseline: central; font-size:9.0px; font-family:Arial;" text-anchor="middle" x="100.0" y="100.0">2025</text><line stroke="#e1ed5e" stroke-width="0.3" x1="100.0" x2="100.0" y1="15.0" y2="10.0" /><path d="M 100.0 14.0 a86.0,86.0 0 0,1 42.46469731375804,11.215312516191453" fill="none" id="id145" stroke="none" /><text fill="#e1ed5e" style="font-size:6.75px; font-family:Arial;" text-anchor="middle"><textPath startOffset="22.20632615414155" xlink:href="#id145">January</textPath></text><path d="M 100.0 79.0 l 0.0 -4.168919296285953 a25.168919296285953,25.168919296285953 0 0,0 0.4332415719044302,0.003729046988627146 l -0.07176109263190181 4.168301625905885" fill="#ff2703" stroke="none" /><path d="M 100.36148047927253 79.00311137660856 l 0.10779810215446328 -6.26154073189604 a27.26246858419436,27.26246858419436 0 0,0 0.4691395240554535,0.01211648980993696 l -0.2155642614047846 6.258757449943744" fill="#ff4506" stroke="none" /><path d="M 101.08401301168833 79.027996857942 l 0.708377226655085 -13.704715038461304 a34.723010332309414,34.723010332309414 0 0,0 0.5966371384015007,0.03599078153372843 l -0.9441764138961977 13.690490987547271" fill="#ffaa0f" stroke="none" /><path d="M 101.44485096284872 79.0497635885617 l 0.5273847231330797 -7.647041053725498 a28.66520524993019,28.66520524993019 0 0,0 0.49196291409604587,0.03818579053241178 l -0.6589378265914668 7.636830001004621" fill="#ff5808" stroke="none" /><path d="M 102.16513564639614 79.11191278185805 l 0.6647770575851847 -6.413418569211689 a27.44777994973471,27.44777994973471 0 0,0 0.46953126060394607,0.05275730795332389 l -0.775075021698856 6.401025307787765" fill="#ff4706" stroke="none" /><path d="M 102.88285421437855 79.19881850522331 l 0.813575110039367 -5.870336224133291 a26.92644512705948,26.92644512705948 0 0,0 0.4585586678201017,0.06757962762538257 l -0.9145027582881244 5.855462112346939" fill="#ff4006" stroke="none" /><path d="M 103.59715602781102 79.31037775812273 l 1.0301266424239628 -5.924939293226792 a27.013822954481988,27.013822954481988 0 0,0 0.45744034477505924,0.08359429912254202 l -1.131962108301923 5.906329512753512" fill="#ff4106" stroke="none" /><path d="M 103.95276090670814 79.375362276772 l 2.580498309886138 -13.464473071589621 a34.709522479754256,34.709522479754256 0 0,0 0.5858200322943251,0.11750998736951113 l -2.8118847516475887 13.418059128142902" fill="#ffaa0f" stroke="none" /><path d="M 104.66035177308747 79.52364482259891 l 1.4327230569650944 -6.295006817872345 a27.455989946942196,27.455989946942196 0 0,0 0.4599222340156831,0.10884873330010252 l -1.540868977943301 6.269412172431373" fill="#ff4706" stroke="none" /><path d="M 105.36241919743992 79.69619591428918 l 1.798005230484814 -6.807812780148837 a28.041245462161406,28.041245462161406 0 0,0 0.4656210229262725,0.12727181450179048 l -1.9149241426347972 6.775854424820753" fill="#ff4f07" stroke="none" /><path d="M 106.40334571778207 80.00007090966166 l 4.294050378855588 -13.411848566751884 a35.08249092432281,35.08249092432281 0 0,0 0.5735438939449767,0.18908840435396404 l -4.524277095042982 13.335946438138683" fill="#ffaf10" stroke="none" /><path d="M 107.08798089147638 80.2323363322302 l 2.432992491427748 -6.785370617264066 a28.2083775481709,28.2083775481709 0 0,0 0.4556562012199812,0.16782202435018623 l -2.5494310184203055 6.742485325107555" fill="#ff5207" stroke="none" /><path d="M 107.4271985657038 80.35727306442388 l 1.4510103648607602 -3.837490020700657 a25.10265289025412,25.10265289025412 0 0,0 0.4028579346278764,0.1563026198620847 l -1.5168514644883035 3.8119446969480255" fill="#ff2603" stroke="none" /><path d="M 108.09893153111575 80.62456947434976 l 1.9646863504831757 -4.70020566814643 a26.094303267243788,26.094303267243788 0 0,0 0.41293146689763593,0.17679570411169218 l -2.045301575171127 4.665690436071947" fill="#ff3404" stroke="none" /><path d="M 108.43124777332544 80.76684994638697 l 7.032475279013051 -16.042305471973403 a38.51602904216699,38.51602904216699 0 0,0 0.6049178620837851,0.27140901178455024 l -7.307575259563616 15.918876129672322" fill="#ffdb14" stroke="none" /><path d="M 110.05341064243156 81.56283822128135 l 5.8700576130299185 -10.765222441531087 a33.26163082937727,33.26163082937727 0 0,0 0.5003118065323441,0.27842297865914983 l -6.054493508634298 10.662584065311757" fill="#ff970d" stroke="none" /><line stroke="#e1ed5e" stroke-width="0.3" x1="143.23703022742887" x2="145.7803849466894" y1="26.81831364943548" y2="22.513508569990506" /><path d="M 143.74570117128098 25.957352633546492 a86.0,86.0 0 0,1 28.547481713284135,27.462654790039103" fill="none" id="id146" stroke="none" /><text fill="#e1ed5e" style="font-size:6.75px; font-family:Arial;" text-anchor="middle"><textPath startOffset="19.985693538727396" xlink:href="#id146">February</textPath></text><path d="M 111.2981086023043 82.29822771554956 l 5.201042175620952 -8.1489448787815 a30.667271711812344,30.667271711812344 0 0,0 0.4425330741862907,0.2878358213090612 l -5.340542275591522 8.058210133312912" fill="#ff740a" stroke="none" /><path d="M 111.60114157652 82.49532879139004 l 4.484306107293772 -6.766256879910056 a29.117341524713765,29.117341524713765 0 0,0 0.4154008967697957,0.280480539808613 l -4.600111698470109 6.688064427802773" fill="#ff5e08" stroke="none" /><path d="M 112.19680574252982 82.90503203632743 l 4.0466419722702245 -5.671748516514766 a27.96735548729405,27.96735548729405 0 0,0 0.38948495721227205,0.2829773854330622 l -4.143672245836285 5.60125189626503" fill="#ff4e07" stroke="none" /><path d="M 112.77801427241765 83.33499621200491 l 3.3848713596245132 -4.414527392709341 a26.562859536442335,26.562859536442335 0 0,0 0.36045477189328246,0.2813406669015594 l -3.460358686677226 4.355608336584558" fill="#ff3b05" stroke="none" /><path d="M 113.06298171725822 83.55741782278167 l 8.10918971166295 -10.207165646455273 a34.03630270874058,34.03630270874058 0 0,0 0.4555947150884372,0.3683925751128153 l -8.283687825315878 10.066066974078328" fill="#ffa10e" stroke="none" /><path d="M 113.6212207817346 84.01681056812373 l 4.662253647632534 -5.470705190352063 a28.18785255515219,28.18785255515219 0 0,0 0.36658463503060557,0.31789858311356217 l -4.755732081309904 5.38964161381883" fill="#ff5207" stroke="none" /><path d="M 113.89432698308785 84.25364557470407 l 3.567672063934452 -4.043220579184478 a26.39220888020106,26.39220888020106 0 0,0 0.338057819135506,0.3035116478731575 l -3.636740870665948 3.981209922542023" fill="#ff3805" stroke="none" /><path d="M 114.16331599549186 84.49514656593476 l 4.158026837771735 -4.5518716602158 a27.165121474448476,27.165121474448476 0 0,0 0.34252904772329823,0.3183434196946224 l -4.23576376928988 4.479623654446537" fill="#ff4306" stroke="none" /><path d="M 114.68862486808459 84.99185889309783 l 7.546122080372863 -7.710270090580268 a31.788522759005865,31.788522759005865 0 0,0 0.38776578554398067,0.386100596029294 l -7.677723666084166 7.579233643900856" fill="#ff830c" stroke="none" /><path d="M 114.94478906791727 85.2469230424477 l 4.254736792723164 -4.200156927736543 a26.978637252164198,26.978637252164198 0 0,0 0.32340414823620406,0.3332964027846129 l -4.326405204662477 4.126296329401817" fill="#ff4106" stroke="none" /><path d="M 115.4437574822437 85.77008943001954 l 4.173825325695462 -3.8457714184940235 a26.675453783859258,26.675453783859258 0 0,0 0.3082365952431659,0.34036254712881187 l -4.239405561554664 3.773356084095662" fill="#ff3c05" stroke="none" /><path d="M 115.9244219780498 86.31012108654704 l 4.450922635529197 -3.826361296977121 a26.869561574979056,26.869561574979056 0 0,0 0.29849445408080916,0.35332328363429116 l -4.516127703097124 3.7491790637137234" fill="#ff3f05" stroke="none" /><path d="M 116.15771136456269 86.58626213691792 l 3.1868728111674485 -2.6456640750334737 a25.14194359117565,25.14194359117565 0 0,0 0.2735700963196907,0.3353645907956407 l -3.231941399563548 2.590415314629732" fill="#ff2603" stroke="none" /><path d="M 116.82858285166822 87.43820079747576 l 20.010552538589327 -14.937000051457266 a45.97070650656241,45.97070650656241 0 0,0 0.4678885099816898,0.6381994017913414 l -20.264703661084642 14.590338205994431" fill="#c9ff1d" stroke="none" /><path d="M 117.2510076193507 88.02491185347247 l 14.222326108519706 -9.872675994133825 a38.313124825467746,38.313124825467746 0 0,0 0.3714102313450054,0.5449986848833995 l -14.390160805533444 9.62639928598002" fill="#ffd814" stroke="none" /><line stroke="#e1ed5e" stroke-width="0.3" x1="172.23445277983987" x2="176.4835382374775" y1="55.19839476539836" y2="52.563006222186495" /><path d="M 173.08426987136738 54.67131705675599 a86.0,86.0 0 0,1 12.851231095245387,41.99856678651699" fill="none" id="id147" stroke="none" /><text fill="#e1ed5e" style="font-size:6.75px; font-family:Arial;" text-anchor="middle"><textPath startOffset="22.20632615414155" xlink:href="#id147">March</textPath></text><path d="M 118.03404312379186 89.2402003453031 l 1.7933322413801407 -1.0699705828085917 a23.088271432560738,23.088271432560738 0 0,0 0.20069240872462285,0.3430483819104939 l -1.811484324575091 1.0389427885442026" fill="#ff0801" stroke="none" /><path d="M 118.56541770881063 90.18545643968196 l 3.351210836910135 -1.771605964085335 a24.79067299636973,24.79067299636973 0 0,0 0.19618933321947057,0.378975345969455 l -3.381209603289722 1.7136578958555353" fill="#ff2103" stroke="none" /><path d="M 118.73160827565052 90.50648371742162 l 3.4507796647435502 -1.7489172554082568 a24.86866796984083,24.86866796984083 0 0,0 0.190233452406725,0.3834990318493447 l -3.480373130103683 1.6892586350599623" fill="#ff2203" stroke="none" /><path d="M 119.04729006885535 91.15688171328212 l 8.046030630314853 -3.735544549656 a29.870901982686398,29.870901982686398 0 0,0 0.21250683554420535,0.46823064327315966 l -8.109139782822405 3.5964918975407776" fill="#ff6909" stroke="none" /><path d="M 119.196687751892 91.48605970444005 l 6.096194725342527 -2.703728819913646 a27.668863445964814,27.668863445964814 0 0,0 0.18934632025140008,0.43703741301633364 l -6.141831755436607 2.59839226231071" fill="#ff4a06" stroke="none" /><path d="M 119.47837535516314 92.15188598940014 l 6.043681334018919 -2.4350850257407126 a27.515805640882434,27.515805640882434 0 0,0 0.17322699932981664,0.44084381852233734 l -6.084701883230436 2.3306922023225907" fill="#ff4806" stroke="none" /><path d="M 119.61058180528143 92.48833698450437 l 5.043112198962207 -1.9317203214102008 a26.400418877408544,26.400418877408544 0 0,0 0.1588996098923578,0.4257719545958237 l -5.075616397356191 1.8446252297850438" fill="#ff3805" stroke="none" /><path d="M 119.85752413597 93.16781622104841 l 5.25134748862429 -1.8067796812809684 a26.553476682490924,26.553476682490924 0 0,0 0.14498540458012432,0.4334879056039548 l -5.281670186976185 1.7161186727546998" fill="#ff3a05" stroke="none" /><path d="M 120.08093135843002 93.85539295169968 l 11.882012134983905 -3.6358022548571736 a33.42583077352695,33.42583077352695 0 0,0 0.16361801369813128,0.5516386033184737 l -11.942836045793738 3.4307342647921697" fill="#ff990e" stroke="none" /><path d="M 120.28053869075195 94.5502522615342 l 5.666204680284091 -1.5226117320120163 a26.867215861491204,26.867215861491204 0 0,0 0.11617341679313271,0.4476635650231616 l -5.691574428947526 1.4248517414400041" fill="#ff3f05" stroke="none" /><path d="M 120.37134235888165 94.90015583598534 l 6.003316836450098 -1.5028945954439143 a27.188578609327003,27.188578609327003 0 0,0 0.10974760350482067,0.45497466921460356 l -6.028297240215738 1.3993346945699046" fill="#ff4306" stroke="none" /><path d="M 120.45610955862082 95.25157060432595 l 5.587299849005034 -1.2969669902007235 a26.73585590617146,26.73585590617146 0 0,0 0.10020294895811517,0.44919017235542014 l -5.608797184965187 1.2005986482953395" fill="#ff3d05" stroke="none" /><path d="M 120.6074358757038 95.95851677861258 l 5.671216993997791 -1.1122261141237955 a26.779251605696732,26.779251605696732 0 0,0 0.08481916832326936,0.4531073887928531 l -5.68952188623092 1.0144406478683796" fill="#ff3e05" stroke="none" /><path d="M 120.67395015179393 96.31383870115 l 7.172665643280868 -1.2788848918434044 a28.285786093270037,28.285786093270037 0 0,0 0.08133933179094004,0.4800693405856989 l -7.193616836592032 1.1552297629418675" fill="#ff5307" stroke="none" /><path d="M 120.78858239683441 97.02765380044208 l 5.809889210486422 -0.8306964748722586 a26.86897514660709,26.86897514660709 0 0,0 0.0615222774411634,0.45841242678808175 l -5.823327486985422 0.7305657060195125" fill="#ff3f05" stroke="none" /><path d="M 120.83666639777658 97.38593545837742 l 5.823909354240317 -0.7306387041915768 a26.869561574979056,26.869561574979056 0 0,0 0.053623516216938276,0.4594135396172458 l -5.835623223460844 0.6302814262494784" fill="#ff3f05" stroke="none" /><path d="M 120.87857604477298 97.74499172005257 l 5.309140281030519 -0.5734181903714409 a26.340016755096343,26.340016755096343 0 0,0 0.04480671943191893,0.4511975499268249 l -5.318224126144666 0.481945109740181" fill="#ff3705" stroke="none" /><path d="M 120.94382443527127 98.46500227214037 l 5.893045937162615 -0.43190832465550577 a26.908852275900585,26.908852275900585 0 0,0 0.029880882467785252,0.4622440261850104 l -5.8996074106348155 0.3304052342174601" fill="#ff4006" stroke="none" /><path d="M 120.96714384426684 98.82574320788733 l 8.39037060285797 -0.46989946470188604 a29.40351857023178,29.40351857023178 0 0,0 0.02395181466552602,0.5055849515197652 l -8.397216025756993 0.3254034065591211" fill="#ff6209" stroke="none" /><line stroke="#e1ed5e" stroke-width="0.3" x1="184.98032266829074" x2="189.97916517819016" y1="98.17113171792111" y2="98.06355123074" /><path d="M 185.9800911702706 98.14961562048488 a86.0,86.0 0 0,1 -9.607161424134198,41.387399972396054" fill="none" id="id148" stroke="none" /><text fill="#e1ed5e" style="font-size:6.75px; font-family:Arial;" text-anchor="middle"><textPath startOffset="21.466115282336823" xlink:href="#id148">April</textPath></text><path d="M 120.99513854157772 99.54816195383933 l 4.953586303764034 -0.10660652476993795 a25.95473331471656,25.95473331471656 0 0,0 0.00576812169720825,0.4467473821419151 l -4.954687432578957 0.02132288456756012" fill="#ff3204" stroke="none" /><path d="M 120.99980553446 99.90962569577887 l 5.021539647907871 -0.021610588300629337 a26.021586149120356,26.021586149120356 0 0,0 -0.0019277072430293992,0.44793127404825184 l -5.021167643375339 -0.0648301639513072" fill="#ff3304" stroke="none" /><path d="M 120.99824983174949 100.27111621757518 l 4.991848668463655 0.06445161575586575 a25.9922647305222,25.9922647305222 0 0,0 -0.009626962178509203,0.4473271040138157 l -4.989999643600139 -0.1503685355597963" fill="#ff3204" stroke="none" /><path d="M 120.9904718944345 100.63252640178507 l 5.842865787314246 0.17606878450135668 a26.84551801172857,26.84551801172857 0 0,0 -0.01789428546041944,0.4617719962634132 l -5.838969369002624 -0.27661802777877603" fill="#ff3f05" stroke="none" /><path d="M 120.95626037817324 101.35467743843564 l 12.05467767467161 0.7792516211766479 a33.07983803406869,33.07983803406869 0 0,0 -0.0416230076041155,0.5679128691246491 l -12.039478108403157 -0.9866376267980672" fill="#ff940d" stroke="none" /><path d="M 120.89721153311464 102.0752229133903 l 4.777005685844078 0.47438633814613207 a25.800502652890252,25.800502652890252 0 0,0 -0.047691244433390706,0.4415616928890454 l -4.7681321399096355 -0.5565443529199688" fill="#ff3004" stroke="none" /><path d="M 120.76222939487914 103.15116336523771 l 6.28084979153102 0.9532687164373094 a27.352778553476682,27.352778553476682 0 0,0 -0.07465777523949801,0.46489403768276577 l -6.263510261930233 -1.06124198381328" fill="#ff4606" stroke="none" /><path d="M 120.5718875245553 104.21870165774334 l 4.232718996954016 0.868008763313401 a25.320804244624405,25.320804244624405 0 0,0 -0.09123442825903369,0.4262168753211017 l -4.21715052997054 -0.9407394580506717" fill="#ff2904" stroke="none" /><path d="M 120.49622156327973 104.57218783832717 l 3.880602686373542 0.8656641592811555 a24.97598436191008,24.97598436191008 0 0,0 -0.09721537271761392,0.4188012813047925 l -3.865126747725375 -0.9323340979345129" fill="#ff2403" stroke="none" /><path d="M 120.41448212921028 104.9243191809786 l 3.9016117199752913 0.9411348917793227 a25.01351577771572,25.01351577771572 0 0,0 -0.10456684166597247,0.4176925534304237 l -3.884833564014258 -1.0081552846071424" fill="#ff2403" stroke="none" /><path d="M 120.13307415673323 105.97154293290107 l 23.925805747387297 7.096480900657308 a45.956045797263336,45.956045797263336 0 0,0 -0.23147234699202474,0.7564650228703014 l -23.800106627889143 -7.507272896079667" fill="#c9ff1d" stroke="none" /><path d="M 120.02730092923936 106.31721596034902 l 11.600286955439339 3.659081079295151 a33.163697291259425,33.163697291259425 0 0,0 -0.17641152249453226,0.5429388385494477 l -11.53558318192856 -3.8582188178223937" fill="#ff960d" stroke="none" /><path d="M 119.54520255179757 107.68017299344265 l 4.626225546747728 1.8178482628433361 a25.970566880759563,25.970566880759563 0 0,0 -0.16707408056400774,0.4146641663142463 l -4.594248851926328 -1.8972117970003959" fill="#ff3204" stroke="none" /><path d="M 119.26925614724726 108.34839909993367 l 5.2722751111624895 2.2842115158098326 a26.745825188494834,26.745825188494834 0 0,0 -0.1866590060758477,0.42086678216256634 l -5.232175020355369 -2.374626634465087" fill="#ff3d05" stroke="none" /><path d="M 119.12269723197855 108.67885076344098 l 5.145666309057394 2.3353645896821376 a26.650823792236807,26.650823792236807 0 0,0 -0.19318723158606604,0.416108110093445 l -5.104704460631496 -2.423592767054413" fill="#ff3c05" stroke="none" /><path d="M 118.81262510543309 109.33194174019688 l 4.949280679092016 2.4550746477071983 a26.52474169226473,26.52474169226473 0 0,0 -0.20641469385359576,0.4072757735402243 l -4.906287315452151 -2.5399046329501167" fill="#ff3a05" stroke="none" /><path d="M 118.64920377521936 109.65438752849418 l 4.216771934318658 2.1829538067081096 a25.748310527785534,25.748310527785534 0 0,0 -0.2071482133864736,0.39184635388475564 l -4.178571212707291 -2.2552151756789995" fill="#ff2f04" stroke="none" /><line stroke="#e1ed5e" stroke-width="0.3" x1="174.80103733775053" x2="179.2010983576182" y1="140.37084112569926" y2="142.7455964860345" /><path d="M 175.68104954172406 140.8457921977663 a86.0,86.0 0 0,1 -30.038265399797805,32.042727171017184" fill="none" id="id149" stroke="none" /><text fill="#e1ed5e" style="font-size:6.75px; font-family:Arial;" text-anchor="middle"><textPath startOffset="22.206326154141568" xlink:href="#id149">May</textPath></text><path d="M 118.48025628344425 109.97397251340804 l 5.801076818827056 3.1308970964317204 a27.592041329237645,27.592041329237645 0 0,0 -0.22917632948609395,0.41602160678204064 l -5.746324079889453 -3.2302892216115664" fill="#ff4906" stroke="none" /><path d="M 118.12598468904814 110.60418214915192 l 5.52283214024586 3.231003390935401 a27.398519966489808,27.398519966489808 0 0,0 -0.24165380358847044,0.40502567471508877 l -5.466397460959163 -3.3255911595365935" fill="#ff4606" stroke="none" /><path d="M 117.75023020441432 111.22182372390056 l 4.979085797356659 3.147813999066771 a26.89067299636973,26.89067299636973 0 0,0 -0.2507172853908226,0.3891187946272487 l -4.924163648588786 -3.2330543936154723" fill="#ff3f05" stroke="none" /><path d="M 117.35343817320211 111.8261652097733 l 3.1736293380703886 2.162791286199534 a24.840519407986598,24.840519407986598 0 0,0 -0.2438381969706527,0.3512671090483116 l -3.1359302339375996 -2.2170996574348654" fill="#ff2203" stroke="none" /><path d="M 117.14729908036423 112.12312394758627 l 4.052910902435156 2.8654041075780565 a25.963529740296007,25.963529740296007 0 0,0 -0.2611439115432159,0.36270605284156987 l -4.002987198516337 -2.9347437658707576" fill="#ff3204" stroke="none" /><path d="M 116.71984013943494 112.70617746262583 l 6.371841898432519 4.842256459995941 a29.002987992180955,29.002987992180955 0 0,0 -0.30548872496079277,0.3948853573063631 l -6.287546356253658 -4.951219811415557" fill="#ff5d08" stroke="none" /><path d="M 116.498646956653 112.99209946851258 l 4.55152564324979 3.584165055834563 a26.793325886623848,26.793325886623848 0 0,0 -0.2884519552115548,0.3598881656420922 l -4.489155775983381 -3.6619810550549055" fill="#ff3e05" stroke="none" /><path d="M 116.0416608686014 113.55231037782055 l 3.7060223503473724 3.130920518171166 a25.85152192125105,25.85152192125105 0 0,0 -0.2901002276065725,0.3374521038163184 l -3.6515796131700213 -3.1942497211490126" fill="#ff3004" stroke="none" /><path d="M 115.80600337817218 113.82643327865902 l 3.974673566613809 3.4768788515589093 a26.280787489528066,26.280787489528066 0 0,0 -0.3007787951133683,0.3379281648439841 l -3.914235921852102 -3.54478118614376" fill="#ff3705" stroke="none" /><path d="M 115.32070863581623 114.36230785411682 l 45.96212590744871 43.08692356235047 a84.0,84.0 0 0,0 -0.997973794484142,1.0463715336699715 l -45.21364556158561 -43.87170221260295" fill="#4dd2ff" stroke="none" /><path d="M 114.0293411484842 115.62618273729858 l 3.058560914443344 3.406691109469141 a25.578246299916223,25.578246299916223 0 0,0 -0.33015139327767,0.29132021852326384 l -2.9994671682590863 -3.4588344697646938" fill="#ff2d04" stroke="none" /><path d="M 113.48314897796784 116.09983520530334 l 3.3928136118533416 4.0512598445961565 a26.284306059759842,26.284306059759842 0 0,0 -0.3493683319882267,0.28750635235136573 l -3.322575151320424 -4.1090613158047" fill="#ff3705" stroke="none" /><path d="M 112.92097659922987 116.55440617244103 l 2.626772120703534 3.3654307996473265 a25.26919854789165,25.26919854789165 0 0,0 -0.34519081511352573,0.2646775973375751 l -2.5684525770965143 -3.410147738812273" fill="#ff2803" stroke="none" /><path d="M 112.34349029814194 116.9893568818739 l 3.447973567503875 4.745728480574826 a26.866043004747276,26.866043004747276 0 0,0 -0.37647344119684584,0.26860380430412684 l -3.365772798458145 -4.804376546723172" fill="#ff3f05" stroke="none" /><path d="M 112.04921762599082 117.19931262002967 l 2.9296994657777753 4.181916084406547 a26.10603183468305,26.10603183468305 0 0,0 -0.37026199294172313,0.2546695749744235 l -2.8572805882131687 -4.231726448746064" fill="#ff3404" stroke="none" /><path d="M 111.7513745106137 117.40417183066458 l 0.8466502719179931 1.2539168758200105 a22.512985199664897,22.512985199664897 0 0,0 -0.32303485940722637,0.21408989026261618 l -0.8249407137708026 -1.268304787173945" fill="#ff0000" stroke="none" /><path d="M 111.1453310114006 117.79835938074945 l 4.863671815558704 7.766963475089967 a30.16411616866797,30.16411616866797 0 0,0 -0.4424369140765662,0.27178088890669405 l -4.729255701549829 -7.849532830825039" fill="#ff6d0a" stroke="none" /><line stroke="#e1ed5e" stroke-width="0.3" x1="143.8653032363475" x2="146.44561519142675" y1="172.8068346515853" y2="177.08958963109032" /><path d="M 144.38136562736335 173.6633856474863 a86.0,86.0 0 0,1 -40.68145358897372,12.25698825130547" fill="none" id="id150" stroke="none" /><text fill="#e1ed5e" style="font-size:6.75px; font-family:Arial;" text-anchor="middle"><textPath startOffset="21.466115282336833" xlink:href="#id150">June</textPath></text><path d="M 110.5260780823613 118.17145234162733 l 2.7686436598090207 4.779584183350679 a26.523568835520805,26.523568835520805 0 0,0 -0.3970341223379248,0.22544633661755795 l -2.6859607705498965 -4.826533685762866" fill="#ff3a05" stroke="none" /><path d="M 109.89434966115114 118.52300852407294 l 2.507158023604731 4.693598976471312 a26.32125104719352,26.32125104719352 0 0,0 -0.40147315082381374,0.21003177771810477 l -2.4259939702544218 -4.736060173134134" fill="#ff3705" stroke="none" /><path d="M 109.57404056367764 118.69057910512821 l 3.006692548984047 5.869708255131861 a27.59497347109746,27.59497347109746 0 0,0 -0.42462894498966836,0.21291776817011676 l -2.905209696311618 -5.92059386421128" fill="#ff4906" stroke="none" /><path d="M 108.92500713936063 119.00905698771935 l 3.740726952098957 7.967242008619929 a29.80170343479475,29.80170343479475 0 0,0 -0.46622920757038566,0.214022962096975 l -3.603029748761152 -8.030452041050978" fill="#ff6809" stroke="none" /><path d="M 108.59647513512805 119.15986991738527 l 2.654560794310135 5.9164993450557475 a27.484724937168387,27.484724937168387 0 0,0 -0.4333154375911867,0.1899527538730942 l -2.5523246820611942 -5.961316652223296" fill="#ff4806" stroke="none" /><path d="M 107.93186726928326 119.44442032107085 l 2.041553214771959 5.00472555429517 a26.40511030438425,26.40511030438425 0 0,0 -0.4223295255253529,0.16805363409460866 l -1.9551026132047398 -5.039126032795847" fill="#ff3805" stroke="none" /><path d="M 107.2578585660854 119.70592522655815 l 2.230256231812449 6.055403551886229 a27.45305780508238,27.45305780508238 0 0,0 -0.44484469390336767,0.15950548041762935 l -2.1256919772793466 -6.092896573343819" fill="#ff4706" stroke="none" /><path d="M 106.57524785965236 119.94407469862006 l 2.2287170768070483 6.760155785865688 a28.118067578888578,28.118067578888578 0 0,0 -0.46097383260484753,0.14758926412623258 l -2.1120218991112605 -6.797517896651628" fill="#ff5107" stroke="none" /><path d="M 106.2309692047433 120.05430185196036 l 3.0417082565796627 9.789702615864813 a31.25135437028763,31.25135437028763 0 0,0 -0.5150893252472734,0.15519218835483883 l -2.8727439568921436 -9.840610173325379" fill="#ff7c0b" stroke="none" /><path d="M 105.53697534728816 120.25689768951611 l 1.4628685775116799 5.3518712382159155 a26.548198827143256,26.548198827143256 0 0,0 -0.44184996267748394,0.11669659105494136 l -1.3705281720226985 -5.376259178574441" fill="#ff3a05" stroke="none" /><path d="M 104.83641907484287 120.43548508189849 l 1.493468922915733 6.3104047482723695 a27.484724937168387,27.484724937168387 0 0,0 -0.4613243685633996,0.10499592434183432 l -1.3846244049594714 -6.335177406191888" fill="#ff4806" stroke="none" /><path d="M 104.13013068566511 120.58985236759428 l 1.394856199732862 6.953746845397517 a28.0922647305222,28.0922647305222 0 0,0 -0.4749363694933558,0.09102268557148792 l -1.2749522156678017 -6.976726729317473" fill="#ff5007" stroke="none" /><path d="M 103.7750983002368 120.6578951692458 l 1.899356215452851 10.393557589061759 a31.56567997765987,31.56567997765987 0 0,0 -0.5353404471536991,0.0930757987698911 l -1.720166796827102 -10.424711966352655" fill="#ff800b" stroke="none" /><path d="M 103.06178313531738 120.77559828337769 l 0.9013492826728791 6.116066939496445 a27.18212789723541,27.18212789723541 0 0,0 -0.46348299193823056,0.06423451941599792 l -0.7959376995478181 -6.130676024405045" fill="#ff4306" stroke="none" /><path d="M 102.34483914955558 120.86867818915974 l 0.6266436934165589 5.577024581688318 a26.612119519687237,26.612119519687237 0 0,0 -0.45565955783406176,0.047230976249027744 l -0.5305515389768946 -5.586984926393104" fill="#ff3b05" stroke="none" /><path d="M 101.62511606390274 120.93702456842531 l 0.6063439187323207 7.811772836043859 a28.835269477799496,28.835269477799496 0 0,0 -0.4951939036509136,0.03415147086818605 l -0.4717872543024768 -7.821052651428331" fill="#ff5b08" stroke="none" /><path d="M 101.26447882468166 120.96189622390904 l 0.6281433625317536 10.413045851078406 a31.431974308852276,31.431974308852276 0 0,0 -0.5403484647055545,0.027929843545175668 l -0.4488068294127196 -10.422315501385784" fill="#ff7e0b" stroke="none" /><line stroke="#e1ed5e" stroke-width="0.3" x1="102.19456741930631" x2="102.32365962044197" y1="184.97166512339345" y2="189.96999836594603" /><path d="M 102.22038585953345 185.97133177190398 a86.0,86.0 0 0,1 -42.740103519485714,-10.115201625700543" fill="none" id="id151" stroke="none" /><text fill="#e1ed5e" style="font-size:6.75px; font-family:Arial;" text-anchor="middle"><textPath startOffset="22.20632615414155" xlink:href="#id151">July</textPath></text><path d="M 100.54218724476979 120.99299961872073 l 0.15367775857060645 5.950263784697444 a26.95224797542586,26.95224797542586 0 0,0 -0.46388708887274455,0.007986236924038593 l -0.05123097980519397 -5.952027498900643" fill="#ff4006" stroke="none" /><path d="M 99.81925306533755 120.99922214144158 l -0.055511164127830366 6.449300338217662 a27.4495392348506,27.4495392348506 0 0,0 -0.4724461892070371,-0.008133589598355058 l 0.1665170432275354 -6.447389271340147" fill="#ff4706" stroke="none" /><path d="M 99.09653310690486 120.98055641714683 l -0.1403514751825816 3.2592805179722926 a24.26230103323094,24.26230103323094 0 0,0 -0.41709429336857645,-0.021559010746367523 l 0.19643383696464697 -3.256381700463723" fill="#ff1a02" stroke="none" /><path d="M 98.01472825383883 120.90594882070398 l -0.612157794501863 6.446341437537375 a27.47534208321698,27.47534208321698 0 0,0 -0.47043987667787607,-0.04876301673026244 l 0.7230302677853324 -6.4348490523513515" fill="#ff4806" stroke="none" /><path d="M 97.2962882734958 120.8252237178851 l -0.830819431400507 6.39935106929929 a27.45305780508238,27.45305780508238 0 0,0 -0.46810262307120054,-0.06487475819684987 l 0.9408506456585386 -6.3841017456098355" fill="#ff4706" stroke="none" /><path d="M 96.58105272829116 120.7198165907248 l -1.23916550235993 7.509703980201539 a28.611253839709576,28.611253839709576 0 0,0 -0.48523464202318217,-0.08436426228814937 l 1.3682491158551622 -7.487261139392383" fill="#ff5708" stroke="none" /><path d="M 96.22490169976321 120.6578951692458 l -1.5819359143634002 8.656586844727801 a29.79994414967886,29.79994414967886 0 0,0 -0.5038069170043212,-0.09655579471444412 l 1.7307104459394165 -8.62807385166489" fill="#ff6809" stroke="none" /><path d="M 95.51606077576429 120.51570834832081 l -1.3337872274939635 6.102578199561949 a27.246635018151355,27.246635018151355 0 0,0 -0.4573280876545327,-0.10408638381774696 l 1.4386354645413588 -6.078715082166514" fill="#ff4406" stroke="none" /><path d="M 94.81253420990036 120.34920634021253 l -1.5939035489658295 6.252508164237881 a27.452471376710417,27.452471376710417 0 0,0 -0.45690005307639636,-0.12067145671743738 l 1.701294044853715 -6.2241453582168615" fill="#ff4706" stroke="none" /><path d="M 94.11515582081647 120.15858648285463 l -2.136193506987065 7.317550005323299 a28.62298240714884,28.62298240714884 0 0,0 -0.4717681198700374,-0.14213986454394414 l 2.261836601297348 -7.27969477167363" fill="#ff5808" stroke="none" /><path d="M 93.42475214034765 119.94407469862007 l -1.2403183270581304 3.7621397539563977 a24.961323652611004,24.961323652611004 0 0,0 -0.4069055520113651,-0.13804445581349883 l 1.3048936120067212 -3.7402323112447755" fill="#ff2403" stroke="none" /><path d="M 93.08242187328487 119.8279376855182 l -1.9110751300640247 5.4777377135669205 a26.80153588383133,26.80153588383133 0 0,0 -0.43428754315944157,-0.155720061766289 l 2.005082233853193 -5.444030110760674" fill="#ff3e05" stroke="none" /><path d="M 92.40401165467489 119.57807347666478 l -2.357280605462106 6.075708755827303 a27.51697849762636,27.51697849762636 0 0,0 -0.44011300611247955,-0.175130048029437 l 2.4615146876164435 -6.034231863391799" fill="#ff4806" stroke="none" /><path d="M 91.7346041902142 119.30500536409082 l -3.5618985796317895 8.319319820682756 a30.049762636135156,30.049762636135156 0 0,0 -0.473755006679361,-0.20768027255195978 l 3.7045742609688936 -8.256774994836345" fill="#ff6b09" stroke="none" /><path d="M 91.40352486487194 119.15986991738527 l -3.361771510537092 7.492734384894258 a29.212342920971796,29.212342920971796 0 0,0 -0.45700902705506197,-0.20979042944368667 l 3.490248533359573 -7.433756885116497" fill="#ff6008" stroke="none" /><path d="M 90.7491055286396 118.85261126421891 l -2.6812352336847103 5.464151139662889 a27.086540072605416,27.086540072605416 0 0,0 -0.41680521804079795,-0.20899478906004593 l 2.7748943594082687 -5.41718850969354" fill="#ff4206" stroke="none" /><path d="M 90.10565033884886 118.52300852407294 l -6.1394149531074635 11.493472477098592 a34.03043842502095,34.03043842502095 0 0,0 -0.5143088027719294,-0.2804421663887403 l 6.336346567748033 -11.386089658950086" fill="#ffa10e" stroke="none" /><line stroke="#e1ed5e" stroke-width="0.3" x1="58.666819895761336" x2="56.23545636021788" y1="174.27360380694188" y2="178.64263932499728" /><path d="M 58.180547188652646 175.14741091055294 a86.0,86.0 0 0,1 -31.652253787137756,-30.449443065178592" fill="none" id="id152" stroke="none" /><text fill="#e1ed5e" style="font-size:6.75px; font-family:Arial;" text-anchor="middle"><textPath startOffset="22.20632615414155" xlink:href="#id152">August</textPath></text><path d="M 88.8546689885994 117.79835938074946 l -2.320569338760202 3.7057963569636394 a25.372409941357162,25.372409941357162 0 0,0 -0.3681635730979561,-0.23497941140768744 l 2.3840147139050814 -3.665302516732148" fill="#ff2a04" stroke="none" /><path d="M 88.54995079064634 117.60387380957326 l -3.42798038462666 5.270347140810804 a27.28709857581681,27.28709857581681 0 0,0 -0.391537771374779,-0.2594898849650897 l 3.5181928547414008 -5.210559234754395" fill="#ff4506" stroke="none" /><path d="M 87.95078237400918 117.19931262002967 l -4.710332240889291 6.723629638866113 a29.20941077911198,29.20941077911198 0 0,0 -0.40931101723470514,-0.2920325429154226 l 4.825370585972883 -6.641552834106471" fill="#ff6008" stroke="none" /><path d="M 87.36589467227662 116.77436683061367 l -4.351198576007047 5.777108799831287 a28.23242111142139,28.23242111142139 0 0,0 -0.38567002580670395,-0.29571532997500927 l 4.449997330307237 -5.70135412802891" fill="#ff5207" stroke="none" /><path d="M 87.07902340077011 116.55440617244103 l -5.413387654796032 6.935653610866595 a29.79818486456297,29.79818486456297 0 0,0 -0.401626331263694,-0.3190762476307539 l 5.531971478777084 -6.84144344923071" fill="#ff6809" stroke="none" /><path d="M 86.51685102203217 116.09983520530335 l -3.7678266356471424 4.499051965916521 a26.86838871823513,26.86838871823513 0 0,0 -0.35202006310161965,-0.2999991346873787 l 3.8447121753258187 -4.433528441006191" fill="#ff3f05" stroke="none" /><line stroke="#e1ed5e" stroke-width="0.3" x1="26.63291911575756" x2="22.317208475507996" y1="142.92168965132927" y2="145.44649492493687" /><path d="M 25.769776987707644 143.4266507060508 a86.0,86.0 0 0,1 -11.730757126820373,-40.83630448921669" fill="none" id="id153" stroke="none" /><text fill="#e1ed5e" style="font-size:6.75px; font-family:Arial;" text-anchor="middle"><textPath startOffset="21.46611528233685" xlink:href="#id153">September</textPath></text><line stroke="#e1ed5e" stroke-width="0.3" x1="15.007084014347285" x2="10.007500721073583" y1="101.09737516637583" y2="101.16192664675087" /><path d="M 14.007167355692545 101.11028546245083 a86.0,86.0 0 0,1 10.666146001902534,-42.60595125391555" fill="none" id="id154" stroke="none" /><text fill="#e1ed5e" style="font-size:6.75px; font-family:Arial;" text-anchor="middle"><textPath startOffset="22.20632615414155" xlink:href="#id154">October</textPath></text><line stroke="#e1ed5e" stroke-width="0.3" x1="26.266209847984243" x2="21.928928074336255" y1="57.711370442889674" y2="55.22380399835377" /><path d="M 25.398753493254645 57.213857153982495 a86.0,86.0 0 0,1 29.58750427330803,-30.492523968695096" fill="none" id="id155" stroke="none" /><text fill="#e1ed5e" style="font-size:6.75px; font-family:Arial;" text-anchor="middle"><textPath startOffset="21.46611528233685" xlink:href="#id155">November</textPath></text><line stroke="#e1ed5e" stroke-width="0.3" x1="56.762969772571076" x2="54.21961505331055" y1="26.818313649435495" y2="22.513508569990535" /><path d="M 56.25429882871897 25.957352633546506 a86.0,86.0 0 0,1 42.265352541879196,-11.944610805530505" fill="none" id="id156" stroke="none" /><text fill="#e1ed5e" style="font-size:6.75px; font-family:Arial;" text-anchor="middle"><textPath startOffset="22.20632615414155" xlink:href="#id156">December</textPath></text></svg>