<?xml version="1.0" encoding="utf-8" ?>
<svg baseProfile="full" height="200mm" version="1.1" viewBox="0,0,200,200" width="200mm" xmlns="http://www.w3.org/2000/svg" xmlns:ev="http://www.w3.org/2001/xml-events" xmlns:xlink="http://www.w3.org/1999/xlink"><defs /><rect fill="#1a1a1a" height="200" width="200" x="0" y="0" /><text alignment-baseline="middle" fill="#e1ed5e" style="dominant-baseline: central; font-size:9.0px; font-family:Arial;" text-anchor="middle" x="100.0" y="100.0">2016</text><line stroke="#e1ed5e" stroke-width="0.3" x1="100.0" x2="100.0" y1="15.0" y2="10.0" /><path d="M 100.0 14.0 a86.0,86.0 0 0,1 42.35913384403234,11.155469271406648" fill="none" id="id37" stroke="none" /><text fill="#e1ed5e" style="font-size:6.75px; font-family:Arial;" text-anchor="middle"><textPath startOffset="22.145653131862478" xlink:href="#id37">January</textPath></text><path d="M 102.15924093988457 79.11130261209362 l 3.638800254474864 -35.20209160855646 a56.389661214953264,56.389661214953264 0 0,0 0.962018625438655,0.10779619355923145 l -4.242554781514316 35.13443965449026" fill="red" stroke="none" /><path d="M 103.58742460773223 79.30868818359171 l 6.812634280938755 -39.29346414534545 a60.879672897196265,60.879672897196265 0 0,0 1.02818597187661,0.18736973475271063 l -7.486154986366419 39.17072623666137" fill="red" stroke="none" /><line stroke="#e1ed5e" stroke-width="0.3" x1="143.13028292997686" x2="145.6673583964461" y1="26.7553504044142" y2="22.446841604673864" /><path d="M 143.63769802327073 25.89364864446614 a86.0,86.0 0 0,1 29.32050498858742,28.57503671076993" fill="none" id="id38" stroke="none" /><text fill="#e1ed5e" style="font-size:6.75px; font-family:Arial;" text-anchor="middle"><textPath startOffset="20.669276256404974" xlink:href="#id38">February</textPath></text><path d="M 110.65571695917076 81.90426304109057 l 19.318733044076026 -32.80743218729384 a59.072838785046734,59.072838785046734 0 0,0 0.8694037831248324,0.522051991766824 l -19.879069583758294 32.4709661949911" fill="red" stroke="none" /><path d="M 114.39649973595853 84.71141617570332 l 15.446084333697755 -16.403206294864766 a43.53101635514018,43.53101635514018 0 0,0 0.5396343464519089,0.51695749687816 l -15.725391166014976 16.135636667681027" fill="red" stroke="none" /><path d="M 116.1254893667686 86.54754324733833 l 20.617724534572087 -17.20003910152358 a47.85017523364486,47.85017523364486 0 0,0 0.5207766547446943,0.635262841688922 l -20.90994800855541 16.84357397813616" fill="red" stroke="none" /><path d="M 117.62189284568427 88.57770195909679 l 21.748862510295208 -14.09734991687109 a46.91810747663551,46.91810747663551 0 0,0 0.4322773209106682,0.6796117478261373 l -21.987657522831764 13.72192449436628" fill="red" stroke="none" /><line stroke="#e1ed5e" stroke-width="0.3" x1="172.87174338648825" x2="177.1583165268699" y1="56.24261187166439" y2="53.66864786411523" /><path d="M 173.72905801456457 55.72781907015455 a86.0,86.0 0 0,1 12.242430191666344,42.057860355516425" fill="none" id="id39" stroke="none" /><text fill="#e1ed5e" style="font-size:6.75px; font-family:Arial;" text-anchor="middle"><textPath startOffset="22.145653131862474" xlink:href="#id39">March</textPath></text><path d="M 119.0197475246899 91.09779779509293 l 22.894640180024542 -10.715847622403789 a46.27832943925233,46.27832943925233 0 0,0 0.33059373125922226,0.7224069654707357 l -23.075218376138814 10.321251674718368" fill="red" stroke="none" /><path d="M 119.71291397450082 92.76114493625339 l 50.37600293538805 -18.498766058222092 a74.6651285046729,74.6651285046729 0 0,0 0.43149272852258236,1.206961957364916 l -50.68613583395458 17.63126914447626" fill="red" stroke="none" /><path d="M 119.83427380445688 93.10060997987247 l 46.3674147003306 -16.128993750741216 a70.09258177570094,70.09258177570094 0 0,0 0.3855578587964108,1.1398333003897507 l -46.637457980699374 15.330658775877303" fill="red" stroke="none" /><path d="M 120.43855184770803 95.1765574152323 l 53.97660545041239 -12.73833191562051 a76.45934579439253,76.45934579439253 0 0,0 0.2905059679428116,1.2800228967043772 l -54.18732227991287 11.809874684977107" fill="red" stroke="none" /><path d="M 120.592083275326 95.88100663000786 l 34.06096217666469 -6.813146368213379 a55.73568925233645,55.73568925233645 0 0,0 0.17961146399595931,0.9398030762072664 l -34.172899932942805 6.227440726972798" fill="red" stroke="none" /><path d="M 120.86939407059847 97.66154086499901 l 24.805044154005724 -2.779456935827271 a45.96028037383178,45.96028037383178 0 0,0 0.08112560163475155,0.7848166046030771 l -24.849102148122142 2.3532358089412626" fill="red" stroke="none" /><path d="M 120.93736805541906 98.37931529534042 l 31.633001691806744 -2.448594392030694 a52.7276285046729,52.7276285046729 0 0,0 0.06210822220788369,0.9030399200215705 l -31.670373875179692 1.9052110478547895" fill="red" stroke="none" /><line stroke="#e1ed5e" stroke-width="0.3" x1="184.99686870605535" x2="189.99668451229388" y1="99.2704041080226" y2="99.22748670261217" /><path d="M 185.99683186730306 99.26182062694052 a86.0,86.0 0 0,1 -10.086455211305974,41.156179273409016" fill="none" id="id40" stroke="none" /><text fill="#e1ed5e" style="font-size:6.75px; font-family:Arial;" text-anchor="middle"><textPath startOffset="21.40746469413373" xlink:href="#id40">April</textPath></text><path d="M 120.96210409425399 101.26102812881392 l 28.10835545248787 1.6909288648176888 a49.15917056074767,49.15917056074767 0 0,0 -0.05790491200399021,0.8419247121567195 l -28.075186579318814 -2.173197001128752" fill="red" stroke="none" /><path d="M 120.86939407059847 102.33845913500097 l 53.32718791112329 5.975422635311043 a74.66092289719626,74.66092289719626 0 0,0 -0.1536518726449967,1.272457923411448 l -53.21675395221863 -6.889974235645899" fill="red" stroke="none" /><path d="M 120.43855184770803 104.8234425847677 l 53.33755960784428 12.587518836806058 a75.80274532710281,75.80274532710281 0 0,0 -0.30975338444638034,1.263899512142888 l -53.1136186968816 -13.501274173557047" fill="red" stroke="none" /><path d="M 119.16976305983485 108.57439118712176 l 29.124155209480392 13.026864180901695 a52.904789719626166,52.904789719626166 0 0,0 -0.37793049245335464,0.8258463316051675 l -28.89624025217198 -13.524899494721552" fill="red" stroke="none" /><line stroke="#e1ed5e" stroke-width="0.3" x1="174.33088141563837" x2="178.70328620479359" y1="141.23008692659167" y2="143.65538615756765" /><path d="M 175.20536237346943 141.71514677278685 a86.0,86.0 0 0,1 -30.301960400862466,31.631185727798858" fill="none" id="id41" stroke="none" /><text fill="#e1ed5e" style="font-size:6.75px; font-family:Arial;" text-anchor="middle"><textPath startOffset="22.145653131862474" xlink:href="#id41">May</textPath></text><path d="M 118.18653347947321 110.5 l 20.257710122729648 11.695794392523363 a44.391588785046736,44.391588785046736 0 0,0 -0.3866851732330341,0.6566759616032353 l -20.05395123936685 -12.041821522420147" fill="red" stroke="none" /><path d="M 118.00360718960297 110.81064883170644 l 46.70106259831067 28.042646259769366 a75.47365654205608,75.47365654205608 0 0,0 -0.6765028571859466,1.1050165760497739 l -46.21279177666932 -28.8401999519437" fill="red" stroke="none" /><path d="M 117.62189284568427 111.42229804090321 l 35.93269230003035 23.291137022407497 a63.82096962616822,63.82096962616822 0 0,0 -0.6037936642429634,0.9142205641649055 l -35.52757419686666 -23.904537464911463" fill="red" stroke="none" /><path d="M 116.57777611688842 112.89097897827486 l 41.77242683405301 32.48249176442454 a73.91547897196263,73.91547897196263 0 0,0 -0.7874939972017044,0.9949729400651177 l -41.20866640620974 -33.19478464840434" fill="red" stroke="none" /><path d="M 115.89218393027572 113.72728997021213 l 33.193764813246446 28.671983460145658 a64.8623831775701,64.8623831775701 0 0,0 -0.7350728362638308,0.8363779522088239 l -32.69668091302403 -29.237573690165775" fill="red" stroke="none" /><path d="M 114.91283532996324 114.78537596483092 l 35.83784294073294 35.531538431371125 a71.466238317757,71.466238317757 0 0,0 -0.8712349736792049,0.8637885656575763 l -35.22261604692377 -36.14150700725737" fill="red" stroke="none" /><path d="M 113.03279911837588 116.46651593811092 l 39.098397355127624 49.39954781433276 a84.0,84.0 0 0,0 -1.1383602214590773,0.8851957935168273 l -38.24462718903332 -50.063444659470385" fill="red" stroke="none" /><path d="M 110.96478420261333 117.91015095944535 l 27.651677918172552 45.16693777506319 a73.9591121495327,73.9591121495327 0 0,0 -1.0884923295007367,0.6536083689403218 l -26.872252832114377 -45.634960144539434" fill="red" stroke="none" /><line stroke="#e1ed5e" stroke-width="0.3" x1="143.1302829299769" x2="145.66735839644613" y1="173.24464959558577" y2="177.55315839532614" /><path d="M 143.63769802327073 174.10635135553383 a86.0,86.0 0 0,1 -40.68552437913181,11.842963189579606" fill="none" id="id42" stroke="none" /><text fill="#e1ed5e" style="font-size:6.75px; font-family:Arial;" text-anchor="middle"><textPath startOffset="21.407464694133747" xlink:href="#id42">June</textPath></text><path d="M 108.07796709384702 119.3841803445677 l 17.60921331439083 42.2557015455179 a66.77803738317758,66.77803738317758 0 0,0 -1.061915603550958,0.43187183129809475 l -16.88124324964943 -42.55176063339529" fill="red" stroke="none" /><path d="M 101.08105385017728 120.97215588758144 l 1.9744207310055266 38.303234710768535 a59.354088785046734,59.354088785046734 0 0,0 -1.0179911325421447,0.04371691937761269 l -1.3166038378625524 -38.33148419857198" fill="red" stroke="none" /><line stroke="#e1ed5e" stroke-width="0.3" x1="101.45913802915013" x2="101.54496967792366" y1="184.9874750549273" y2="189.98673829345242" /><path d="M 101.47630435890484 185.9873277026323 a86.0,86.0 0 0,1 -42.54439059252881,-10.42667462771756" fill="none" id="id43" stroke="none" /><text fill="#e1ed5e" style="font-size:6.75px; font-family:Arial;" text-anchor="middle"><textPath startOffset="22.145653131862474" xlink:href="#id43">July</textPath></text><path d="M 98.55909050195518 120.95050786540614 l -1.4912764029789807 21.682831609132652 a42.734053738317755,42.734053738317755 0 0,0 -0.7314258996425061,-0.05661699049301787 l 1.863271297396723 -21.65403685164458" fill="red" stroke="none" /><path d="M 91.26138138417905 119.09545874513695 l -10.750382208877399 23.491525261488626 a46.834521028037386,46.834521028037386 0 0,0 -0.7281904617179638,-0.340829904575909 l 11.152061384466853 -23.303519125342188" fill="red" stroke="none" /><line stroke="#e1ed5e" stroke-width="0.3" x1="58.13341422392154" x2="55.67067388415222" y1="173.97424548756322" y2="178.32567169271397" /><path d="M 57.64086615596768 174.84453072859336 a86.0,86.0 0 0,1 -31.369924170532247,-30.572349798747897" fill="none" id="id44" stroke="none" /><text fill="#e1ed5e" style="font-size:6.75px; font-family:Arial;" text-anchor="middle"><textPath startOffset="22.145653131862474" xlink:href="#id44">August</textPath></text><path d="M 89.34428304082925 118.09573695890944 l -8.440458845679592 14.333744380519331 a37.634228971962614,37.634228971962614 0 0,0 -0.5538813051167187,-0.3325898094200841 l 8.685272907353738 -14.186740570563328" fill="red" stroke="none" /><line stroke="#e1ed5e" stroke-width="0.3" x1="26.387840678322732" x2="22.057713659400548" y1="142.50000000000003" y2="145.00000000000006" /><path d="M 25.521815274538298 143.00000000000003 a86.0,86.0 0 0,1 -11.493303480769221,-40.785679425670985" fill="none" id="id45" stroke="none" /><text fill="#e1ed5e" style="font-size:6.75px; font-family:Arial;" text-anchor="middle"><textPath startOffset="21.40746469413373" xlink:href="#id45">September</textPath></text><line stroke="#e1ed5e" stroke-width="0.3" x1="15.003131293944662" x2="10.003315487706104" y1="100.72959589197737" y2="100.7725132973878" /><path d="M 14.003168132696942 100.73817937305945 a86.0,86.0 0 0,1 10.791469493833604,-42.45332614584628" fill="none" id="id46" stroke="none" /><text fill="#e1ed5e" style="font-size:6.75px; font-family:Arial;" text-anchor="middle"><textPath startOffset="22.145653131862435" xlink:href="#id46">October</textPath></text><line stroke="#e1ed5e" stroke-width="0.3" x1="26.387840678322718" x2="22.05771365940052" y1="57.49999999999999" y2="54.99999999999999" /><path d="M 25.521815274538284 56.99999999999999 a86.0,86.0 0 0,1 29.574782752854787,-30.34633250058573" fill="none" id="id47" stroke="none" /><text fill="#e1ed5e" style="font-size:6.75px; font-family:Arial;" text-anchor="middle"><textPath startOffset="21.40746469413373" xlink:href="#id47">November</textPath></text><line stroke="#e1ed5e" stroke-width="0.3" x1="56.869717070023135" x2="54.33264160355391" y1="26.7553504044142" y2="22.446841604673864" /><path d="M 56.362301976729285 25.89364864446614 a86.0,86.0 0 0,1 42.16139366436587,-11.88097634709845" fill="none" id="id48" stroke="none" /><text fill="#e1ed5e" style="font-size:6.75px; font-family:Arial;" text-anchor="middle"><textPath startOffset="22.145653131862474" xlink:href="#id48">December</textPath></text></svg>