<?xml version="1.0" encoding="utf-8" ?>
<svg baseProfile="full" height="200mm" version="1.1" viewBox="0,0,200,200" width="200mm" xmlns="http://www.w3.org/2000/svg" xmlns:ev="http://www.w3.org/2001/xml-events" xmlns:xlink="http://www.w3.org/1999/xlink"><defs /><rect fill="#1a1a1a" height="200" width="200" x="0" y="0" /><text alignment-baseline="middle" fill="#e1ed5e" style="dominant-baseline: central; font-size:9.0px; font-family:Arial;" text-anchor="middle" x="100.0" y="100.0">2022</text><line stroke="#e1ed5e" stroke-width="0.3" x1="100.0" x2="100.0" y1="15.0" y2="10.0" /><path d="M 100.0 14.0 a86.0,86.0 0 0,1 42.46469731375804,11.215312516191453" fill="none" id="id109" stroke="none" /><text fill="#e1ed5e" style="font-size:6.75px; font-family:Arial;" text-anchor="middle"><textPath startOffset="22.20632615414155" xlink:href="#id109">January</textPath></text><path d="M 102.52436894288641 79.15227682838746 l 0.803499731194638 -6.635773273797833 a27.684242571846077,27.684242571846077 0 0,0 0.4725901530677565,0.0613557652964052 l -0.9176046127702405 6.62095918533729" fill="#ff2103" stroke="none" /><path d="M 102.88285421437855 79.19881850522331 l 1.3652256260828803 -9.850760363750052 a30.944914316078467,30.944914316078467 0 0,0 0.5269933932098585,0.0776651272201682 l -1.5345879997213947 9.825800752368915" fill="#ff5207" stroke="none" /><path d="M 103.59715602781102 79.31037775812273 l 1.5707876379817651 -9.03463808653025 a30.170172253464997,30.170172253464997 0 0,0 0.5108885928808591,0.09336162483127272 l -1.726071351965525 9.00626098034824" fill="#ff4706" stroke="none" /><path d="M 104.307194497241 79.44645832069477 l 1.941515308552437 -9.264735047582139 a30.46598104769074,30.46598104769074 0 0,0 0.5123468034663194,0.11197916686422635 l -2.1007048361722847 9.229942382622042" fill="#ff4b07" stroke="none" /><path d="M 105.01212808612495 79.60689891045804 l 2.396051888364365 -9.748938481933331 a31.039066997298853,31.039066997298853 0 0,0 0.517748060603037,0.13198550878916968 l -2.563508837652427 9.706249976975295" fill="#ff5307" stroke="none" /><path d="M 106.0581310904928 79.89281104454417 l 2.814581545393689 -9.341713165068912 a30.756509321170793,30.756509321170793 0 0,0 0.5055998524774903,0.15709233529872751 l -2.9749667705818976 9.291880694887665" fill="#ff4f07" stroke="none" /><line stroke="#e1ed5e" stroke-width="0.3" x1="143.23703022742887" x2="145.7803849466894" y1="26.81831364943548" y2="22.513508569990506" /><path d="M 143.74570117128098 25.957352633546492 a86.0,86.0 0 0,1 28.547481713284135,27.462654790039103" fill="none" id="id110" stroke="none" /><text fill="#e1ed5e" style="font-size:6.75px; font-family:Arial;" text-anchor="middle"><textPath startOffset="19.985693538727396" xlink:href="#id110">February</textPath></text><path d="M 112.77801427241765 83.33499621200491 l 4.953833754165596 -6.460758026892373 a29.14136740025683,29.14136740025683 0 0,0 0.39544480986721253,0.30865094654299763 l -5.064311119192239 6.374528691126152" fill="#ff3705" stroke="none" /><path d="M 113.34407831869373 83.78471172551755 l 5.291993483947897 -6.430657692460101 a29.328178275694107,29.328178275694107 0 0,0 0.38705159827752245,0.3241445825493492 l -5.401902619184536 6.338611952516932" fill="#ff3a05" stroke="none" /><path d="M 113.89432698308785 84.25364557470407 l 10.501563511877338 -11.901356667296925 a36.872149404419254,36.872149404419254 0 0,0 0.4722953835003733,0.4240314585701814 l -10.704869882973702 11.718826199957446" fill="#ffa70f" stroke="none" /><path d="M 114.68862486808459 84.99185889309783 l 3.653642236815014 -3.7331185687369177 a26.223530974626932,26.223530974626932 0 0,0 0.3198823728048924,0.3185086962377849 l -3.717360409787229 3.669674021849014" fill="#ff0b01" stroke="none" /><line stroke="#e1ed5e" stroke-width="0.3" x1="172.23445277983987" x2="176.4835382374775" y1="55.19839476539836" y2="52.563006222186495" /><path d="M 173.08426987136738 54.67131705675599 a86.0,86.0 0 0,1 12.851231095245387,41.99856678651699" fill="none" id="id111" stroke="none" /><text fill="#e1ed5e" style="font-size:6.75px; font-family:Arial;" text-anchor="middle"><textPath startOffset="22.20632615414155" xlink:href="#id111">March</textPath></text><path d="M 120.45610955862082 95.25157060432595 l 5.835544541441193 -1.3545914564515482 a26.990700969756013,26.990700969756013 0 0,0 0.10115807928901646,0.4534718343466134 l -5.857997007732247 1.253941452554971" fill="#ff1702" stroke="none" /><path d="M 120.6074358757038 95.95851677861258 l 8.901859311272169 -1.7458123010866453 a30.07143647876721,30.07143647876721 0 0,0 0.09524665849408814,0.5088114582427613 l -8.930591693676115 1.5923227653813212" fill="#ff4506" stroke="none" /><path d="M 120.73433829027371 96.67025291283417 l 9.217953942077632 -1.4803199821746804 a30.3360603108533,30.3360603108533 0 0,0 0.0783596422920834,0.5162921372202999 l -9.242069477809014 1.3214287325622982" fill="#ff4906" stroke="none" /><path d="M 120.83666639777658 97.38593545837742 l 6.41852391752538 -0.80523609017179 a27.468837178408535,27.468837178408535 0 0,0 0.054819489026142594,0.46965990427822235 l -6.4314337595551105 0.6946324475687149" fill="#ff1e03" stroke="none" /><path d="M 120.98425023603335 99.18683210126433 l 8.186533704202846 -0.31723918344931684 a29.19267812071027,29.19267812071027 0 0,0 0.015136133287442795,0.5022945753155094 l -8.190781531945934 0.17627446070880837" fill="#ff3805" stroke="none" /><line stroke="#e1ed5e" stroke-width="0.3" x1="184.98032266829074" x2="189.97916517819016" y1="98.17113171792111" y2="98.06355123074" /><path d="M 185.9800911702706 98.14961562048488 a86.0,86.0 0 0,1 -9.607161424134198,41.387399972396054" fill="none" id="id112" stroke="none" /><text fill="#e1ed5e" style="font-size:6.75px; font-family:Arial;" text-anchor="middle"><textPath startOffset="21.466115282336823" xlink:href="#id112">April</textPath></text><path d="M 120.99980553446 99.90962569577887 l 9.271910773501794 -0.039902392599807095 a30.271996634636675,30.271996634636675 0 0,0 -0.002242582248412378,0.5210971361557672 l -9.27122389396388 -0.11970422175964486" fill="#ff4806" stroke="none" /><path d="M 120.9904718944345 100.63252640178507 l 22.191826228382894 0.6687279859106162 a43.201899659035554,43.201899659035554 0 0,0 -0.028796878666801414,0.7431194823362615 l -22.17702721686489 -1.0506247152608839" fill="#fffb17" stroke="none" /><path d="M 120.8583938346157 102.4346265915055 l 14.563640097790316 1.6998924141682101 a35.66251162378781,35.66251162378781 0 0,0 -0.07641710473986604,0.6091195122367663 l -14.532221483803603 -1.9503296806923713" fill="#ff960d" stroke="none" /><path d="M 120.70491114924044 103.5080841355445 l 8.635810829347104 1.463186716891917 a29.758889430102293,29.758889430102293 0 0,0 -0.0899194003035573,0.5043157498655633 l -8.60934498670436 -1.6116212174906985" fill="#ff4006" stroke="none" /><path d="M 120.5718875245553 104.21870165774334 l 8.396837511366996 1.7219495433621443 a29.571580392330517,29.571580392330517 0 0,0 -0.10655057413443329,0.4977688098434581 l -8.36595289850812 -1.8662321726217714" fill="#ff3e05" stroke="none" /><path d="M 120.41448212921028 104.9243191809786 l 10.026962491896358 2.4186733424478155 a31.314550768277023,31.314550768277023 0 0,0 -0.1309077740660777,0.5229114845815066 l -9.98384340353522 -2.5909126664267177" fill="#ff5708" stroke="none" /><path d="M 120.32669344350535 105.2749913415812 l 8.952727996095556 2.323327342648783 a30.2492804321835,30.2492804321835 0 0,0 -0.13513062793429384,0.5028713363709871 l -8.911409291819485 -2.4770896121953183" fill="#ff4806" stroke="none" /><path d="M 120.13307415673323 105.97154293290107 l 8.252113833486456 2.4476069407100938 a29.60744808041447,29.60744808041447 0 0,0 -0.14912739720583545,0.4873569625221264 l -8.208759663774488 -2.589290875784277" fill="#ff3e05" stroke="none" /><path d="M 119.67450827220406 107.3425965602758 l 9.014117395536816 3.364100716860057 a30.621407696054554,30.621407696054554 0 0,0 -0.1885487229523462,0.492241218503915 l -8.954874392990964 -3.518765502197116" fill="#ff4d07" stroke="none" /><path d="M 119.54520255179757 107.68017299344265 l 8.405354509251206 3.3028348788498705 a30.03098569720586,30.03098569720586 0 0,0 -0.1931956028079119,0.47949564231316905 l -8.347256292185902 -3.447029889005853" fill="#ff4406" stroke="none" /><path d="M 119.26925614724726 108.34839909993367 l 7.859290865758156 3.405035269053988 a29.565203914448922,29.565203914448922 0 0,0 -0.2063354388285885,0.46523194359345466 l -7.799514342198295 -3.53981554914013" fill="#ff3e05" stroke="none" /><path d="M 119.12269723197855 108.67885076344098 l 5.117297214746794 2.32248925453308 a26.619669663020854,26.619669663020854 0 0,0 -0.19296140066906986,0.41562169038909674 l -5.0765611972378935 -2.4102310122010073" fill="#ff1101" stroke="none" /><path d="M 118.97047184881838 109.00673069616215 l 6.134283117490711 2.9124123265649944 a27.790550414028253,27.790550414028253 0 0,0 -0.20888799427328394,0.43037113878313216 l -6.083241866602712 -3.0175724213134023" fill="#ff2303" stroke="none" /><path d="M 118.64920377521936 109.65438752849418 l 6.454302546436287 3.3412867788083247 a28.267889562945577,28.267889562945577 0 0,0 -0.22741852568739898,0.43019014569146585 l -6.395831512523994 -3.451891939585925" fill="#ff2a04" stroke="none" /><line stroke="#e1ed5e" stroke-width="0.3" x1="174.80103733775053" x2="179.2010983576182" y1="140.37084112569926" y2="142.7455964860345" /><path d="M 175.68104954172406 140.8457921977663 a86.0,86.0 0 0,1 -30.038265399797805,32.042727171017184" fill="none" id="id113" stroke="none" /><text fill="#e1ed5e" style="font-size:6.75px; font-family:Arial;" text-anchor="middle"><textPath startOffset="22.206326154141568" xlink:href="#id113">May</textPath></text><path d="M 118.30583269289576 110.29060199501025 l 18.646748877939405 10.482247621450549 a42.391090643404326,42.391090643404326 0 0,0 -0.3630453825304671,0.6330002256282317 l -18.463551499256557 -10.801667692937095" fill="#fff116" stroke="none" /><path d="M 117.94076556474637 110.91462005526583 l 3.859600807977521 2.348064592452478 a25.51773457910818,25.51773457910818 0 0,0 -0.23152527394703143,0.3732924608547262 l -3.8186108943625268 -2.414153384672478" fill="#ff0000" stroke="none" /><path d="M 117.55443506779139 111.5257021239791 l 6.3363469674924655 4.160250524694603 a28.580038081742906,28.580038081742906 0 0,0 -0.2735475667463646,0.40891649686457265 l -6.263796295335379 -4.268703935764982" fill="#ff2f04" stroke="none" /><path d="M 117.14729908036423 112.12312394758627 l 9.869586869386017 6.9777884183551 a33.08711198689279,33.08711198689279 0 0,0 -0.3327936506458656,0.4622212737918761 l -9.748013426364547 -7.146643297598108" fill="#ff710a" stroke="none" /><path d="M 116.498646956653 112.99209946851258 l 5.827117626695109 4.5886485127931955 a28.4169397334278,28.4169397334278 0 0,0 -0.30593147942593996,0.3816965596992513 l -5.747268235214315 -4.688272906070697" fill="#ff2c04" stroke="none" /><path d="M 116.27256486870786 113.27417163493432 l 4.574004995278364 3.731195902812413 a26.902825133950316,26.902825133950316 0 0,0 -0.2958080922663642,0.35631990299261906 l -4.509100903118457 -3.8093770629188026" fill="#ff1502" stroke="none" /><path d="M 116.0416608686014 113.55231037782055 l 5.80248207227072 4.902050894185759 a28.595979276446883,28.595979276446883 0 0,0 -0.32089793869778527,0.37327679959887855 l -5.717241624002156 -5.001204792946166" fill="#ff2f04" stroke="none" /><path d="M 115.56566222782051 114.09645910891815 l 12.979984586159258 11.7548369786771 a38.51160164725678,38.51160164725678 0 0,0 -0.44921691225397237,0.487536236834003 l -12.775721265909564 -11.976524470312437" fill="#ffbd11" stroke="none" /><path d="M 115.07121518719521 114.62390073753431 l 8.307683101658048 8.061110635641338 a32.57579816676261,32.57579816676261 0 0,0 -0.3939490162260982,0.39906827355080565 l -8.167693460376414 -8.202919403172809" fill="#ff6a09" stroke="none" /><path d="M 114.81725581225074 114.88116024355365 l 6.758549290188822 6.787697821758692 a30.578665367754503,30.578665367754503 0 0,0 -0.37619045971638226,0.36818154242865897 l -6.640708878096645 -6.903029467109922" fill="#ff4d07" stroke="none" /><path d="M 114.55890576462653 115.13401014063108 l 5.037586219975728 5.2365804250654655 a28.26629544347518,28.26629544347518 0 0,0 -0.35354966226301543,0.33430327312694375 l -4.946700723321905 -5.322518334938331" fill="#ff2a04" stroke="none" /><path d="M 113.75828350139079 115.86535959552629 l 10.790062275100587 12.44255637233295 a37.46944604348404,37.46944604348404 0 0,0 -0.4909113419093345,0.418365295669253 l -10.574285456614204 -12.62644605822515" fill="#ffaf10" stroke="none" /><path d="M 113.48314897796784 116.09983520530334 l 3.4318354658530366 4.09785470309895 a26.345082584244786,26.345082584244786 0 0,0 -0.3501761673914164,0.2881711458910366 l -3.360789169916929 -4.156320967847165" fill="#ff0d01" stroke="none" /><path d="M 113.20401910651253 116.32954008644616 l 4.650841574034499 5.751741443743317 a28.396813975114025,28.396813975114025 0 0,0 -0.3827383536359637,0.30407049587183 l -4.551145727681184 -5.830945853620272" fill="#ff2c04" stroke="none" /><path d="M 112.92097659922987 116.55440617244103 l 4.315254390547833 5.5287209422541705 a28.013428242483286,28.013428242483286 0 0,0 -0.3826784656751168,0.29342152923277737 l -4.219447196379222 -5.60218181331432" fill="#ff2603" stroke="none" /><path d="M 112.63410532772338 116.77436683061366 l 3.9582829977426477 5.255432759280387 a27.579329584200504,27.579329584200504 0 0,0 -0.3816651277594569,0.2823467371919081 l -3.867232899564627 -5.322789445212064" fill="#ff2003" stroke="none" /><path d="M 112.04921762599082 117.19931262002967 l 12.107031857741088 17.28183789898345 a42.100761634858074,42.100761634858074 0 0,0 -0.5971153335750249,0.4107013712212073 l -11.80775963954318 -17.48768005956975" fill="#ffed16" stroke="none" /><path d="M 111.45004920935366 117.60387380957326 l 3.962529997965687 6.092190240881429 a28.26749103307798,28.26749103307798 0 0,0 -0.4101723299168607,0.26179138758504916 l -3.8570758660018956 -6.159496057290287" fill="#ff2a04" stroke="none" /><path d="M 111.1453310114006 117.79835938074945 l 4.215218180417684 6.731425739316348 a28.94230173139087,28.94230173139087 0 0,0 -0.4245157588144544,0.2607722516243882 l -4.09872322167092 -6.802986457769115" fill="#ff3405" stroke="none" /><line stroke="#e1ed5e" stroke-width="0.3" x1="143.8653032363475" x2="146.44561519142675" y1="172.8068346515853" y2="177.08958963109032" /><path d="M 144.38136562736335 173.6633856474863 a86.0,86.0 0 0,1 -40.68145358897372,12.25698825130547" fill="none" id="id114" stroke="none" /><text fill="#e1ed5e" style="font-size:6.75px; font-family:Arial;" text-anchor="middle"><textPath startOffset="21.466115282336833" xlink:href="#id114">June</textPath></text><path d="M 110.8373102113329 117.98757091392108 l 4.871874171094693 8.086248379660253 a30.44047513616437,30.44047513616437 0 0,0 -0.45114542302552557,0.26654466800450116 l -4.731960877040786 -8.168911619958504" fill="#ff4b06" stroke="none" /><path d="M 110.5260780823613 118.17145234162733 l 4.314712524717632 7.4486045417155635 a29.60804587521587,29.60804587521587 0 0,0 -0.44320598713941967,0.2516639264634972 l -4.185857770657013 -7.521771633973689" fill="#ff3e05" stroke="none" /><path d="M 109.89434966115114 118.52300852407294 l 4.123688865125261 7.719873121044842 a29.752214054819998,29.752214054819998 0 0,0 -0.45380499198751933,0.23740932365939768 l -3.990192970611246 -7.789711863648957" fill="#ff4006" stroke="none" /><path d="M 109.57404056367764 118.69057910512821 l 7.776299914505474 15.181004063078264 a38.05677943585883,38.05677943585883 0 0,0 -0.58561426480366,0.29363914952527037 l -7.513831742019053 -15.312611053512837" fill="#ffb711" stroke="none" /><path d="M 108.92500713936063 119.00905698771935 l 3.6314070584300175 7.734405434240095 a29.544480361333747,29.544480361333747 0 0,0 -0.4622051117675758,0.21217569708334036 l -3.4977339508950225 -7.79576820165751" fill="#ff3d05" stroke="none" /><path d="M 108.59647513512805 119.15986991738527 l 7.172801707975811 15.986778942270318 a38.52216268874817,38.52216268874817 0 0,0 -0.6073281730340473,0.26623482332834103 l -6.89655286028401 -16.107878318893114" fill="#ffbd11" stroke="none" /><path d="M 107.93186726928326 119.44442032107085 l 6.182858448874476 15.156846979924678 a37.369415046716554,37.369415046716554 0 0,0 -0.5976951864207642,0.23783524969966655 l -5.921042186411845 -15.261029074030413" fill="#ffad10" stroke="none" /><path d="M 107.2578585660854 119.70592522655815 l 5.531132284770459 15.017663712986415 a37.00386352566089,37.00386352566089 0 0,0 -0.5996043304242484,0.21499677998988645 l -5.2718083937164755 -15.110648034016261" fill="#ffa80f" stroke="none" /><path d="M 106.57524785965236 119.94407469862006 l 5.118204112942625 15.524562317671933 a37.34649957932958,37.34649957932958 0 0,0 -0.6122667924158738,0.19602849218352217 l -4.850215975435811 -15.610363656515162" fill="#ffad10" stroke="none" /><path d="M 105.53697534728816 120.25689768951611 l 3.9530034111115215 14.46197258299387 a35.99249435416021,35.99249435416021 0 0,0 -0.5990343220872483,0.15821040900147146 l -3.703478646212776 -14.527874341298926" fill="#ff9a0e" stroke="none" /><path d="M 104.83641907484287 120.43548508189849 l 4.862630966483048 20.546239074117146 a42.11381348802196,42.11381348802196 0 0,0 -0.706870032702612,0.16088131807187112 l -4.508240784387573 -20.626897125766703" fill="#ffed16" stroke="none" /><path d="M 101.62511606390274 120.93702456842531 l 0.36745298948075544 4.734044810328313 a25.7482841075145,25.7482841075145 0 0,0 -0.44218048072446536,0.030495354838995747 l -0.2859097479773597 -4.739668509683594" fill="#ff0400" stroke="none" /><line stroke="#e1ed5e" stroke-width="0.3" x1="102.19456741930631" x2="102.32365962044197" y1="184.97166512339345" y2="189.96999836594603" /><path d="M 102.22038585953345 185.97133177190398 a86.0,86.0 0 0,1 -42.740103519485714,-10.115201625700543" fill="none" id="id115" stroke="none" /><text fill="#e1ed5e" style="font-size:6.75px; font-family:Arial;" text-anchor="middle"><textPath startOffset="22.20632615414155" xlink:href="#id115">July</textPath></text><path d="M 100.54218724476979 120.99299961872073 l 0.13338689053535652 5.164619730845949 a26.1663419386264,26.1663419386264 0 0,0 -0.45036051165102925,0.007753364630208583 l -0.04446668899165935 -5.166150572755318" fill="#ff0a01" stroke="none" /><path d="M 99.81925306533755 120.99922214144158 l -0.1263914225284676 14.684185728542328 a35.68472966390648,35.68472966390648 0 0,0 -0.6141857026580319,-0.010573763862890636 l 0.3791368150791674 -14.679834487400278" fill="#ff960d" stroke="none" /><path d="M 99.09653310690486 120.98055641714683 l -0.238864550853453 5.546978227468469 a26.552118850462737,26.552118850462737 0 0,0 -0.4564586530438174,-0.023593698505838874 l 0.3343112723107593 -5.542044722200428" fill="#ff1001" stroke="none" /><path d="M 98.37488393609728 120.93702456842531 l -0.510831977108938 6.581254036331617 a27.60104946198468,27.60104946198468 0 0,0 -0.47336546666812124,-0.04084396428213185 l 0.6240417615186009 -6.571485819770822" fill="#ff2003" stroke="none" /><path d="M 97.2962882734958 120.8252237178851 l -2.0544136818232377 15.824033351503296 a36.95683700128416,36.95683700128416 0 0,0 -0.6301517471584985,-0.08733329020036679 l 2.326494020168567 -15.786325495810324" fill="#ffa80f" stroke="none" /><path d="M 96.93821686468263 120.77559828337769 l -1.1146201081535887 7.563206988261655 a28.644898817694727,28.644898817694727 0 0,0 -0.48718716896396885,-0.07608861628199527 l 1.2446431407260747 -7.542900064632554" fill="#ff3004" stroke="none" /><path d="M 96.22490169976321 120.6578951692458 l -1.8186590569281469 9.951970825306592 a31.11678032148076,31.11678032148076 0 0,0 -0.5260697497325644,-0.10082251959280027 l 1.9896964212324062 -9.919191107365323" fill="#ff5407" stroke="none" /><path d="M 95.51606077576429 120.51570834832081 l -1.6821686015934425 7.696554011361764 a28.878238055174247,28.878238055174247 0 0,0 -0.48471414454691275,-0.11031936120510615 l 1.8144028955332179 -7.666457916578971" fill="#ff3304" stroke="none" /><path d="M 94.81253420990036 120.34920634021253 l -3.7150952408047497 14.573443505489665 a36.039520878536955,36.039520878536955 0 0,0 -0.599816999216359,-0.15841712114491163 l 3.965402682832598 -14.507335035041171" fill="#ff9b0e" stroke="none" /><path d="M 94.11515582081647 120.15858648285463 l -2.1980915442341025 7.5295822867177895 a28.843864854093788,28.843864854093788 0 0,0 -0.47540873618406226,-0.1432367523749288 l 2.327375254858411 -7.4906301652371345" fill="#ff3304" stroke="none" /><path d="M 92.40401165467489 119.57807347666478 l -22.787965035975347 58.734220429994345 a84.0,84.0 0 0,0 -1.3435156958325676,-0.5346126223757337 l 23.795601807849774 -58.333260963212545" fill="#4dd2ff" stroke="none" /><path d="M 91.07499286063937 119.00905698771935 l -2.183840807269937 4.65128528294658 a26.138444847894434,26.138444847894434 0 0,0 -0.4056280025763398,-0.19472609120976814 l 2.263581477846519 -4.613004915237249" fill="#ff0a01" stroke="none" /><path d="M 90.10565033884886 118.52300852407294 l -4.605227943939703 8.621352527677864 a30.774243900278968,30.774243900278968 0 0,0 -0.4650972855209133,-0.25360812342706096 l 4.752948041329256 -8.540803752491039" fill="#ff4f07" stroke="none" /><line stroke="#e1ed5e" stroke-width="0.3" x1="58.666819895761336" x2="56.23545636021788" y1="174.27360380694188" y2="178.64263932499728" /><path d="M 58.180547188652646 175.14741091055294 a86.0,86.0 0 0,1 -31.652253787137756,-30.449443065178592" fill="none" id="id116" stroke="none" /><text fill="#e1ed5e" style="font-size:6.75px; font-family:Arial;" text-anchor="middle"><textPath startOffset="22.20632615414155" xlink:href="#id116">August</textPath></text><path d="M 87.95078237400918 117.19931262002967 l -4.980446438905871 7.1091964598001605 a29.680179781251383,29.680179781251383 0 0,0 -0.41590789591210875,-0.29673924069375773 l 5.102081662666867 -7.022412957262183" fill="#ff3f05" stroke="none" /><path d="M 87.65650970185807 116.9893568818739 l -4.461115158249054 6.140198248953898 a28.589702431032194,28.589702431032194 0 0,0 -0.3956474865580412,-0.2926905519601156 l 4.56614761522566 -6.062497748254016" fill="#ff2f04" stroke="none" /><path d="M 87.07902340077011 116.55440617244103 l -3.336378904231468 4.274581809017702 a26.422497011025992,26.422497011025992 0 0,0 -0.3561280858413766,-0.28292968976574046 l 3.4094644827902028 -4.216518205246831" fill="#ff0e01" stroke="none" /><path d="M 86.79598089348748 116.32954008644616 l -31.071325298201742 38.426213102474414 a70.41660762520479,70.41660762520479 0 0,0 -0.9359704111782143,-0.7702399278584862 l 31.728165837924642 -37.88567805575875" fill="#3bff9d" stroke="none" /><path d="M 86.51685102203217 116.09983520530335 l -13.514067567200657 16.136754191531434 a42.048155692334944,42.048155692334944 0 0,0 -0.5508999655821095,-0.4694889021885957 l 13.789833009359823 -15.901740899119886" fill="#ffec16" stroke="none" /><path d="M 86.24171649860922 115.8653595955263 l -10.6690427141876 12.303002709858784 a37.28472744985166,37.28472744985166 0 0,0 -0.4812528807179025,-0.42464971292057246 l 10.87923794781209 -12.117529855165923" fill="#ffac0f" stroke="none" /><path d="M 85.70375840098266 115.38237550388516 l -15.32181047695495 16.485860323742912 a43.50647611034849,43.50647611034849 0 0,0 -0.5441710593390734,-0.5145477020500565 l 15.60331737068484 -16.219677984946923" fill="#ffff18" stroke="none" /><path d="M 85.44109423537348 115.13401014063109 l -5.263801339340886 5.471731470465773 a28.59259177257229,28.59259177257229 0 0,0 -0.3517570212449298,-0.3442682803272326 l 5.35720831296161 -5.3803130872159715" fill="#ff2f04" stroke="none" /><path d="M 84.67929136418377 114.36230785411682 l -7.6401229306590075 7.162188132531893 a31.472268963379534,31.472268963379534 0 0,0 -0.3671069205287787,-0.3984220577366215 l 7.7622762591835155 -7.0296148199939275" fill="#ff5a08" stroke="none" /><path d="M 84.19399662182784 113.82643327865904 l -10.44386465077099 9.135857706107204 a34.87581366514635,34.87581366514635 0 0,0 -0.39136889166693,-0.45525043861866 l 10.599576052008699 -8.954730168327014" fill="#ff8b0c" stroke="none" /><path d="M 83.95833913139862 113.55231037782056 l -4.946798626067419 4.179152701592238 a27.47581145109153,27.47581145109153 0 0,0 -0.3021083223918101,-0.36390893603742497 l 5.018002948352764 -4.093382508441052" fill="#ff1e03" stroke="none" /><path d="M 83.50135304334701 112.99209946851258 l -8.010320046347097 6.307843006168199 a31.195788867732364,31.195788867732364 0 0,0 -0.3285855156688986,-0.4247410727753095 l 8.117712379234064 -6.169023939279636" fill="#ff5607" stroke="none" /><path d="M 83.28015986056508 112.70617746262583 l -6.2041394149771865 4.714811610168661 a28.79235486870655,28.79235486870655 0 0,0 -0.2964772545559383,-0.3971797320981789 l 6.28437793622821 -4.6073189985611736" fill="#ff3204" stroke="none" /><path d="M 82.6465618267979 111.8261652097733 l -9.312539418577607 6.34638672679255 a32.269428331045475,32.269428331045475 0 0,0 -0.3088597564148161,-0.4617034291980967 l 9.420402280403152 -6.1851463833886315" fill="#ff6509" stroke="none" /><path d="M 82.44556493220864 111.52570212397912 l -4.153022365063241 2.726746745713678 a25.968172961962537,25.968172961962537 0 0,0 -0.24211628442552208,-0.3757698501259181 l 4.199343512865809 -2.6548552956663114" fill="#ff0701" stroke="none" /><path d="M 82.05923443525364 110.91462005526583 l -7.071451921426349 4.302057829299732 a29.277266085108266,29.277266085108266 0 0,0 -0.2582242660111242,-0.43279872286667537 l 7.144457063135706 -4.179697012546945" fill="#ff3905" stroke="none" /><line stroke="#e1ed5e" stroke-width="0.3" x1="26.63291911575756" x2="22.317208475507996" y1="142.92168965132927" y2="145.44649492493687" /><path d="M 25.769776987707644 143.4266507060508 a86.0,86.0 0 0,1 -11.730757126820373,-40.83630448921669" fill="none" id="id117" stroke="none" /><text fill="#e1ed5e" style="font-size:6.75px; font-family:Arial;" text-anchor="middle"><textPath startOffset="21.46611528233685" xlink:href="#id117">September</textPath></text><path d="M 81.69416730710424 110.29060199501025 l -6.741837579873892 3.7899159471947876 a28.73406987557012,28.73406987557012 0 0,0 -0.23866188756037882,-0.4332406499534529 l 6.806075876885787 -3.6733047788435123" fill="#ff3104" stroke="none" /><path d="M 81.35079622478065 109.6543875284942 l -7.091796204120269 3.671306810356084 a28.985741486959217,28.985741486959217 0 0,0 -0.22556611576334623,-0.44506334586403584 l 7.153940989669882 -3.548689252789363" fill="#ff3505" stroke="none" /><path d="M 81.18737489456691 109.33194174019688 l -6.104038206688959 3.027888378443604 a27.813764778815923,27.813764778815923 0 0,0 -0.20906248531525357,-0.43073064201212935 l 6.155253948618932 -2.9223687804661895" fill="#ff2303" stroke="none" /><path d="M 81.02952815118164 109.00673069616217 l -9.264877191023182 4.3987442409219195 a31.256066510206793,31.256066510206793 0 0,0 -0.2265698428855281,-0.4880112849759575 l 9.339221650748536 -4.238612888667134" fill="#ff5708" stroke="none" /><path d="M 80.73074385275274 108.34839909993369 l -10.146007346602289 4.395754457413007 a32.05731080901563,32.05731080901563 0 0,0 -0.2150114653839579,-0.5082235908075668 l 10.220169793178552 -4.220456340939282" fill="#ff6209" stroke="none" /><path d="M 80.20201598880116 107.00284435728193 l -9.434666591909473 3.337183304553484 a31.00748350529159,31.00748350529159 0 0,0 -0.17365544617137588,-0.5047240128865256 l 9.490712869024076 -3.1742865885776617" fill="#ff5307" stroke="none" /><path d="M 79.97269907076064 106.31721596034903 l -7.240720453494198 2.2839420536422965 a28.592392507638486,28.592392507638486 0 0,0 -0.1440147446335457,-0.4706485180997877 l 7.278961970633874 -2.158966562990461" fill="#ff2f04" stroke="none" /><path d="M 79.86692584326677 105.97154293290107 l -7.935084874632143 2.353574999833428 a29.276767922773764,29.276767922773764 0 0,0 -0.1391446193747401,-0.48438067410259916 l 7.974422130892988 -2.2166368502262332" fill="#ff3905" stroke="none" /><path d="M 79.67330655649465 105.27499134158121 l -4.870506223095093 1.2639477358848508 a26.03183810831156,26.03183810831156 0 0,0 -0.10882385019107056,-0.43469718637613936 l 4.891541387581222 -1.1799227101113194" fill="#ff0801" stroke="none" /><path d="M 79.58551787078972 104.9243191809786 l -15.979157881841788 3.854443779440749 a37.43746402160917,37.43746402160917 0 0,0 -0.14571986295816838,-0.6277573557806516 l 16.043138310730512 -3.5788177663115235" fill="#ffae10" stroke="none" /><path d="M 79.50377843672027 104.57218783832718 l -6.009771027450235 1.3406276819366159 a27.15748571934641,27.15748571934641 0 0,0 -0.09785225060864851,-0.4571331381519923 l 6.031957316783323 -1.2369807243684596" fill="#ff1902" stroke="none" /><path d="M 79.35854240842038 103.8639653848113 l -9.869819999488408 1.8475750882969972 a31.04125891157065,31.04125891157065 0 0,0 -0.0937942053433105,-0.5260477142982632 l 9.900160647170907 -1.6774086232655203" fill="#ff5307" stroke="none" /><path d="M 79.29508885075956 103.50808413554451 l -5.315848837816435 0.9006773726522692 a26.39161094628703,26.39161094628703 0 0,0 -0.07203432566764417,-0.448557814694561 l 5.330564917845369 -0.8090403282644946" fill="#ff0d01" stroke="none" /><path d="M 79.18660465613746 102.79330883721812 l -14.491833903881094 1.9449093741038783 a35.62176194482576,35.62176194482576 0 0,0 -0.07632978692786759,-0.6084235033623537 l 14.523165200055809 -1.695168116454116" fill="#ff950d" stroke="none" /><path d="M 79.1416061653843 102.43462659150553 l -7.83817671164183 0.9148850866653598 a28.89138954080503,28.89138954080503 0 0,0 -0.05340463087669679,-0.49446055556308877 l 7.8527636440195785 -0.779828209217489" fill="#ff3304" stroke="none" /><path d="M 79.07016306316243 101.71520430193888 l -10.259831725450555 0.8407952515716425 a31.29422574502945,31.29422574502945 0 0,0 -0.039376244672325346,-0.5372575739817996 l 10.272784528787216 -0.6640645410930822" fill="#ff5708" stroke="none" /><path d="M 79.0235259727143 100.99374915477108 l -10.213128210073348 0.4838414460469904 a31.224582650666427,31.224582650666427 0 0,0 -0.020813217129558432,-0.5370966526625105 l 10.219943560054109 -0.3079675463704831" fill="#ff5608" stroke="none" /><line stroke="#e1ed5e" stroke-width="0.3" x1="15.007084014347285" x2="10.007500721073583" y1="101.09737516637583" y2="101.16192664675087" /><path d="M 14.007167355692545 101.11028546245083 a86.0,86.0 0 0,1 10.666146001902534,-42.60595125391555" fill="none" id="id118" stroke="none" /><text fill="#e1ed5e" style="font-size:6.75px; font-family:Arial;" text-anchor="middle"><textPath startOffset="22.20632615414155" xlink:href="#id118">October</textPath></text><path d="M 79.00175016825051 100.2711162175752 l -29.956388188214035 0.38677807545289367 a50.958885001992655,50.958885001992655 0 0,0 -0.00377508931054782,-0.8771978061680583 l 29.95860757481409 0.12892920891884005" fill="#a3ff21" stroke="none" /><path d="M 79.00486145842228 99.54816195383935 l -5.749853131499189 -0.12374304649156405 a26.751184519328696,26.751184519328696 0 0,0 0.013870241462850886,-0.46028578850360996 l 5.7468711955806935 0.22269898242016842" fill="#ff1302" stroke="none" /><path d="M 79.16333360222342 97.38593545837743 l -4.874072469537656 -0.611476892353408 a25.912279148031704,25.912279148031704 0 0,0 0.0593317169032204,-0.44209020638286445 l 4.862824753576602 0.6952854408009319" fill="#ff0601" stroke="none" /><path d="M 79.26566170972629 96.67025291283419 l -10.14786503128802 -1.6296552875638943 a31.277886020457863,31.277886020457863 0 0,0 0.08994349106467095,-0.5308515756728035 l 10.118309678703126 1.8040926515525257" fill="#ff5708" stroke="none" /><path d="M 79.3925641242962 95.95851677861259 l -10.205035433579354 -2.001388223515041 a31.399437630075717,31.399437630075717 0 0,0 0.1085832985033006,-0.529490726075654 l 10.169072839161059 2.1767546057540974" fill="#ff5908" stroke="none" /><path d="M 79.54389044137918 95.25157060432595 l -15.365471708522689 -3.5667514064715555 a36.77401142452287,36.77401142452287 0 0,0 0.1484395224587433,-0.6153776526525429 l 15.30179938580313 3.830714290783495" fill="#ffa50f" stroke="none" /><path d="M 79.62865764111835 94.90015583598534 l -7.32219351365221 -1.8330675122203963 a28.54815569233494,28.54815569233494 0 0,0 0.123441774057218,-0.4756715105112165 l 7.289555407724684 1.9588354482804766" fill="#ff2e04" stroke="none" /><path d="M 79.81627453868168 94.20196356495316 l -9.795741721327468 -2.813953624042976 a31.191903201523267,31.191903201523267 0 0,0 0.15268303366566952,-0.514771286718786 l 9.745852790550092 2.982154297508301" fill="#ff5607" stroke="none" /><path d="M 80.02781315780177 93.51064311812611 l -7.927580169875712 -2.5758269406580263 a29.335551078244695,29.335551078244695 0 0,0 0.16017588930133034,-0.47890552143896925 l 7.8820669868026085 2.711905565019318" fill="#ff3a05" stroke="none" /><path d="M 80.2630227832202 92.82701384747504 l -15.975014295753294 -5.805780443035965 a37.9972988531196,37.9972988531196 0 0,0 0.228699248779366,-0.6128002846158643 l 15.8727104584723 6.079903864681171" fill="#ffb610" stroke="none" /><path d="M 80.65960295795068 91.81776055985345 l -9.458847783806776 -4.001704682005108 a31.270513217907272,31.270513217907272 0 0,0 0.21399348844764396,-0.4939264754093284 l 9.388563585516453 4.163930302001035" fill="#ff5708" stroke="none" /><path d="M 80.95270993114464 91.15688171328213 l -7.286012277368241 -3.3826895151136838 a29.03296727626976,29.03296727626976 0 0,0 0.21434874688791367,-0.45147312669172046 l 7.226705336638576 3.5076050574459363" fill="#ff3605" stroke="none" /><path d="M 81.43458229118936 90.18545643968196 l -13.564160936805942 -7.170646546254026 a36.342901740247086,36.342901740247086 0 0,0 0.2971324704618729,-0.5505413411643795 l 13.438720367125597 7.403068870750878" fill="#ff9f0e" stroke="none" /><line stroke="#e1ed5e" stroke-width="0.3" x1="26.266209847984243" x2="21.928928074336255" y1="57.711370442889674" y2="55.22380399835377" /><path d="M 25.398753493254645 57.213857153982495 a86.0,86.0 0 0,1 29.58750427330803,-30.492523968695096" fill="none" id="id119" stroke="none" /><text fill="#e1ed5e" style="font-size:6.75px; font-family:Arial;" text-anchor="middle"><textPath startOffset="21.46611528233685" xlink:href="#id119">November</textPath></text><path d="M 81.78341655067845 89.55222093294921 l -8.849241746522505 -5.075316287260945 a31.201368285878758,31.201368285878758 0 0,0 0.2712146630416946,-0.46359377466297774 l 8.760567409010486 5.226889474277814" fill="#ff5607" stroke="none" /><path d="M 82.34701348167596 88.62581576622439 l -6.801404323638161 -4.382285441908495 a29.09095337200549,29.09095337200549 0 0,0 0.2748449061738926,-0.4186076481280017 l 6.724962782106348 4.498711154014164" fill="#ff3605" stroke="none" /><path d="M 82.7489923806493 88.02491185347247 l -34.78484681869807 -24.146508772630465 a63.344296594783685,63.344296594783685 0 0,0 0.6294835860348345,-0.8903598909477914 l 34.36405061285936 24.741695163910045" fill="#32ff47" stroke="none" /><path d="M 84.31358615837235 86.03803664274999 l -8.530922023384031 -7.593094374315326 a32.42067041579949,32.42067041579949 0 0,0 0.37462294532785717,-0.4136680129888494 l 8.398955437440128 7.738815174573731" fill="#ff6809" stroke="none" /><path d="M 86.65592168130627 83.78471172551755 l -6.457904692365085 -7.847434924683777 a31.163009786122302,31.163009786122302 0 0,0 0.41713410197048534,-0.3372934340611292 l 6.3218671918300995 7.957434456009041" fill="#ff5507" stroke="none" /><path d="M 86.93701828274178 83.55741782278169 l -6.362461505938711 -8.008531162726223 a31.228269051941727,31.228269051941727 0 0,0 0.4237638113583723,-0.3307543763954044 l 6.2236651394209135 8.116863928344848" fill="#ff5608" stroke="none" /><path d="M 87.80319425747018 82.90503203632743 l -3.3861198602134763 -4.7459647840138794 a26.830093433113404,26.830093433113404 0 0,0 0.3782645327431336,-0.26499847848034896 l 3.3039241878866825 4.803548105258171" fill="#ff1402" stroke="none" /><line stroke="#e1ed5e" stroke-width="0.3" x1="56.762969772571076" x2="54.21961505331055" y1="26.818313649435495" y2="22.513508569990535" /><path d="M 56.25429882871897 25.957352633546506 a86.0,86.0 0 0,1 42.265352541879196,-11.944610805530505" fill="none" id="id120" stroke="none" /><text fill="#e1ed5e" style="font-size:6.75px; font-family:Arial;" text-anchor="middle"><textPath startOffset="22.20632615414155" xlink:href="#id120">December</textPath></text><path d="M 89.3179101791058 81.91981866633112 l -4.016553212792785 -6.798296179983328 a28.896171899216224,28.896171899216224 0 0,0 0.4304198566342205,-0.24932696264192972 l 3.8989366236932446 6.866427300015305" fill="#ff3404" stroke="none" /><path d="M 89.94658935756843 81.56283822128135 l -3.8473226818648647 -7.055686196791002 a29.036454412611256,29.036454412611256 0 0,0 0.4408770152721974,-0.23550123302046885 l 3.725300620064362 7.1208661563132205" fill="#ff3605" stroke="none" /><path d="M 90.26544431104013 81.39251694778311 l -4.80514408589946 -9.184973613458055 a31.365961121197362,31.365961121197362 0 0,0 0.4805556684497063,-0.24615927826336573 l 4.64632792986099 9.266325417033926" fill="#ff5808" stroke="none" /><path d="M 92.23578459929587 80.48803036053334 l -3.7865413633734297 -9.515820505704493 a31.241520170039408,31.241520170039408 0 0,0 0.5013770594431168,-0.1945265097039596 l 3.622181138930636 9.579589719299005" fill="#ff5608" stroke="none" /><path d="M 92.57280143429618 80.3572730644239 l -3.960286146353705 -10.473776710209613 a32.19749368994376,32.19749368994376 0 0,0 0.5200932821645283,-0.19155474506895853 l 3.7794105384166077 10.540394723084892" fill="#ff6409" stroke="none" /><path d="M 95.692805502759 79.44645832069477 l -1.0257995080330842 -4.895022260191437 a26.0013505734402,26.0013505734402 0 0,0 0.4388453353546734,-0.0880282458295785 l 0.9413877632112743 4.911954462098227" fill="#ff0701" stroke="none" /><path d="M 96.40284397218896 79.31037775812273 l -1.084891344620414 -6.239927298159944 a27.3335362883585,27.3335362883585 0 0,0 0.46424162319049533,-0.0766038456021531 l 0.9773205152910331 6.257677406701724" fill="#ff1c02" stroke="none" /><path d="M 96.75951476605007 79.25152402106235 l -0.8543271675534841 -5.470164322437165 a26.536476553159456,26.536476553159456 0 0,0 0.45191748407322246,-0.06660088977545818 l 0.7600407030516129 5.484059696373593" fill="#ff1001" stroke="none" /><path d="M 97.47563105711357 79.15227682838746 l -0.9293021902634714 -7.674723958231531 a28.73078200416242,28.73078200416242 0 0,0 0.49147873952852084,-0.05522336293533826 l 0.7970567472252326 7.689583274637467" fill="#ff3104" stroke="none" /></svg>