<?xml version="1.0" encoding="utf-8" ?>
<svg baseProfile="full" height="200mm" version="1.1" viewBox="0,0,200,200" width="200mm" xmlns="http://www.w3.org/2000/svg" xmlns:ev="http://www.w3.org/2001/xml-events" xmlns:xlink="http://www.w3.org/1999/xlink"><defs /><rect fill="#1a1a1a" height="200" width="200" x="0" y="0" /><text alignment-baseline="middle" fill="#e1ed5e" style="dominant-baseline: central; font-size:9.0px; font-family:Arial;" text-anchor="middle" x="100.0" y="100.0">2014</text><line stroke="#e1ed5e" stroke-width="0.3" x1="100.0" x2="100.0" y1="15.0" y2="10.0" /><path d="M 100.0 14.0 a86.0,86.0 0 0,1 42.46469731375804,11.215312516191453" fill="none" id="id13" stroke="none" /><text fill="#e1ed5e" style="font-size:6.75px; font-family:Arial;" text-anchor="middle"><textPath startOffset="22.20632615414155" xlink:href="#id13">January</textPath></text><path d="M 101.08401301168833 79.027996857942 l 1.2309625264341442 -23.81498164115668 a44.84677377152127,44.84677377152127 0 0,0 0.7705913316128175,0.04648417351653085 l -1.6407159068865733 23.790264198259845" fill="red" stroke="none" /><line stroke="#e1ed5e" stroke-width="0.3" x1="143.23703022742887" x2="145.7803849466894" y1="26.81831364943548" y2="22.513508569990506" /><path d="M 143.74570117128098 25.957352633546492 a86.0,86.0 0 0,1 28.547481713284135,27.462654790039103" fill="none" id="id14" stroke="none" /><text fill="#e1ed5e" style="font-size:6.75px; font-family:Arial;" text-anchor="middle"><textPath startOffset="19.985693538727396" xlink:href="#id14">February</textPath></text><line stroke="#e1ed5e" stroke-width="0.3" x1="172.23445277983987" x2="176.4835382374775" y1="55.19839476539836" y2="52.563006222186495" /><path d="M 173.08426987136738 54.67131705675599 a86.0,86.0 0 0,1 12.851231095245387,41.99856678651699" fill="none" id="id15" stroke="none" /><text fill="#e1ed5e" style="font-size:6.75px; font-family:Arial;" text-anchor="middle"><textPath startOffset="22.20632615414155" xlink:href="#id15">March</textPath></text><path d="M 119.196687751892 91.48605970444005 l 22.087894374423026 -9.796221951880083 a45.16280286775865,45.16280286775865 0 0,0 0.3090625876971685,0.7133590640048654 l -22.253247671962875 9.414563743288616" fill="red" stroke="none" /><path d="M 120.6074358757038 95.95851677861258 l 18.89152324826879 -3.7049623589679777 a40.25139986393846,40.25139986393846 0 0,0 0.127490129693555,0.6810573706894167 l -18.952499101872203 3.3792269108159982" fill="red" stroke="none" /><path d="M 120.94382443527127 98.46500227214037 l 20.243624956532503 -1.4836792777726264 a41.29792244492124,41.29792244492124 0 0,0 0.04585919734100224,0.7094214851041175 l -20.26616474487792 1.134998728415474" fill="red" stroke="none" /><line stroke="#e1ed5e" stroke-width="0.3" x1="184.98032266829074" x2="189.97916517819016" y1="98.17113171792111" y2="98.06355123074" /><path d="M 185.9800911702706 98.14961562048488 a86.0,86.0 0 0,1 -9.607161424134198,41.387399972396054" fill="none" id="id16" stroke="none" /><text fill="#e1ed5e" style="font-size:6.75px; font-family:Arial;" text-anchor="middle"><textPath startOffset="21.466115282336823" xlink:href="#id16">April</textPath></text><path d="M 120.9764740272857 100.99374915477107 l 24.878111055453953 1.1785871067510894 a45.9060128735151,45.9060128735151 0 0,0 -0.04418704935132367,0.7889894493486556 l -24.854137655215098 -1.6066482724351683" fill="red" stroke="none" /><path d="M 120.92983693683757 101.71520430193887 l 35.207996668305185 2.8853023332369565 a56.32602438641478,56.32602438641478 0 0,0 -0.08750758503400391,0.9656389089607811 l -35.153114486994106 -3.490922630746308" fill="red" stroke="none" /><path d="M 120.64145759157962 103.86396538481128 l 24.137279158676986 4.518363625188027 a45.556544036841274,45.556544036841274 0 0,0 -0.15092246771619794,0.7695504113949577 l -24.055926757985127 -4.93317776365093" fill="red" stroke="none" /><path d="M 120.41448212921028 104.9243191809786 l 29.06480282389895 7.010923183414757 a50.89842482599823,50.89842482599823 0 0,0 -0.21277646761552524,0.8499362192858104 l -28.939815041988364 -7.510187242097963" fill="red" stroke="none" /><path d="M 118.81262510543309 109.33194174019688 l 21.464982609850317 10.647635087971468 a44.960751478360976,44.960751478360976 0 0,0 -0.3498831340001296,0.6903526168037789 l -21.27852080606392 -11.015541916477941" fill="red" stroke="none" /><line stroke="#e1ed5e" stroke-width="0.3" x1="174.80103733775053" x2="179.2010983576182" y1="140.37084112569926" y2="142.7455964860345" /><path d="M 175.68104954172406 140.8457921977663 a86.0,86.0 0 0,1 -30.038265399797805,32.042727171017184" fill="none" id="id17" stroke="none" /><text fill="#e1ed5e" style="font-size:6.75px; font-family:Arial;" text-anchor="middle"><textPath startOffset="22.206326154141568" xlink:href="#id17">May</textPath></text><path d="M 112.34349029814194 116.9893568818739 l 14.019827138344732 19.296636601348794 a44.85195457637762,44.85195457637762 0 0,0 -0.6285097392567187,0.448425010991091 l -13.68559007123913 -19.535105874184104" fill="red" stroke="none" /><line stroke="#e1ed5e" stroke-width="0.3" x1="143.8653032363475" x2="146.44561519142675" y1="172.8068346515853" y2="177.08958963109032" /><path d="M 144.38136562736335 173.6633856474863 a86.0,86.0 0 0,1 -40.68145358897372,12.25698825130547" fill="none" id="id18" stroke="none" /><text fill="#e1ed5e" style="font-size:6.75px; font-family:Arial;" text-anchor="middle"><textPath startOffset="21.466115282336833" xlink:href="#id18">June</textPath></text><path d="M 110.5260780823613 118.17145234162733 l 15.483280663032705 26.729204786330378 a51.88984248259983,51.88984248259983 0 0,0 -0.776744569936667,0.44105583859806985 l -15.020887326174838 -26.991763790723077" fill="red" stroke="none" /><path d="M 109.57404056367764 118.69057910512821 l 11.215462124548873 21.89498578423907 a45.600345386990426,45.600345386990426 0 0,0 -0.7016939723867817,0.35184392468264786 l -10.836914244479331 -22.084797549831016" fill="red" stroke="none" /><path d="M 108.92500713936063 119.00905698771935 l 10.136888636278362 21.590200518201964 a44.85148359411795,44.85148359411795 0 0,0 -0.7016737046657274,0.32210398289010134 l -9.763746935845216 -21.761491571426138" fill="red" stroke="none" /><path d="M 107.2578585660854 119.70592522655815 l 8.221554251680397 22.32247044421101 a44.78837197132242,44.78837197132242 0 0,0 -0.725743185384784,0.260225685573237 l -7.836091505665879 -22.460683670824206" fill="red" stroke="none" /><path d="M 104.13013068566511 120.58985236759428 l 4.649349584838602 23.178303265177796 a44.64001255952692,44.64001255952692 0 0,0 -0.7546976259313295,0.1446395962052277 l -4.249684344335568 -23.254900059731494" fill="red" stroke="none" /><path d="M 103.06178313531738 120.77559828337769 l 3.4387979303041267 23.333816021657444 a44.58584959966508,44.58584959966508 0 0,0 -0.7602341894897222,0.10536153139356434 l -3.0366351496275743 -23.38955211854361" fill="red" stroke="none" /><line stroke="#e1ed5e" stroke-width="0.3" x1="102.19456741930631" x2="102.32365962044197" y1="184.97166512339345" y2="189.96999836594603" /><path d="M 102.22038585953345 185.97133177190398 a86.0,86.0 0 0,1 -42.740103519485714,-10.115201625700543" fill="none" id="id19" stroke="none" /><text fill="#e1ed5e" style="font-size:6.75px; font-family:Arial;" text-anchor="middle"><textPath startOffset="22.20632615414155" xlink:href="#id19">July</textPath></text><path d="M 100.54218724476979 120.99299961872073 l 0.5335941587975007 20.660283103752562 a41.66717253650113,41.66717253650113 0 0,0 -0.717152179185175,0.012346425134359662 l -0.1778822897196577 -20.666407006166082" fill="red" stroke="none" /><path d="M 98.01472825383883 120.90594882070398 l -2.2098268288030036 23.270631174249075 a44.375320529593395,44.375320529593395 0 0,0 -0.7598056560771621,-0.07875696291028532 l 2.610065081485759 -23.22914484288303" fill="red" stroke="none" /><path d="M 95.86986931433489 120.58985236759428 l -4.985131312271504 24.852268745150496 a46.34732325082422,46.34732325082422 0 0,0 -0.7808608907635199,-0.1636369918277303 l 5.41218366446441 -24.762775772596225" fill="red" stroke="none" /><path d="M 93.42475214034765 119.94407469862007 l -13.664372061228894 41.446841688078216 a64.64121618085719,64.64121618085719 0 0,0 -1.0537449904026361,-0.3574875128817844 l 14.375786784568756 -41.2054911882983" fill="red" stroke="none" /><path d="M 92.7421414339146 119.70592522655815 l -8.05731198827765 21.87653370788787 a44.31315087131718,44.31315087131718 0 0,0 -0.713504567692131,-0.2697863753422225 l 8.432686776730064 -21.73459908243901" fill="red" stroke="none" /><path d="M 90.10565033884886 118.52300852407294 l -18.07483164851451 33.8375206216096 a59.362447014495785,59.362447014495785 0 0,0 -0.8971565006694041,-0.48920125667971787 l 18.654610961052555 -33.521378713170115" fill="red" stroke="none" /><line stroke="#e1ed5e" stroke-width="0.3" x1="58.666819895761336" x2="56.23545636021788" y1="174.27360380694188" y2="178.64263932499728" /><path d="M 58.180547188652646 175.14741091055294 a86.0,86.0 0 0,1 -31.652253787137756,-30.449443065178592" fill="none" id="id20" stroke="none" /><text fill="#e1ed5e" style="font-size:6.75px; font-family:Arial;" text-anchor="middle"><textPath startOffset="22.20632615414155" xlink:href="#id20">August</textPath></text><path d="M 89.4739219176387 118.17145234162733 l -10.234130759966003 17.667455809047784 a41.41755193887697,41.41755193887697 0 0,0 -0.6138320412728209,-0.3626627896484991 l 10.536730672267206 -17.488674447105538" fill="red" stroke="none" /><path d="M 87.95078237400918 117.19931262002967 l -36.14765287797246 51.59793786008904 a84.0,84.0 0 0,0 -1.1770906886044523,-0.8398229526231229 l 37.030470894425804 -50.968070645621694" fill="red" stroke="none" /><path d="M 87.36589467227662 116.77436683061367 l -11.735683418246872 15.58152742589938 a40.50667224867863,40.50667224867863 0 0,0 -0.5533428844036207,-0.4242797280096423 l 12.00215503114398 -15.37720835606237" fill="red" stroke="none" /><path d="M 86.79598089348748 116.32954008644616 l -15.000775726629756 18.551606641872503 a44.857606363493645,44.857606363493645 0 0,0 -0.5962427570492824,-0.49066719705131817 l 15.317888612223728 -18.290644325964003" fill="red" stroke="none" /><path d="M 86.51685102203217 116.09983520530335 l -14.632658415889722 17.472430920720008 a43.79036056308546,43.79036056308546 0 0,0 -0.573725713525875,-0.48894149978029905 l 14.931249605992653 -17.21796503071676" fill="red" stroke="none" /><path d="M 84.9287848128048 114.62390073753433 l -21.143395088090887 20.515858023539707 a50.46088230676645,50.46088230676645 0 0,0 -0.5995075974845575,-0.6285813191627685 l 21.493409236954403 -20.148869587794437" fill="red" stroke="none" /><path d="M 84.43433777217949 114.09645910891817 l -16.73841361596203 15.158517487540639 a43.582186404312104,43.582186404312104 0 0,0 -0.49879013405966294,-0.5603960032539428 l 16.996862599670035 -14.868147314545832" fill="red" stroke="none" /><path d="M 82.6465618267979 111.8261652097733 l -33.688993404881174 22.958655096505982 a61.76822439688105,61.76822439688105 0 0,0 -0.5912010137174406,-0.8837653003006752 l 34.079197524009345 -22.375352881999486" fill="red" stroke="none" /><line stroke="#e1ed5e" stroke-width="0.3" x1="26.63291911575756" x2="22.317208475507996" y1="142.92168965132927" y2="145.44649492493687" /><path d="M 25.769776987707644 143.4266507060508 a86.0,86.0 0 0,1 -11.730757126820373,-40.83630448921669" fill="none" id="id21" stroke="none" /><text fill="#e1ed5e" style="font-size:6.75px; font-family:Arial;" text-anchor="middle"><textPath startOffset="21.46611528233685" xlink:href="#id21">September</textPath></text><path d="M 80.45479744820244 107.68017299344265 l -20.673673050422245 8.123598873756025 a43.212465330472554,43.212465330472554 0 0,0 -0.26607709333796503,-0.6946433292669882 l 20.81044442335372 -7.76653197765588" fill="red" stroke="none" /><path d="M 79.97269907076064 106.31721596034903 l -27.674515945812168 8.729378683903276 a50.018629964937986,50.018629964937986 0 0,0 -0.2519348536291938,-0.8233376785132844 l 27.820677571947492 -8.251714032837944" fill="red" stroke="none" /><path d="M 79.4281124754447 104.21870165774334 l -16.48420858108696 3.3804364322238767 a37.82725417342614,37.82725417342614 0 0,0 -0.12531640991389323,-0.6389856743206829 l 16.53995492397652 -3.0961870308352393" fill="red" stroke="none" /><line stroke="#e1ed5e" stroke-width="0.3" x1="15.007084014347285" x2="10.007500721073583" y1="101.09737516637583" y2="101.16192664675087" /><path d="M 14.007167355692545 101.11028546245083 a86.0,86.0 0 0,1 10.666146001902534,-42.60595125391555" fill="none" id="id22" stroke="none" /><text fill="#e1ed5e" style="font-size:6.75px; font-family:Arial;" text-anchor="middle"><textPath startOffset="22.20632615414155" xlink:href="#id22">October</textPath></text><path d="M 79.32604984820605 96.31383870115002 l -27.078310643408848 -4.828057531294282 a48.505363964623996,48.505363964623996 0 0,0 0.15363329383788807,-0.8207151989184688 l 26.9911916256611 5.293450807675323" fill="red" stroke="none" /><path d="M 80.803312248108 91.48605970444005 l -43.45248479880354 -19.271650716633513 a68.53435553927469,68.53435553927469 0 0,0 0.4875654250465488,-1.0742857848438918 l 43.11431705679364 20.016758510319473" fill="red" stroke="none" /><path d="M 81.43458229118936 90.18545643968196 l -42.78139114499804 -22.616233771261953 a69.39154325187084,69.39154325187084 0 0,0 0.5673317123370157,-1.0511795002060638 l 42.385751333442556 23.34929425480049" fill="red" stroke="none" /><line stroke="#e1ed5e" stroke-width="0.3" x1="26.266209847984243" x2="21.928928074336255" y1="57.711370442889674" y2="55.22380399835377" /><path d="M 25.398753493254645 57.213857153982495 a86.0,86.0 0 0,1 29.58750427330803,-30.492523968695096" fill="none" id="id23" stroke="none" /><text fill="#e1ed5e" style="font-size:6.75px; font-family:Arial;" text-anchor="middle"><textPath startOffset="21.46611528233685" xlink:href="#id23">November</textPath></text><path d="M 83.39014120810768 87.1503855733568 l -16.93668420953593 -13.102451049408288 a42.41320843581559,42.41320843581559 0 0,0 0.4516924283613105,-0.57360351393459 l 16.70863770058065 13.392046957295927" fill="red" stroke="none" /><path d="M 85.05521093208273 85.24692304244772 l -22.44450057986763 -22.156581991475385 a52.53838505416296,52.53838505416296 0 0,0 0.6408787318048212,-0.6381265948598611 l 22.059786047895493 22.539644436985352" fill="red" stroke="none" /><path d="M 86.65592168130627 83.78471172551755 l -14.594558808252323 -17.734831335871903 a43.96792087498038,43.96792087498038 0 0,0 0.58853491095914,-0.47588763480266805 l 14.287120498728681 17.983425067938704" fill="red" stroke="none" /><path d="M 86.93701828274178 83.55741782278169 l -14.685563755880612 -18.484951912305615 a44.60845674812916,44.60845674812916 0 0,0 0.605331330371221,-0.4724707049611967 l 14.365199870349965 18.73500100649003" fill="red" stroke="none" /><line stroke="#e1ed5e" stroke-width="0.3" x1="56.762969772571076" x2="54.21961505331055" y1="26.818313649435495" y2="22.513508569990535" /><path d="M 56.25429882871897 25.957352633546506 a86.0,86.0 0 0,1 42.265352541879196,-11.944610805530505" fill="none" id="id24" stroke="none" /><text fill="#e1ed5e" style="font-size:6.75px; font-family:Arial;" text-anchor="middle"><textPath startOffset="22.20632615414155" xlink:href="#id24">December</textPath></text><path d="M 91.23893434514133 80.91482961587045 l -9.640034436122576 -20.999922494616147 a44.1068606415825,44.1068606415825 0 0,0 0.692725301804188,-0.3108056504616618 l 9.277127015851613 21.162748475594338" fill="red" stroke="none" /><path d="M 93.94186890950719 79.89281104454417 l -8.011173314540722 -26.5894172945789 a48.77005599455754,48.77005599455754 0 0,0 0.8058898339184745,-0.2352613414751099 l 7.552293262898825 26.72337696497271" fill="red" stroke="none" /><path d="M 97.11714578562143 79.19881850522333 l -5.1339990631055725 -37.04427569490985 a58.39834632895494,58.39834632895494 0 0,0 0.996902239925122,-0.129426522028145 l 4.495582094672593 37.12716054010213" fill="red" stroke="none" /></svg>