<?xml version="1.0" encoding="utf-8" ?>
<svg baseProfile="full" height="200mm" version="1.1" viewBox="0,0,200,200" width="200mm" xmlns="http://www.w3.org/2000/svg" xmlns:ev="http://www.w3.org/2001/xml-events" xmlns:xlink="http://www.w3.org/1999/xlink"><defs /><rect fill="#1a1a1a" height="200" width="200" x="0" y="0" /><text alignment-baseline="middle" fill="#e1ed5e" style="dominant-baseline: central; font-size:9.0px; font-family:Arial;" text-anchor="middle" x="100.0" y="100.0">2026</text><line stroke="#e1ed5e" stroke-width="0.3" x1="100.0" x2="100.0" y1="15.0" y2="10.0" /><path d="M 100.0 14.0 a86.0,86.0 0 0,1 42.46469731375804,11.215312516191453" fill="none" id="id157" stroke="none" /><text fill="#e1ed5e" style="font-size:6.75px; font-family:Arial;" text-anchor="middle"><textPath startOffset="22.20632615414155" xlink:href="#id157">January</textPath></text><path d="M 100.0 79.0 l 0.0 -35.57405140758874 a56.57405140758874,56.57405140758874 0 0,0 0.9738292960573256,0.008382056200046598 l -0.6123488167847971 35.56878072799725" fill="#a5ff21" stroke="none" /><path d="M 101.08401301168833 79.027996857942 l 0.8361627906560404 -16.176935593788187 a37.19853121175031,37.19853121175031 0 0,0 0.6391734185058918,0.0385566861111676 l -1.1144982580015441 16.160145638296715" fill="#ff1b02" stroke="none" /><path d="M 101.80526077348638 79.07773832637324 l 2.136703999952663 -24.76355818653254 a45.85556915544676,45.85556915544676 0 0,0 0.785822243905758,0.0746232908016182 l -2.5626513709486654 24.72310935121574" fill="#ffb310" stroke="none" /><path d="M 102.16513564639614 79.11191278185805 l 2.1707008665398675 -20.941777528004977 a42.053977968176255,42.053977968176255 0 0,0 0.7193899588589211,0.08083184397399021 l -2.5308575289085136 20.901309730560385" fill="#ff720a" stroke="none" /><path d="M 102.52436894288641 79.15227682838746 l 4.233647889281462 -34.96395384301531 a56.21933904528764,56.21933904528764 0 0,0 0.9597050009885423,0.12459725284626709 l -4.83486761877785 34.885898267004904" fill="#aaff21" stroke="none" /><path d="M 103.2404852339499 79.25152402106235 l 9.333549391102713 -59.76170584288381 a81.48616891064871,81.48616891064871 0 0,0 1.3839874549553708,0.22836978852974527 l -10.360866052196958 59.59218979141444" fill="#49f0ff" stroke="none" /><path d="M 103.59715602781102 79.31037775812273 l 3.459345766280447 -19.896984327347575 a41.195471236230105,41.195471236230105 0 0,0 0.6975862171461208,0.12747942232456713 l -3.8013271045294688 19.83448942367227" fill="#ff6309" stroke="none" /><path d="M 104.307194497241 79.44645832069477 l 5.275127067245224 -25.172428157053616 a46.71921664626683,46.71921664626683 0 0,0 0.7856776800227021,0.1717187097441196 l -5.707647471421454 25.077895949213623" fill="#ffc112" stroke="none" /><path d="M 104.66035177308747 79.52364482259891 l 3.8201194399469802 -16.784596159492672 a38.21383108935129,38.21383108935129 0 0,0 0.6401295527451852,0.15149798337842177 l -4.108472679654689 16.71635226397338" fill="#ff2e04" stroke="none" /><path d="M 105.01212808612495 79.60689891045804 l 6.136636137761063 -24.968444332764776 a46.711505507955934,46.711505507955934 0 0,0 0.7791726274084504,0.1986284517286615 l -6.565517653854538 24.859112884867244" fill="#ffc112" stroke="none" /><path d="M 105.36241919743992 79.69619591428918 l 4.812393825658452 -18.22123519662568 a39.84602203182375,39.84602203182375 0 0,0 0.661637713739784,0.18085058067451606 l -5.125329428621947 18.13569807512487" fill="#ff4b07" stroke="none" /><path d="M 105.71112130821622 79.79150937346287 l 17.13336392464865 -60.62547187961136 a84.0,84.0 0 0,0 1.3880391291062915,0.40520668432518603 l -18.174393271478365 60.321566866367476" fill="#4dd2ff" stroke="none" /><path d="M 106.0581310904928 79.89281104454417 l 5.881651873903158 -19.521447098491503 a41.38824969400245,41.38824969400245 0 0,0 0.6803728186795611,0.2113951466489172 l -6.216810065293437 19.417311816960066" fill="#ff6709" stroke="none" /><path d="M 106.74666289553966 80.11325718540242 l 6.576551199519928 -19.38531453799941 a41.47050183598532,41.47050183598532 0 0,0 0.6740299322451828,0.23515580843569214 l -6.909263135828384 19.26923787639151" fill="#ff6809" stroke="none" /><path d="M 107.08798089147638 80.2323363322302 l 7.676187873657651 -21.408113602500254 a43.74271725826193,43.74271725826193 0 0,0 0.706585848225495,0.2602415310247205 l -8.043556047655722 21.27280880366921" fill="#ff8f0d" stroke="none" /><path d="M 107.4271985657038 80.35727306442388 l 12.484420795937616 -33.017572705785405 a56.299020807833536,56.299020807833536 0 0,0 0.9035103717273308,0.3505479873543884 l -13.050914332664613 32.797782014540466" fill="#a9ff21" stroke="none" /><path d="M 107.76421540070413 80.48803036053334 l 5.4482554335663185 -13.691814191317306 a35.735985312117506,35.735985312117506 0 0,0 0.5695909866722949,0.2323504650415786 l -5.683130289827001 13.596002840092147" fill="#ff0000" stroke="none" /><line stroke="#e1ed5e" stroke-width="0.3" x1="143.23703022742887" x2="145.7803849466894" y1="26.81831364943548" y2="22.513508569990506" /><path d="M 143.74570117128098 25.957352633546492 a86.0,86.0 0 0,1 28.547481713284135,27.462654790039103" fill="none" id="id158" stroke="none" /><text fill="#e1ed5e" style="font-size:6.75px; font-family:Arial;" text-anchor="middle"><textPath startOffset="19.985693538727396" xlink:href="#id158">February</textPath></text><line stroke="#e1ed5e" stroke-width="0.3" x1="172.23445277983987" x2="176.4835382374775" y1="55.19839476539836" y2="52.563006222186495" /><path d="M 173.08426987136738 54.67131705675599 a86.0,86.0 0 0,1 12.851231095245387,41.99856678651699" fill="none" id="id159" stroke="none" /><text fill="#e1ed5e" style="font-size:6.75px; font-family:Arial;" text-anchor="middle"><textPath startOffset="22.20632615414155" xlink:href="#id159">March</textPath></text><line stroke="#e1ed5e" stroke-width="0.3" x1="184.98032266829074" x2="189.97916517819016" y1="98.17113171792111" y2="98.06355123074" /><path d="M 185.9800911702706 98.14961562048488 a86.0,86.0 0 0,1 -9.607161424134198,41.387399972396054" fill="none" id="id160" stroke="none" /><text fill="#e1ed5e" style="font-size:6.75px; font-family:Arial;" text-anchor="middle"><textPath startOffset="21.466115282336823" xlink:href="#id160">April</textPath></text><line stroke="#e1ed5e" stroke-width="0.3" x1="174.80103733775053" x2="179.2010983576182" y1="140.37084112569926" y2="142.7455964860345" /><path d="M 175.68104954172406 140.8457921977663 a86.0,86.0 0 0,1 -30.038265399797805,32.042727171017184" fill="none" id="id161" stroke="none" /><text fill="#e1ed5e" style="font-size:6.75px; font-family:Arial;" text-anchor="middle"><textPath startOffset="22.206326154141568" xlink:href="#id161">May</textPath></text><line stroke="#e1ed5e" stroke-width="0.3" x1="143.8653032363475" x2="146.44561519142675" y1="172.8068346515853" y2="177.08958963109032" /><path d="M 144.38136562736335 173.6633856474863 a86.0,86.0 0 0,1 -40.68145358897372,12.25698825130547" fill="none" id="id162" stroke="none" /><text fill="#e1ed5e" style="font-size:6.75px; font-family:Arial;" text-anchor="middle"><textPath startOffset="21.466115282336833" xlink:href="#id162">June</textPath></text><line stroke="#e1ed5e" stroke-width="0.3" x1="102.19456741930631" x2="102.32365962044197" y1="184.97166512339345" y2="189.96999836594603" /><path d="M 102.22038585953345 185.97133177190398 a86.0,86.0 0 0,1 -42.740103519485714,-10.115201625700543" fill="none" id="id163" stroke="none" /><text fill="#e1ed5e" style="font-size:6.75px; font-family:Arial;" text-anchor="middle"><textPath startOffset="22.20632615414155" xlink:href="#id163">July</textPath></text><line stroke="#e1ed5e" stroke-width="0.3" x1="58.666819895761336" x2="56.23545636021788" y1="174.27360380694188" y2="178.64263932499728" /><path d="M 58.180547188652646 175.14741091055294 a86.0,86.0 0 0,1 -31.652253787137756,-30.449443065178592" fill="none" id="id164" stroke="none" /><text fill="#e1ed5e" style="font-size:6.75px; font-family:Arial;" text-anchor="middle"><textPath startOffset="22.20632615414155" xlink:href="#id164">August</textPath></text><line stroke="#e1ed5e" stroke-width="0.3" x1="26.63291911575756" x2="22.317208475507996" y1="142.92168965132927" y2="145.44649492493687" /><path d="M 25.769776987707644 143.4266507060508 a86.0,86.0 0 0,1 -11.730757126820373,-40.83630448921669" fill="none" id="id165" stroke="none" /><text fill="#e1ed5e" style="font-size:6.75px; font-family:Arial;" text-anchor="middle"><textPath startOffset="21.46611528233685" xlink:href="#id165">September</textPath></text><line stroke="#e1ed5e" stroke-width="0.3" x1="15.007084014347285" x2="10.007500721073583" y1="101.09737516637583" y2="101.16192664675087" /><path d="M 14.007167355692545 101.11028546245083 a86.0,86.0 0 0,1 10.666146001902534,-42.60595125391555" fill="none" id="id166" stroke="none" /><text fill="#e1ed5e" style="font-size:6.75px; font-family:Arial;" text-anchor="middle"><textPath startOffset="22.20632615414155" xlink:href="#id166">October</textPath></text><line stroke="#e1ed5e" stroke-width="0.3" x1="26.266209847984243" x2="21.928928074336255" y1="57.711370442889674" y2="55.22380399835377" /><path d="M 25.398753493254645 57.213857153982495 a86.0,86.0 0 0,1 29.58750427330803,-30.492523968695096" fill="none" id="id167" stroke="none" /><text fill="#e1ed5e" style="font-size:6.75px; font-family:Arial;" text-anchor="middle"><textPath startOffset="21.46611528233685" xlink:href="#id167">November</textPath></text><line stroke="#e1ed5e" stroke-width="0.3" x1="56.762969772571076" x2="54.21961505331055" y1="26.818313649435495" y2="22.513508569990535" /><path d="M 56.25429882871897 25.957352633546506 a86.0,86.0 0 0,1 42.265352541879196,-11.944610805530505" fill="none" id="id168" stroke="none" /><text fill="#e1ed5e" style="font-size:6.75px; font-family:Arial;" text-anchor="middle"><textPath startOffset="22.20632615414155" xlink:href="#id168">December</textPath></text></svg>