<?xml version="1.0" encoding="utf-8" ?>
<svg baseProfile="full" height="200mm" version="1.1" viewBox="0,0,200,200" width="200mm" xmlns="http://www.w3.org/2000/svg" xmlns:ev="http://www.w3.org/2001/xml-events" xmlns:xlink="http://www.w3.org/1999/xlink"><defs /><rect fill="#1a1a1a" height="200" width="200" x="0" y="0" /><text alignment-baseline="middle" fill="#e1ed5e" style="dominant-baseline: central; font-size:9.0px; font-family:Arial;" text-anchor="middle" x="100.0" y="100.0">2023</text><line stroke="#e1ed5e" stroke-width="0.3" x1="100.0" x2="100.0" y1="15.0" y2="10.0" /><path d="M 100.0 14.0 a86.0,86.0 0 0,1 42.46469731375804,11.215312516191453" fill="none" id="id121" stroke="none" /><text fill="#e1ed5e" style="font-size:6.75px; font-family:Arial;" text-anchor="middle"><textPath startOffset="22.20632615414155" xlink:href="#id121">January</textPath></text><path d="M 100.36148047927253 79.00311137660856 l 0.2296606841172256 -13.340028250725355 a34.34200501274002,34.34200501274002 0 0,0 0.5909659955051704,0.015262908144382366 l -0.4592533148172637 13.334098550438613" fill="#ff900d" stroke="none" /><path d="M 102.16513564639614 79.11191278185805 l 1.382519896714775 -13.337823074255217 a34.40928356121039,34.40928356121039 0 0,0 0.5886171601696298,0.06613799631942792 l -1.6119037603941302 13.312049124465188" fill="#ff910d" stroke="none" /><path d="M 102.52436894288641 79.15227682838746 l 1.5824390563648612 -13.068712272034526 a34.164169317368064,34.164169317368064 0 0,0 0.5832072149066955,0.07571703465403147 l -1.8071609997794027 13.039536914216358" fill="#ff8e0d" stroke="none" /><path d="M 105.01212808612495 79.60689891045804 l 3.1128498129108495 -12.665410743788833 a34.04233350542075,34.04233350542075 0 0,0 0.5678441350175639,0.14475611359305882 l -3.3304028366134384 12.609951634026906" fill="#ff8c0c" stroke="none" /><path d="M 105.36241919743992 79.69619591428918 l 3.4507953854593216 -13.065795654261875 a34.5138079337852,34.5138079337852 0 0,0 0.5730970322589684,0.15664906778218948 l -3.675190306942001 13.004460045653392" fill="#ff930d" stroke="none" /><path d="M 105.71112130821622 79.79150937346287 l 2.1674217536616602 -7.669303422011305 a28.96968832747681,28.96968832747681 0 0,0 0.4787031066256144,0.139746563727511 l -2.2991150780107015 7.630858529365091" fill="#ff4406" stroke="none" /><path d="M 107.08798089147638 80.2323363322302 l 4.638728014355685 -12.93694447516279 a34.74344680000666,34.74344680000666 0 0,0 0.5612186294353562,0.20670155753988748 l -4.860728969563618 12.855179649816579" fill="#ff960d" stroke="none" /><path d="M 108.09893153111575 80.62456947434976 l 5.465888598346414 -13.076285975665591 a35.17269180808367,35.17269180808367 0 0,0 0.5565931795267489,0.23830415206063926 l -5.690165535663478 12.980262295642161" fill="#ff9c0e" stroke="none" /><path d="M 109.73455568895987 81.39251694778311 l 6.252535418425359 -11.95164428138035 a34.48836536379836,34.48836536379836 0 0,0 0.523656482542311,0.2797191576016634 l -6.457336947495981 11.842246397276933" fill="#ff920d" stroke="none" /><path d="M 110.05341064243156 81.56283822128135 l 7.196437673277686 -13.197698804094149 a36.032231002381465,36.032231002381465 0 0,0 0.5419863709830526,0.3016148286558755 l -7.422548133332773 13.071868577878092" fill="#ffa70f" stroke="none" /><line stroke="#e1ed5e" stroke-width="0.3" x1="143.23703022742887" x2="145.7803849466894" y1="26.81831364943548" y2="22.513508569990506" /><path d="M 143.74570117128098 25.957352633546492 a86.0,86.0 0 0,1 28.547481713284135,27.462654790039103" fill="none" id="id122" stroke="none" /><text fill="#e1ed5e" style="font-size:6.75px; font-family:Arial;" text-anchor="middle"><textPath startOffset="19.985693538727396" xlink:href="#id122">February</textPath></text><path d="M 110.68208982089419 81.91981866633111 l 5.240400543265207 -8.869743062632345 a31.3021424883841,31.3021424883841 0 0,0 0.46153955824115955,0.278072419638934 l -5.392302167724004 8.778224033534798" fill="#ff6609" stroke="none" /><path d="M 110.99172775467656 82.1063720568725 l 4.8656613571888485 -7.920896147172815 a30.295980648492012,30.295980648492012 0 0,0 0.4420051538475473,0.2767835867897034 l -5.001285663408659 7.835968219060168" fill="#ff5708" stroke="none" /><path d="M 111.60114157652 82.49532879139004 l 7.743134582018522 -11.683421332998675 a35.01636426465935,35.01636426465935 0 0,0 0.4995589691734508,0.3373044459691012 l -7.943098245598514 11.548404974730904" fill="#ff990e" stroke="none" /><path d="M 111.90073688211348 82.69761687909136 l 10.460735233384709 -15.208776609996487 a39.45897796725898,39.45897796725898 0 0,0 0.5563130780933425,0.38973286283111536 l -10.720979451061703 15.026458904401437" fill="#ffd513" stroke="none" /><path d="M 112.48926042617603 83.11751280151076 l 7.290671031086349 -9.855240114357823 a33.25885972654754,33.25885972654754 0 0,0 0.4573154127452866,0.34444048773696095 l -7.459232597590018 9.728283037115014" fill="#ff810b" stroke="none" /><path d="M 113.6212207817346 84.01681056812373 l 8.846182937120998 -10.380142859341497 a34.63826669109198,34.63826669109198 0 0,0 0.4504726398792594,0.3906454342721881 l -9.023549375647022 10.226332431649638" fill="#ff940d" stroke="none" /><path d="M 114.16331599549186 84.49514656593476 l 8.298602365728357 -9.084639037154863 a33.30436782853432,33.30436782853432 0 0,0 0.4199397160091631,0.3902881993469323 l -8.453749965532365 8.940446251733292" fill="#ff820b" stroke="none" /><path d="M 114.94478906791727 85.2469230424477 l 8.101575454965428 -7.997648251932048 a32.38410744916482,32.38410744916482 0 0,0 0.38820176823967323,0.400076046069791 l -8.238041486908209 7.857008010312144" fill="#ff750a" stroke="none" /><path d="M 115.4437574822437 85.77008943001954 l 23.621642052399768 -21.765030583276452 a53.12006428297833,53.12006428297833 0 0,0 0.61380578138808,0.6777796745088774 l -23.992791474403884 21.355198121498024" fill="#83ff25" stroke="none" /><path d="M 115.68641384162765 86.03803664274999 l 5.537182350306762 -4.9284647120703955 a28.412837027661666,28.412837027661666 0 0,0 0.32202316149619353,0.36812814092226737 l -5.621197375380803 4.83242101494518" fill="#ff3c05" stroke="none" /><path d="M 116.15771136456269 86.58626213691792 l 8.475452462094571 -7.036113904528029 a32.01545247889153,32.01545247889153 0 0,0 0.3483609127753709,0.4270492884046232 l -8.595311866946352 6.889180446515304" fill="#ff700a" stroke="none" /><path d="M 116.60985879189232 87.15038557335679 l 10.92218473633264 -8.44955181840248 a34.80902043399337,34.80902043399337 0 0,0 0.36255096505451523,0.47707457226530875 l -11.066011641611269 8.260292470256136" fill="#ff970d" stroke="none" /><path d="M 117.04232023915458 87.72973835380427 l 12.069183761053155 -8.689664348865994 a35.871969040917946,35.871969040917946 0 0,0 0.35647748769644694,0.5042121257998723 l -12.216973868553485 8.48062572273433" fill="#ffa50f" stroke="none" /><path d="M 117.2510076193507 88.02491185347247 l 15.98724712937499 -11.097826736789221 a40.46159883091578,40.46159883091578 0 0,0 0.39223769532862063,0.5755604183052845 l -16.175909290372346 10.82098829521353" fill="#ffe215" stroke="none" /><path d="M 117.65298651832404 88.62581576622439 l 11.808982779511036 -7.608771785341742 a35.04797075624094,35.04797075624094 0 0,0 0.322395274175453,0.5099519003530063 l -11.938205649932444 7.404372237274529" fill="#ff9a0e" stroke="none" /><line stroke="#e1ed5e" stroke-width="0.3" x1="172.23445277983987" x2="176.4835382374775" y1="55.19839476539836" y2="52.563006222186495" /><path d="M 173.08426987136738 54.67131705675599 a86.0,86.0 0 0,1 12.851231095245387,41.99856678651699" fill="none" id="id123" stroke="none" /><text fill="#e1ed5e" style="font-size:6.75px; font-family:Arial;" text-anchor="middle"><textPath startOffset="22.20632615414155" xlink:href="#id123">March</textPath></text><path d="M 117.84615892207809 88.93136811851018 l 8.034516274913457 -4.983206940000755 a30.454406548203906,30.454406548203906 0 0,0 0.27247151728457547,0.44787153285422154 l -8.119103590484256 4.844167633939452" fill="#ff5908" stroke="none" /><path d="M 118.03404312379186 89.2402003453031 l 12.038550449305768 -7.182659488964101 a35.01846262094693,35.01846262094693 0 0,0 0.30439436030363465,0.5203086326405244 l -12.16040448407973 6.974371443969682" fill="#ff990e" stroke="none" /><path d="M 118.56541770881063 90.18545643968196 l 20.908819757984062 -11.053374910718327 a44.650704864522794,44.650704864522794 0 0,0 0.3533583786302568,0.682575915800692 l -21.095987569774437 10.691826272657291" fill="#e7ff1a" stroke="none" /><path d="M 118.89224826269711 90.83032412892265 l 8.499694762600313 -4.125472251496429 a30.44798033207321,30.44798033207321 0 0,0 0.22479570783596736,0.4734770907555317 l -8.569448664278038 3.978552745100357" fill="#ff5908" stroke="none" /><path d="M 119.04729006885535 91.15688171328212 l 10.103458602709345 -4.690750191010523 a32.13925549985845,32.13925549985845 0 0,0 0.22864430029532667,0.5037874077502423 l -10.18270521996802 4.5161407744182185" fill="#ff710a" stroke="none" /><path d="M 119.196687751892 91.48605970444005 l 11.315382367951313 -5.018495437718112 a33.37833488767132,33.37833488767132 0 0,0 0.2284179434924062,0.5272201064054961 l -11.400091021286402 4.822976186726013" fill="#ff830c" stroke="none" /><path d="M 119.47837535516314 92.15188598940014 l 12.285005530001166 -4.949803166963939 a34.244693739903745,34.244693739903745 0 0,0 0.2155890187971919,0.5486505374204628 l -12.36838809868006 4.737603624647692" fill="#ff8f0d" stroke="none" /><path d="M 119.61058180528143 92.48833698450437 l 12.596795024089632 -4.825092913395876 a34.489283394674175,34.489283394674175 0 0,0 0.20758510318828122,0.5562248717245027 l -12.67798471577954 4.60754490464204" fill="#ff920d" stroke="none" /><path d="M 119.85752413597 93.16781622104841 l 5.498957078853947 -1.8919722870809803 a26.815332156477425,26.815332156477425 0 0,0 0.1464151692128847,0.4377627198720309 l -5.530709541838602 1.7970364642866352" fill="#ff2403" stroke="none" /><path d="M 119.97218684219823 93.5106431181261 l 8.869565789312277 -2.8818966219811233 a30.32601337285793,30.32601337285793 0 0,0 0.1570375073081117,0.49785181253537897 l -8.917858780388595 2.728794643019325" fill="#ff5808" stroke="none" /><path d="M 120.18372546131832 94.20196356495316 l 8.252589781824893 -2.370663251946093 a29.586342781487836,29.586342781487836 0 0,0 0.13639759008601948,0.49069470304592855 l -8.292174142477277 2.2282572454812124" fill="#ff4d07" stroke="none" /><path d="M 120.37134235888165 94.90015583598534 l 53.97157260736047 -13.511461578492204 a76.63713008143621,76.63713008143621 0 0,0 0.3093483291928889,1.282448538755041 l -54.19615373681418 12.580427808077756" fill="#43ffe3" stroke="none" /><path d="M 120.78858239683441 97.02765380044208 l 6.565348467499937 -0.9387118464180787 a27.632117341415892,27.632117341415892 0 0,0 0.06326965506088679,0.4714324196831536 l -6.580534121618659 0.8255610846702608" fill="#ff3004" stroke="none" /><path d="M 120.83666639777658 97.38593545837742 l 36.936224418016444 -4.633835024726112 a58.22575857245158,58.22575857245158 0 0,0 0.1162009994223668,0.9955392002963869 l -37.010515770442396 3.9973520861048724" fill="#4cff2c" stroke="none" /><path d="M 120.91429891909075 98.10471618934814 l 9.125341867294754 -0.8269515882246604 a30.16273502423102,30.16273502423102 0 0,0 0.04240811052410597,0.5174863641990586 l -9.138224461638355 0.6697513068178331" fill="#ff5507" stroke="none" /><path d="M 120.96714384426684 98.82574320788733 l 18.4111108395703 -1.0311071509921506 a39.439961613402836,39.439961613402836 0 0,0 0.032127401648320446,0.6781586711340476 l -18.426131849452116 0.7140373732351032" fill="#ffd513" stroke="none" /><line stroke="#e1ed5e" stroke-width="0.3" x1="184.98032266829074" x2="189.97916517819016" y1="98.17113171792111" y2="98.06355123074" /><path d="M 185.9800911702706 98.14961562048488 a86.0,86.0 0 0,1 -9.607161424134198,41.387399972396054" fill="none" id="id124" stroke="none" /><text fill="#e1ed5e" style="font-size:6.75px; font-family:Arial;" text-anchor="middle"><textPath startOffset="21.466115282336823" xlink:href="#id124">April</textPath></text><path d="M 120.99513854157772 99.54816195383933 l 20.630983183424043 -0.4440010297389254 a41.63576032108182,41.63576032108182 0 0,0 0.009253037955570958,0.7166579868645687 l -20.635569228497328 0.08880678481389394" fill="#fff116" stroke="none" /><path d="M 120.99980553446 99.90962569577887 l 5.834819066941269 -0.025110599837017036 a26.834873099405467,26.834873099405467 0 0,0 -0.0019879564198375123,0.4619310609067613 l -5.834386813231929 -0.07532993927342894" fill="#ff2503" stroke="none" /><path d="M 120.9764740272857 100.99374915477107 l 15.195123102613064 0.7198607697471984 a36.212165054041,36.212165054041 0 0,0 -0.03485619038120278,0.6223806943206373 l -15.180480561344332 -0.9813131804032589" fill="#ffaa0f" stroke="none" /><path d="M 120.95626037817324 101.35467743843564 l 13.662995263879933 0.8832182408226307 a34.691512481889184,34.691512481889184 0 0,0 -0.043650911662409336,0.595582008822793 l -13.645767793553187 -1.1182733861421938" fill="#ff950d" stroke="none" /><path d="M 120.8583938346157 102.4346265915055 l 55.318103846427036 6.456821540720313 a76.69365455393276,76.69365455393276 0 0,0 -0.16433803358431273,1.3099358213005412 l -55.19876430359587 -7.4080751163082486" fill="#44ffe4" stroke="none" /><path d="M 120.64145759157962 103.86396538481128 l 6.459457581913731 1.2091743226192095 a27.571658450880143,27.571658450880143 0 0,0 -0.09134105363808706,0.4657460646390867 l -6.437686595299979 -1.3201841143262412" fill="#ff2f04" stroke="none" /><path d="M 120.41448212921028 104.9243191809786 l 26.90945057421113 6.491015680607401 a48.68125385114993,48.68125385114993 0 0,0 -0.20350777590766475,0.8129124032774565 l -26.793731484008404 -6.953255923282253" fill="#b6ff1f" stroke="none" /><path d="M 119.79798401119884 107.00284435728193 l 7.036507244708335 2.4889183174259637 a28.463722167635353,28.463722167635353 0 0,0 -0.16736091091384214,0.46050534818378724 l -6.992622072789266 -2.609671462615882" fill="#ff3d05" stroke="none" /><path d="M 119.41010516605496 108.01547362559984 l 9.937589502504405 4.103763780665355 a31.751584175729015,31.751584175729015 0 0,0 -0.2129609274638687,0.5033767248835866 l -9.865477593848228 -4.274215031215105" fill="#ff6c09" stroke="none" /><path d="M 119.12269723197855 108.67885076344098 l 6.628949060440146 3.008553600786148 a28.279722550668644,28.279722550668644 0 0,0 -0.20499483813994268,0.4415406441565034 l -6.576179605460372 -3.122214312221482" fill="#ff3a05" stroke="none" /><path d="M 118.81262510543309 109.33194174019688 l 24.390040384850813 12.098600521558474 a48.22591053674621,48.22591053674621 0 0,0 -0.37529249765159284,0.7404877018750702 l -24.17816921741295 -12.516642435136239" fill="#bcff1f" stroke="none" /><line stroke="#e1ed5e" stroke-width="0.3" x1="174.80103733775053" x2="179.2010983576182" y1="140.37084112569926" y2="142.7455964860345" /><path d="M 175.68104954172406 140.8457921977663 a86.0,86.0 0 0,1 -30.038265399797805,32.042727171017184" fill="none" id="id125" stroke="none" /><text fill="#e1ed5e" style="font-size:6.75px; font-family:Arial;" text-anchor="middle"><textPath startOffset="22.206326154141568" xlink:href="#id125">May</textPath></text><path d="M 118.12598468904814 110.60418214915192 l 11.395603148336637 6.666730307756686 a34.2024643196163,34.2024643196163 0 0,0 -0.30166430905914093,0.505606733681758 l -11.279157963579268 -6.861899135324548" fill="#ff8e0d" stroke="none" /><path d="M 117.35343817320211 111.8261652097733 l 11.986174966835266 8.168438091417512 a35.504887837860345,35.504887837860345 0 0,0 -0.34852120810507786,0.5020707942153546 l -11.843792851568052 -8.373550147819886" fill="#ffa00e" stroke="none" /><path d="M 116.0416608686014 113.55231037782055 l 5.435168870452926 4.5917374822715855 a28.115132729362,28.115132729362 0 0,0 -0.31550198200409096,0.3670000829157799 l -5.3553243788780565 -4.684614664348893" fill="#ff3705" stroke="none" /><path d="M 115.80600337817218 113.82643327865902 l 4.830975806437818 4.225936377488788 a27.41847844188719,27.41847844188719 0 0,0 -0.3137994595054954,0.3525570193196544 l -4.757517497283985 -4.308467566549309" fill="#ff2d04" stroke="none" /><path d="M 114.29624159901734 115.38237550388516 l 4.775582045459212 5.138399191429086 a28.014936216630304,28.014936216630304 0 0,0 -0.35605709989884277,0.3252497187252369 l -4.686425396093505 -5.219841676740906" fill="#ff3605" stroke="none" /><path d="M 113.48314897796784 116.09983520530334 l 8.574801778330164 10.23892087633558 a34.35525088680534,34.35525088680534 0 0,0 -0.45664651256423144,0.3757889915040684 l -8.39728513722124 -10.385004986696828" fill="#ff900d" stroke="none" /><path d="M 112.92097659922987 116.55440617244103 l 8.61622586877301 11.039142560916295 a35.003642979665926,35.003642979665926 0 0,0 -0.47816855090174076,0.36663925467842984 l -8.424928589377776 -11.185821157422096" fill="#ff990e" stroke="none" /><path d="M 112.04921762599082 117.19931262002967 l 5.042262569418913 7.197434135195859 a29.787916132362984,29.787916132362984 0 0,0 -0.4224821781645364,0.2905870945397457 l -4.917623506631493 -7.283162019100699" fill="#ff5007" stroke="none" /><path d="M 111.45004920935366 117.60387380957326 l 7.543823743203617 11.59824894975411 a34.83577447665995,34.83577447665995 0 0,0 -0.5054806868013025,0.3226216903075329 l -7.3430612543553835 -11.72638506888545" fill="#ff970d" stroke="none" /><line stroke="#e1ed5e" stroke-width="0.3" x1="143.8653032363475" x2="146.44561519142675" y1="172.8068346515853" y2="177.08958963109032" /><path d="M 144.38136562736335 173.6633856474863 a86.0,86.0 0 0,1 -40.68145358897372,12.25698825130547" fill="none" id="id126" stroke="none" /><text fill="#e1ed5e" style="font-size:6.75px; font-family:Arial;" text-anchor="middle"><textPath startOffset="21.466115282336833" xlink:href="#id126">June</textPath></text><path d="M 110.8373102113329 117.98757091392108 l 7.080631986190636 11.75230453713451 a34.72049602811131,34.72049602811131 0 0,0 -0.5145778046561755,0.30402163715801467 l -6.877286310506078 -11.872444746586273" fill="#ff950d" stroke="none" /><path d="M 110.21172684928248 118.3499491758327 l 7.580864119114454 13.622423841509056 a36.58973803853648,36.58973803853648 0 0,0 -0.5529880082444502,0.30153315320142177 l -7.345253299001355 -13.750897646470248" fill="#ffaf10" stroke="none" /><path d="M 109.89434966115114 118.52300852407294 l 4.7337683389124 8.861990357682542 a31.047061052175795,31.047061052175795 0 0,0 -0.4735550526108199,0.24774162193199767 l -4.580522383775084 -8.942161398559255" fill="#ff6209" stroke="none" /><path d="M 109.2508944713604 118.85261126421891 l 6.584370011621799 13.418439550162972 a35.946854130930774,35.946854130930774 0 0,0 -0.5578392565006591,0.26779674295610684 l -6.352418087120907 -13.529790569618639" fill="#ffa60f" stroke="none" /><path d="M 108.59647513512805 119.15986991738527 l 6.112893096987902 13.624448941702896 a35.93295252052559,35.93295252052559 0 0,0 -0.5665075084785989,0.24834024359598272 l -5.877464913851549 -13.727653738593334" fill="#ffa60f" stroke="none" /><path d="M 107.93186726928326 119.44442032107085 l 11.180231567012742 27.40755921594542 a50.60020067613703,50.60020067613703 0 0,0 -0.8093114740555494,0.32204173781199424 l -10.706799016915326 -27.595947798163483" fill="#a0ff22" stroke="none" /><path d="M 106.2309692047433 120.05430185196036 l 2.575773214541778 8.290096106925484 a29.681031108964646,29.681031108964646 0 0,0 -0.48920703101096413,0.14739406541713593 l -2.432691209090568 -8.333205541448345" fill="#ff4e07" stroke="none" /><path d="M 105.18746579009965 120.34920634021253 l 3.3398301166091375 13.101366820354452 a34.52036529718387,34.52036529718387 0 0,0 -0.5770600403352782,0.14182731811338342 l -3.113816791530648 -13.156915396781866" fill="#ff930d" stroke="none" /><path d="M 104.48393922423573 120.51570834832081 l 2.859046106728335 13.081211217807759 a34.39000491281829,34.39000491281829 0 0,0 -0.5794036847447976,0.12141967557477823 l -2.633450960554159 -13.128486874109077" fill="#ff910d" stroke="none" /><path d="M 103.41894727170886 120.7198165907248 l 3.229870895661311 19.573958663706808 a40.83864722633937,40.83864722633937 0 0,0 -0.6945761984758061,0.10847851752093496 l -2.892458833576988 -19.626655488574848" fill="#ffe715" stroke="none" /><path d="M 102.70371172650421 120.8252237178851 l 1.1317658850824606 8.717378233065775 a29.79053907772245,29.79053907772245 0 0,0 -0.5090955965481339,0.061644386886152425 l -0.9815428654829463 -8.73556814867728" fill="#ff5007" stroke="none" /><path d="M 101.98527174616119 120.90594882070398 l 0.8315621177168131 8.756783602969989 a29.79617841024531,29.79617841024531 0 0,0 -0.5110125220969831,0.044092310635081865 l -0.6807052778782883 -8.769800165883733" fill="#ff5007" stroke="none" /><path d="M 101.26447882468166 120.96189622390904 l 0.4950271292663626 8.20631165121604 a29.22122878744983,29.22122878744983 0 0,0 -0.5023434403756618,0.025965417896177272 l -0.35369562047722114 -8.21361687587442" fill="#ff4806" stroke="none" /><line stroke="#e1ed5e" stroke-width="0.3" x1="102.19456741930631" x2="102.32365962044197" y1="184.97166512339345" y2="189.96999836594603" /><path d="M 102.22038585953345 185.97133177190398 a86.0,86.0 0 0,1 -42.740103519485714,-10.115201625700543" fill="none" id="id127" stroke="none" /><text fill="#e1ed5e" style="font-size:6.75px; font-family:Arial;" text-anchor="middle"><textPath startOffset="22.20632615414155" xlink:href="#id127">July</textPath></text><path d="M 100.54218724476979 120.99299961872073 l 0.4729996123643699 18.314117083732352 a39.320224157743105,39.320224157743105 0 0,0 -0.6767578101459275,0.011650999438575794 l -0.15768211232577442 -18.319545560450088" fill="#ffd313" stroke="none" /><path d="M 99.45781275523022 120.99299961872073 l -0.31378227871177294 12.149365963329878 a33.15341732309691,33.15341732309691 0 0,0 -0.5703645214891547,-0.019644507362625192 l 0.5228671518755706 -12.142164657541159" fill="#ff800b" stroke="none" /><path d="M 98.01472825383883 120.90594882070398 l -5.955815238483529 62.71784646211194 a84.0,84.0 0 0,0 -1.4382696135776267,-0.14908252617695705 l 7.034517448666749 -62.60603456747922" fill="#4dd2ff" stroke="none" /><path d="M 95.51606077576429 120.51570834832081 l -1.2087918910972848 5.5306775251384215 a26.661234116608657,26.661234116608657 0 0,0 -0.44750227706781587,-0.10185006131830304 l 1.3038143175579633 -5.509050730242431" fill="#ff2203" stroke="none" /><path d="M 94.46302465271185 120.25689768951611 l -2.9493128381990417 10.789993574205674 a32.18581277998901,32.18581277998901 0 0,0 -0.5331638616846841,-0.15067743294195998 l 3.13460786798834 -10.737627347925192" fill="#ff720a" stroke="none" /><path d="M 93.76903079525671 120.05430185196036 l -2.641653051567125 8.502129595497157 a29.903063433643645,29.903063433643645 0 0,0 -0.49023745031405336,-0.15695855040213139 l 2.7876118469721187 -8.45539819843532" fill="#ff5107" stroke="none" /><path d="M 93.08242187328487 119.8279376855182 l -4.615035629648007 13.22813233257398 a35.01006919579663,35.01006919579663 0 0,0 -0.5672972251585405,-0.20341260147335116 l 4.8420524154362745 -13.146732190060671" fill="#ff990e" stroke="none" /><path d="M 92.7421414339146 119.70592522655815 l -2.285523800125049 6.205461390393992 a27.612969840291772,27.612969840291772 0 0,0 -0.44460797125003915,-0.16811269113495542 l 2.3920019921353712 -6.165200449152404" fill="#ff3004" stroke="none" /><path d="M 91.07499286063937 119.00905698771935 l -3.350500623436099 7.136112755294513 a28.883524572418274,28.883524572418274 0 0,0 -0.44822736960261145,-0.21517637614164975 l 3.472840661038952 -7.077382102653301" fill="#ff4306" stroke="none" /><path d="M 90.7491055286396 118.85261126421891 l -16.294019308570363 33.20595785706557 a57.98825087015171,57.98825087015171 0 0,0 -0.892317936619109,-0.44742673763732016 l 16.863191152872233 -32.92056327851895" fill="#4fff2b" stroke="none" /><line stroke="#e1ed5e" stroke-width="0.3" x1="58.666819895761336" x2="56.23545636021788" y1="174.27360380694188" y2="178.64263932499728" /><path d="M 58.180547188652646 175.14741091055294 a86.0,86.0 0 0,1 -31.652253787137756,-30.449443065178592" fill="none" id="id128" stroke="none" /><text fill="#e1ed5e" style="font-size:6.75px; font-family:Arial;" text-anchor="middle"><textPath startOffset="22.20632615414155" xlink:href="#id128">August</textPath></text><path d="M 86.51685102203217 116.09983520530335 l -5.351062299537517 6.389547526074298 a29.33427773244292,29.33427773244292 0 0,0 -0.38432726304152115,-0.3275320313658976 l 5.4602550391560944 -6.296491104485448" fill="#ff4906" stroke="none" /><path d="M 86.24171649860922 115.8653595955263 l -7.7842723848121125 8.976430857968944 a32.88154903658801,32.88154903658801 0 0,0 -0.42441882450686685,-0.3745002662967402 l 7.9376335622255665 -8.841107449899916" fill="#ff7c0b" stroke="none" /><path d="M 85.70375840098266 115.38237550388516 l -5.52938636428761 5.949472577980265 a29.1222126001299,29.1222126001299 0 0,0 -0.36425531777649317,-0.3444261386282616 l 5.630977516454921 -5.853411802606072" fill="#ff4606" stroke="none" /><path d="M 85.44109423537348 115.13401014063109 l -6.726405035641267 6.992110785325794 a30.70227488467367,30.70227488467367 0 0,0 -0.37771115136318567,-0.3696698592682244 l 6.845766139380246 -6.875290823135" fill="#ff5d08" stroke="none" /><path d="M 84.67929136418377 114.36230785411682 l -10.00214148523838 9.376448480692193 a34.70987309940546,34.70987309940546 0 0,0 -0.40487181398627564,-0.4394083909276916 l 10.162059707220385 -9.202888834963158" fill="#ff950d" stroke="none" /><path d="M 84.43433777217949 114.09645910891817 l -11.673566206173591 10.571728094321886 a36.74908196912419,36.74908196912419 0 0,0 -0.42058650642032464,-0.4725333985701809 l 11.853811562242255 -10.36922052601084" fill="#ffb110" stroke="none" /><path d="M 83.95833913139862 113.55231037782056 l -6.398518065120042 5.4055938151844884 a29.37624485819441,29.37624485819441 0 0,0 -0.3230044021840011,-0.3890796102655491 l 6.490618467197579 -5.2946529478051785" fill="#ff4a06" stroke="none" /><path d="M 83.72743513129214 113.27417163493432 l -6.45454197381495 5.265223932219044 a29.329687578063847,29.329687578063847 0 0,0 -0.3157579526870135,-0.39395659598177507 l 6.544217838556825 -5.1533395026590085" fill="#ff4906" stroke="none" /><path d="M 83.06392112726016 112.41649034213515 l -22.439557081712735 16.4513017375788 a48.824073225972995,48.824073225972995 0 0,0 -0.49107766113612195,-0.6820639204520625 l 22.719414535224463 -16.0626042116756" fill="#b5ff20" stroke="none" /><path d="M 82.24976979558568 111.22182372390057 l -6.677398226534873 4.22149938167143 a28.89991798091495,28.89991798091495 0 0,0 -0.2622122040981024,-0.4227695631895257 l 6.749075070300931 -4.105933487116641" fill="#ff4306" stroke="none" /><line stroke="#e1ed5e" stroke-width="0.3" x1="26.63291911575756" x2="22.317208475507996" y1="142.92168965132927" y2="145.44649492493687" /><path d="M 25.769776987707644 143.4266507060508 a86.0,86.0 0 0,1 -11.730757126820373,-40.83630448921669" fill="none" id="id129" stroke="none" /><text fill="#e1ed5e" style="font-size:6.75px; font-family:Arial;" text-anchor="middle"><textPath startOffset="21.46611528233685" xlink:href="#id129">September</textPath></text><path d="M 81.69416730710424 110.29060199501025 l -7.450015398966253 4.188017262782692 a29.546474012023914,29.546474012023914 0 0,0 -0.24540962310593648,-0.445489749980921 l 7.521001431523707 -4.059156994403948" fill="#ff4c07" stroke="none" /><path d="M 81.51974371655577 109.97397251340807 l -11.12356192510194 6.003493630743191 a33.64023598181425,33.64023598181425 0 0,0 -0.2706396900881169,-0.5119483004165363 l 11.225254123414944 -5.811130315240528" fill="#ff860c" stroke="none" /><path d="M 81.18737489456691 109.33194174019688 l -8.31748335266001 4.125860672664151 a30.284570836178325,30.284570836178325 0 0,0 -0.22763432768150504,-0.46899413808461154 l 8.387270936956234 -3.9820775786142546" fill="#ff5708" stroke="none" /><path d="M 80.87730276802145 108.67885076344099 l -11.009873743966596 4.996839618859927 a33.090728929005614,33.090728929005614 0 0,0 -0.23094006368030093,-0.520708877202818 l 11.094254892378178 -4.806582405164414" fill="#ff7f0b" stroke="none" /><path d="M 80.58989483394504 108.01547362559985 l -5.267415794413659 2.1751985377713443 a26.69887338251703,26.69887338251703 0 0,0 -0.17175942839290784,-0.4262928153829932 l 5.304077837063955 -2.084206354545546" fill="#ff2303" stroke="none" /><path d="M 80.20201598880116 107.00284435728193 l -13.564975476422573 4.7981356040089755 a35.38856021116791,35.38856021116791 0 0,0 -0.198191388597666,-0.57603694659739 l 13.645557695963468 -4.563925954322289" fill="#ff9f0e" stroke="none" /><path d="M 79.97269907076064 106.31721596034903 l -13.82803298293443 4.361779501325141 a35.499641947141406,35.499641947141406 0 0,0 -0.1788053192202812,-0.5843461288184136 l 13.90106507466084 -4.123106399954679" fill="#ffa00e" stroke="none" /><path d="M 79.76711848015287 105.62410040840567 l -25.45705014282728 7.0762538674797915 a47.42224007860509,47.42224007860509 0 0,0 -0.2118462650455297,-0.7883587609793992 l 25.575084484214585 -6.637004173324853" fill="#c5ff1e" stroke="none" /><path d="M 79.67330655649465 105.27499134158121 l -11.444618636813676 2.9699992467874905 a32.82371309141173,32.82371309141173 0 0,0 -0.13721669677386272,-0.5481124947031174 l 11.494046647882596 -2.772558912686981" fill="#ff7b0b" stroke="none" /><path d="M 79.50377843672027 104.57218783832718 l -14.58329528697951 3.2531637671852063 a35.94173938747981,35.94173938747981 0 0,0 -0.12950315526996617,-0.6049956276009459 l 14.637132480973916 -3.0016543201680967" fill="#ffa60f" stroke="none" /><path d="M 79.35854240842038 103.8639653848113 l -14.649377926596822 2.7422815935479203 a35.90383782703549,35.90383782703549 0 0,0 -0.10848696399058161,-0.6084525075884518 l 14.694411332926592 -2.489710335226255" fill="#ffa60f" stroke="none" /><path d="M 79.23777060512086 103.15116336523772 l -7.329294836388199 1.1123952511163815 a28.41323046946559,28.41323046946559 0 0,0 -0.06922809050734718,-0.48418110376965284 l 7.347356977912145 -0.986068675366328" fill="#ff3c05" stroke="none" /><path d="M 79.04373962182676 101.35467743843564 l -15.09305665632439 0.9756618289897309 a36.124558679034756,36.124558679034756 0 0,0 -0.03477186445146583,-0.6208749981982755 l 15.107614871663387 -0.7157151144560178" fill="#ffa90f" stroke="none" /><path d="M 79.0095281055655 100.63252640178507 l -15.051365966120756 0.4535575190677339 a36.0581981614402,36.0581981614402 0 0,0 -0.013355162142441016,-0.6205619066572449 l 15.056943190948205 -0.1944057966203602" fill="#ffa80f" stroke="none" /><line stroke="#e1ed5e" stroke-width="0.3" x1="15.007084014347285" x2="10.007500721073583" y1="101.09737516637583" y2="101.16192664675087" /><path d="M 14.007167355692545 101.11028546245083 a86.0,86.0 0 0,1 10.666146001902534,-42.60595125391555" fill="none" id="id130" stroke="none" /><text fill="#e1ed5e" style="font-size:6.75px; font-family:Arial;" text-anchor="middle"><textPath startOffset="22.20632615414155" xlink:href="#id130">October</textPath></text><path d="M 79.00175016825051 100.2711162175752 l -13.195594009607849 0.17037322468340388 a34.19669383982547,34.19669383982547 0 0,0 -0.0025333280617453376,-0.5886562238032224 l 13.196571634959096 0.05679247732349384" fill="#ff8e0d" stroke="none" /><path d="M 79.00019446554 99.90962569577889 l -10.51974953666195 -0.045272564233806045 a31.519846953219975,31.519846953219975 0 0,0 0.0070049000657796566,-0.5425372297653392 l 10.517411629478454 0.22634605205961725" fill="#ff6909" stroke="none" /><path d="M 79.01574976396665 99.18683210126434 l -21.90705297021701 -0.848927744899473 a42.923495345312844,42.923495345312844 0 0,0 0.03496505368402438,-0.7380570206719731 l 21.889194308299484 1.2258958721944553" fill="#fdff18" stroke="none" /><path d="M 79.03285615573316 98.82574320788736 l -10.14643971933163 -0.5682474372609663 a31.162339500724435,31.162339500724435 0 0,0 0.034604159051272565,-0.5353110243598412 l 10.135154969275943 0.7428175258738193" fill="#ff6409" stroke="none" /><path d="M 79.05617556472873 98.46500227214037 l -13.425339555949185 -0.9839590557023851 a34.46134902659583,34.46134902659583 0 0,0 0.048451862775557804,-0.591235449929893 l 13.40641320935413 1.2149084228400564" fill="#ff920d" stroke="none" /><path d="M 79.12142395522702 97.74499172005258 l -15.031109180300758 -1.6234476712245771 a36.11852590470798,36.11852590470798 0 0,0 0.07208165098557337,-0.6175515661219565 l 15.000937176311597 1.8819429756713952" fill="#ffa80f" stroke="none" /><path d="M 79.21141760316559 97.0276538004421 l -13.411123130170916 -1.917518958572023 a34.54751278165437,34.54751278165437 0 0,0 0.089238045939768,-0.5879672253718484 l 13.376129190791845 2.1480852963359633" fill="#ff930d" stroke="none" /><path d="M 79.26566170972629 96.67025291283419 l -10.420949903354757 -1.6735102466459408 a31.554469831964962,31.554469831964962 0 0,0 0.09073884256517357,-0.5355457852510371 l 10.39059919926936 1.852641820212806" fill="#ff6909" stroke="none" /><path d="M 79.32604984820605 96.31383870115002 l -10.36413143372039 -1.8479226227533314 a31.527584642030412,31.527584642030412 0 0,0 0.09985878425405798,-0.533449618474653 l 10.33078692555647 2.026050318690557" fill="#ff6909" stroke="none" /><path d="M 79.46518482838121 95.60439243477599 l -32.06463836863327 -6.8636394246262675 a53.79101370593036,53.79101370593036 0 0,0 0.2016026051193832,-0.9037449484518848 l 31.941741376511846 7.414562542628112" fill="#7cff26" stroke="none" /><path d="M 79.71946130924805 94.55025226153421 l -9.970721650690855 -2.679313335572431 a31.32443752393958,31.32443752393958 0 0,0 0.14441047413737432,-0.5195213103022706 l 9.923124405987119 2.8505459492936436" fill="#ff6609" stroke="none" /><path d="M 79.81627453868168 94.20196356495316 l -14.11578438251199 -4.054941805263936 a35.686657951271506,35.686657951271506 0 0,0 0.17468466615153927,-0.5889498538637457 l 14.043893819248744 4.297321045874221" fill="#ffa30f" stroke="none" /><path d="M 79.91906864156998 93.8553929516997 l -7.913971062074826 -2.421612897334833 a29.276179492730698,29.276179492730698 0 0,0 0.1516011417167729,-0.48061704798996785 l 7.871114436589849 2.557480111751216" fill="#ff4806" stroke="none" /><path d="M 80.2630227832202 92.82701384747504 l -13.210959028518037 -4.801243125141297 a35.056364181391245,35.056364181391245 0 0,0 0.21099826554017856,-0.565370449910026 l 13.12635617447623 5.027936712080664" fill="#ff9a0e" stroke="none" /><path d="M 80.52162464483688 92.15188598940014 l -7.606799128710112 -3.0648873804572303 a29.201032108181927,29.201032108181927 0 0,0 0.19186234054613624,-0.4646098760168065 l 7.552915101277776 3.195371826927348" fill="#ff4706" stroke="none" /><path d="M 80.65960295795068 91.81776055985345 l -7.561973816397725 -3.199204249600489 a29.210868153279932,29.210868153279932 0 0,0 0.19989872034223344,-0.4613938073243342 l 7.50578438621281 3.3288972015114227" fill="#ff4706" stroke="none" /><path d="M 80.95270993114464 91.15688171328213 l -7.484246069030769 -3.4747238602493575 a29.251523806351692,29.251523806351692 0 0,0 0.2159623373246557,-0.4548717596683654 l 7.423325537864362 3.603038035558255" fill="#ff4806" stroke="none" /><path d="M 81.10775173730289 90.83032412892265 l -3.064165859434109 -1.4872453164672017 a24.40602569653771,24.40602569653771 0 0,0 0.18669445960716632,-0.3763646383176996 l 3.0381113868735294 1.539769543283863" fill="#ff0000" stroke="none" /><path d="M 81.26839172434947 90.50648371742162 l -49.80860262402524 -25.243896469815432 a76.84040834679502,76.84040834679502 0 0,0 0.6081024294934366,-1.1746603386655141 l 49.36669076137169 26.097529530741284" fill="#44ffe5" stroke="none" /><line stroke="#e1ed5e" stroke-width="0.3" x1="26.266209847984243" x2="21.928928074336255" y1="57.711370442889674" y2="55.22380399835377" /><path d="M 25.398753493254645 57.213857153982495 a86.0,86.0 0 0,1 29.58750427330803,-30.492523968695096" fill="none" id="id131" stroke="none" /><text fill="#e1ed5e" style="font-size:6.75px; font-family:Arial;" text-anchor="middle"><textPath startOffset="21.46611528233685" xlink:href="#id131">November</textPath></text><line stroke="#e1ed5e" stroke-width="0.3" x1="56.762969772571076" x2="54.21961505331055" y1="26.818313649435495" y2="22.513508569990535" /><path d="M 56.25429882871897 25.957352633546506 a86.0,86.0 0 0,1 42.265352541879196,-11.944610805530505" fill="none" id="id132" stroke="none" /><text fill="#e1ed5e" style="font-size:6.75px; font-family:Arial;" text-anchor="middle"><textPath startOffset="22.20632615414155" xlink:href="#id132">December</textPath></text><path d="M 89.94658935756843 81.56283822128135 l -4.22609658113256 -7.750327638062669 a29.82765375455893,29.82765375455893 0 0,0 0.4528902452418908,-0.24191828442577865 l 4.0920612893623645 7.821924648990197" fill="#ff5007" stroke="none" /></svg>