<?xml version="1.0" encoding="utf-8" ?>
<svg baseProfile="full" height="200mm" version="1.1" viewBox="0,0,200,200" width="200mm" xmlns="http://www.w3.org/2000/svg" xmlns:ev="http://www.w3.org/2001/xml-events" xmlns:xlink="http://www.w3.org/1999/xlink"><defs /><rect fill="#1a1a1a" height="200" width="200" x="0" y="0" /><text alignment-baseline="middle" fill="#e1ed5e" style="dominant-baseline: central; font-size:9.0px; font-family:Arial;" text-anchor="middle" x="100.0" y="100.0">2015</text><line stroke="#e1ed5e" stroke-width="0.3" x1="100.0" x2="100.0" y1="15.0" y2="10.0" /><path d="M 100.0 14.0 a86.0,86.0 0 0,1 42.46469731375804,11.215312516191453" fill="none" id="id25" stroke="none" /><text fill="#e1ed5e" style="font-size:6.75px; font-family:Arial;" text-anchor="middle"><textPath startOffset="22.20632615414155" xlink:href="#id25">January</textPath></text><path d="M 102.16513564639614 79.11191278185805 l 4.118297931797459 -39.73116720555814 a60.94403616775683,60.94403616775683 0 0,0 1.0425298578078959,0.11714037674117728 l -4.801594493115081 39.65439087534636" fill="red" stroke="none" /><path d="M 109.41281617654863 81.2277094730956 l 19.30840587996678 -38.50739226090242 a64.07706810311657,64.07706810311657 0 0,0 0.9817202213447062,0.5028752275930268 l -19.96838658890024 38.16932450799689" fill="red" stroke="none" /><line stroke="#e1ed5e" stroke-width="0.3" x1="143.23703022742887" x2="145.7803849466894" y1="26.81831364943548" y2="22.513508569990506" /><path d="M 143.74570117128098 25.957352633546492 a86.0,86.0 0 0,1 28.547481713284135,27.462654790039103" fill="none" id="id26" stroke="none" /><text fill="#e1ed5e" style="font-size:6.75px; font-family:Arial;" text-anchor="middle"><textPath startOffset="19.985693538727396" xlink:href="#id26">February</textPath></text><path d="M 113.6212207817346 84.01681056812373 l 21.981710170554383 -25.793417735633415 a54.88946710273182,54.88946710273182 0 0,0 0.713840659749071,0.6190355858317252 l -22.422444628950217 25.41121715638202" fill="red" stroke="none" /><line stroke="#e1ed5e" stroke-width="0.3" x1="172.23445277983987" x2="176.4835382374775" y1="55.19839476539836" y2="52.563006222186495" /><path d="M 173.08426987136738 54.67131705675599 a86.0,86.0 0 0,1 12.851231095245387,41.99856678651699" fill="none" id="id27" stroke="none" /><text fill="#e1ed5e" style="font-size:6.75px; font-family:Arial;" text-anchor="middle"><textPath startOffset="22.20632615414155" xlink:href="#id27">March</textPath></text><path d="M 118.73160827565052 90.50648371742162 l 26.688757993515832 -13.52634300507961 a50.920757983839934,50.920757983839934 0 0,0 0.3895195191869851,0.7852475818777195 l -26.917637525656225 13.064935834702942" fill="red" stroke="none" /><path d="M 119.04729006885535 91.15688171328212 l 26.71201046843688 -12.401631276392333 a50.45050019238169,50.45050019238169 0 0,0 0.3589137065134306,0.7908187764876824 l -26.921526491913657 11.939990491062588" fill="red" stroke="none" /><path d="M 119.47837535516314 92.15188598940014 l 28.051783391922985 -11.302461845315396 a51.24315121200462,51.24315121200462 0 0,0 0.3226035768863986,0.8209909151216546 l -28.242180518691086 10.817921925297956" fill="red" stroke="none" /><line stroke="#e1ed5e" stroke-width="0.3" x1="184.98032266829074" x2="189.97916517819016" y1="98.17113171792111" y2="98.06355123074" /><path d="M 185.9800911702706 98.14961562048488 a86.0,86.0 0 0,1 -9.607161424134198,41.387399972396054" fill="none" id="id28" stroke="none" /><text fill="#e1ed5e" style="font-size:6.75px; font-family:Arial;" text-anchor="middle"><textPath startOffset="21.466115282336823" xlink:href="#id28">April</textPath></text><path d="M 120.95626037817324 101.35467743843564 l 29.895327004472694 1.9325263323124058 a50.95772412466333,50.95772412466333 0 0,0 -0.06411802066699553,0.8748394499965587 l -29.85763242514136 -2.4468389188057347" fill="red" stroke="none" /><path d="M 120.89721153311464 102.0752229133903 l 33.77364070191283 3.3539323149481675 a54.939765294343985,54.939765294343985 0 0,0 -0.1015540592761342,0.9402644629320721 l -33.710904341135645 -3.934793099765031" fill="red" stroke="none" /><line stroke="#e1ed5e" stroke-width="0.3" x1="174.80103733775053" x2="179.2010983576182" y1="140.37084112569926" y2="142.7455964860345" /><path d="M 175.68104954172406 140.8457921977663 a86.0,86.0 0 0,1 -30.038265399797805,32.042727171017184" fill="none" id="id29" stroke="none" /><text fill="#e1ed5e" style="font-size:6.75px; font-family:Arial;" text-anchor="middle"><textPath startOffset="22.206326154141568" xlink:href="#id29">May</textPath></text><path d="M 117.14729908036423 112.12312394758627 l 24.387892914818163 17.24221682033678 a50.86742978068489,50.86742978068489 0 0,0 -0.5116299561712241,0.7106092607012992 l -24.087483166271333 -17.659459686489207" fill="red" stroke="none" /><path d="M 115.80600337817218 113.82643327865902 l 25.034027378154484 21.89872423525973 a54.26043670642555,54.26043670642555 0 0,0 -0.6210007512669451,0.6977009272321774 l -24.6533677772392 -22.326399332232775" fill="red" stroke="none" /><path d="M 114.55890576462653 115.13401014063108 l 20.020035903116103 20.810865271874338 a49.87722200846479,49.87722200846479 0 0,0 -0.6238551857979928,0.5898940172493656 l -19.658844882927305 -21.152393925869628" fill="red" stroke="none" /><path d="M 114.29624159901734 115.38237550388516 l 18.163762748793832 19.543725337198612 a47.68106964217007,47.68106964217007 0 0,0 -0.6060047128284299,0.553570936935712 l -17.82465848649854 -19.853489040720905" fill="red" stroke="none" /><path d="M 112.63410532772338 116.77436683061366 l 8.400780731860385 11.153759922402845 a34.9635051943055,34.9635051943055 0 0,0 -0.4838533379197035,0.35794313209338524 l -8.207542423522117 -11.296713003235999" fill="red" stroke="none" /><line stroke="#e1ed5e" stroke-width="0.3" x1="143.8653032363475" x2="146.44561519142675" y1="172.8068346515853" y2="177.08958963109032" /><path d="M 144.38136562736335 173.6633856474863 a86.0,86.0 0 0,1 -40.68145358897372,12.25698825130547" fill="none" id="id30" stroke="none" /><text fill="#e1ed5e" style="font-size:6.75px; font-family:Arial;" text-anchor="middle"><textPath startOffset="21.466115282336833" xlink:href="#id30">June</textPath></text><path d="M 110.5260780823613 118.17145234162733 l 15.450431752384775 26.672496826381508 a51.82430742593305,51.82430742593305 0 0,0 -0.7757635687046149,0.4404988004959513 l -14.98901941675896 -26.934498792672088" fill="red" stroke="none" /><path d="M 108.59647513512805 119.15986991738527 l 12.116266983933937 27.004800880288517 a50.598364755675256,50.598364755675256 0 0,0 -0.7977177365109454,0.3496960129230979 l -11.649628572765238 -27.20936144650607" fill="red" stroke="none" /><path d="M 107.59598834532513 119.57807347666477 l 10.633799151839531 27.40779628222282 a50.39838399384378,50.39838399384378 0 0,0 -0.8114854501846333,0.3068343612100425 l -10.160443480894623 -27.586778893539492" fill="red" stroke="none" /><path d="M 103.06178313531738 120.77559828337769 l 6.231565104390129 42.284018026019965 a63.740736821854554,63.740736821854554 0 0,0 -1.086844544409092,0.15062675050505708 l -5.502791968794207 -42.38501934201762" fill="red" stroke="none" /><line stroke="#e1ed5e" stroke-width="0.3" x1="102.19456741930631" x2="102.32365962044197" y1="184.97166512339345" y2="189.96999836594603" /><path d="M 102.22038585953345 185.97133177190398 a86.0,86.0 0 0,1 -42.740103519485714,-10.115201625700543" fill="none" id="id31" stroke="none" /><text fill="#e1ed5e" style="font-size:6.75px; font-family:Arial;" text-anchor="middle"><textPath startOffset="22.20632615414155" xlink:href="#id31">July</textPath></text><path d="M 99.09653310690486 120.98055641714683 l -2.6519221421207604 61.583664594543805 a82.64073682185457,82.64073682185457 0 0,0 -1.4206805727519158,-0.07343295801951541 l 3.7115907832861654 -61.52889182976209" fill="red" stroke="none" /><path d="M 98.37488393609728 120.93702456842531 l -2.3398013402163813 30.144602735449535 a51.23527318199308,51.23527318199308 0 0,0 -0.8786987985028195,-0.07581782970654186 l 2.8583444564607423 -30.09986065346433" fill="red" stroke="none" /><path d="M 97.2962882734958 120.8252237178851 l -8.009316870458484 61.69141999113584 a83.20916698730281,83.20916698730281 0 0,0 -1.4188011261577975,-0.19663290794015703 l 9.070046587803112 -61.54441251770307" fill="red" stroke="none" /><path d="M 93.42475214034765 119.94407469862007 l -8.50677435432264 25.802790524141024 a48.16890150057715,48.16890150057715 0 0,0 -0.785222519753002,-0.2663901116512166 l 8.949666607012869 -25.652537425591685" fill="red" stroke="none" /><path d="M 90.10565033884886 118.52300852407294 l -28.520396276059962 53.39244734857436 a81.53235859946133,81.53235859946133 0 0,0 -1.232214795905462,-0.6719017542719918 l 29.435233883834066 -52.8936049425426" fill="red" stroke="none" /><line stroke="#e1ed5e" stroke-width="0.3" x1="58.666819895761336" x2="56.23545636021788" y1="174.27360380694188" y2="178.64263932499728" /><path d="M 58.180547188652646 175.14741091055294 a86.0,86.0 0 0,1 -31.652253787137756,-30.449443065178592" fill="none" id="id32" stroke="none" /><text fill="#e1ed5e" style="font-size:6.75px; font-family:Arial;" text-anchor="middle"><textPath startOffset="22.20632615414155" xlink:href="#id32">August</textPath></text><path d="M 87.36589467227662 116.77436683061367 l -28.361840755701895 37.65616230724601 a68.14213158907272,68.14213158907272 0 0,0 -0.9308580920057825,-0.713742291124696 l 29.005827576201163 -37.16238067429394" fill="red" stroke="none" /><path d="M 83.50135304334701 112.99209946851258 l -39.384409586809795 31.013826055241385 a71.12972297037322,71.12972297037322 0 0,0 -0.7492099911530439,-0.9684549080884647 l 39.91242639518091 -30.331293153039667" fill="red" stroke="none" /><path d="M 82.85270091963577 112.12312394758628 l -39.21727169914199 27.726573349344488 a69.02871296652559,69.02871296652559 0 0,0 -0.6775960128897635,-0.9761275940664018 l 39.68872861919389 -27.047404493091072" fill="red" stroke="none" /><line stroke="#e1ed5e" stroke-width="0.3" x1="26.63291911575756" x2="22.317208475507996" y1="142.92168965132927" y2="145.44649492493687" /><path d="M 25.769776987707644 143.4266507060508 a86.0,86.0 0 0,1 -11.730757126820373,-40.83630448921669" fill="none" id="id33" stroke="none" /><text fill="#e1ed5e" style="font-size:6.75px; font-family:Arial;" text-anchor="middle"><textPath startOffset="21.46611528233685" xlink:href="#id33">September</textPath></text><line stroke="#e1ed5e" stroke-width="0.3" x1="15.007084014347285" x2="10.007500721073583" y1="101.09737516637583" y2="101.16192664675087" /><path d="M 14.007167355692545 101.11028546245083 a86.0,86.0 0 0,1 10.666146001902534,-42.60595125391555" fill="none" id="id34" stroke="none" /><text fill="#e1ed5e" style="font-size:6.75px; font-family:Arial;" text-anchor="middle"><textPath startOffset="22.20632615414155" xlink:href="#id34">October</textPath></text><path d="M 79.01574976396665 99.18683210126434 l -49.20015431206638 -1.9065721028580165 a70.23708156983454,70.23708156983454 0 0,0 0.05721443018425192,-1.2077061932419524 l 49.16004627364863 2.753189402722978" fill="red" stroke="none" /><path d="M 79.81627453868168 94.20196356495316 l -60.551176383954946 -17.394109305140535 a84.0,84.0 0 0,0 0.4111764115531722,-1.3862824530138431 l 60.24279407529007 18.433821144900918" fill="red" stroke="none" /><line stroke="#e1ed5e" stroke-width="0.3" x1="26.266209847984243" x2="21.928928074336255" y1="57.711370442889674" y2="55.22380399835377" /><path d="M 25.398753493254645 57.213857153982495 a86.0,86.0 0 0,1 29.58750427330803,-30.492523968695096" fill="none" id="id35" stroke="none" /><text fill="#e1ed5e" style="font-size:6.75px; font-family:Arial;" text-anchor="middle"><textPath startOffset="21.46611528233685" xlink:href="#id35">November</textPath></text><line stroke="#e1ed5e" stroke-width="0.3" x1="56.762969772571076" x2="54.21961505331055" y1="26.818313649435495" y2="22.513508569990535" /><path d="M 56.25429882871897 25.957352633546506 a86.0,86.0 0 0,1 42.265352541879196,-11.944610805530505" fill="none" id="id36" stroke="none" /><text fill="#e1ed5e" style="font-size:6.75px; font-family:Arial;" text-anchor="middle"><textPath startOffset="22.20632615414155" xlink:href="#id36">December</textPath></text></svg>